NotoSansKhmerUI-CondensedBold.ufo
<glyph name="exclam" format="2">
  <advance width="300"/>
  <unicode hex="0021"/>
  <note>
exclam
</note>
  <outline>
    <contour>
      <point x="235" y="510" type="line"/>
      <point x="260" y="958" type="line"/>
      <point x="41" y="958" type="line"/>
      <point x="66" y="510" type="line"/>
    </contour>
    <contour>
      <point x="45" y="327" type="curve" smooth="yes"/>
      <point x="45" y="263"/>
      <point x="87" y="232"/>
      <point x="150" y="232" type="curve" smooth="yes"/>
      <point x="211" y="232"/>
      <point x="254" y="263"/>
      <point x="254" y="327" type="curve" smooth="yes"/>
      <point x="254" y="394"/>
      <point x="211" y="423"/>
      <point x="150" y="423" type="curve" smooth="yes"/>
      <point x="87" y="423"/>
      <point x="45" y="394"/>
    </contour>
  </outline>
</glyph>
<glyph name="quotesingle" format="2">
  <advance width="252"/>
  <unicode hex="0027"/>
  <note>
quotesingle
</note>
  <outline>
    <contour>
      <point x="59" y="700" type="line"/>
      <point x="193" y="700" type="line"/>
      <point x="213" y="958" type="line"/>
      <point x="39" y="958" type="line"/>
    </contour>
  </outline>
</glyph>
<glyph name="parenright" format="2">
  <advance width="370"/>
  <unicode hex="0029"/>
  <note>
parenright
</note>
  <outline>
    <contour>
      <point x="330" y="518" type="curve" smooth="yes"/>
      <point x="330" y="686"/>
      <point x="282" y="839"/>
      <point x="183" y="958" type="curve"/>
      <point x="30" y="958" type="line"/>
      <point x="119" y="834"/>
      <point x="167" y="678"/>
      <point x="167" y="519" type="curve" smooth="yes"/>
      <point x="167" y="363"/>
      <point x="119" y="206"/>
      <point x="31" y="86" type="curve"/>
      <point x="183" y="86" type="line"/>
      <point x="282" y="201"/>
      <point x="330" y="353"/>
    </contour>
  </outline>
</glyph>
<glyph name="hyphen" format="2">
  <advance width="325"/>
  <unicode hex="002D"/>
  <note>
hyphen
</note>
  <outline>
    <contour>
      <point x="29" y="436" type="line"/>
      <point x="296" y="436" type="line"/>
      <point x="296" y="588" type="line"/>
      <point x="29" y="588" type="line"/>
    </contour>
  </outline>
</glyph>
<glyph name="period" format="2">
  <advance width="299"/>
  <unicode hex="002E"/>
  <note>
period
</note>
  <outline>
    <contour>
      <point x="45" y="327" type="curve" smooth="yes"/>
      <point x="45" y="263"/>
      <point x="87" y="232"/>
      <point x="151" y="232" type="curve" smooth="yes"/>
      <point x="211" y="232"/>
      <point x="254" y="263"/>
      <point x="254" y="327" type="curve" smooth="yes"/>
      <point x="254" y="392"/>
      <point x="212" y="423"/>
      <point x="151" y="423" type="curve" smooth="yes"/>
      <point x="87" y="423"/>
      <point x="45" y="394"/>
    </contour>
  </outline>
</glyph>
<glyph name="colon" format="2">
  <advance width="280"/>
  <unicode hex="003A"/>
  <note>
colon
</note>
  <outline>
    <contour>
      <point x="49" y="325" type="curve" smooth="yes"/>
      <point x="49" y="266"/>
      <point x="84" y="232"/>
      <point x="142" y="232" type="curve" smooth="yes"/>
      <point x="198" y="232"/>
      <point x="231" y="266"/>
      <point x="231" y="325" type="curve" smooth="yes"/>
      <point x="231" y="385"/>
      <point x="200" y="419"/>
      <point x="142" y="419" type="curve" smooth="yes"/>
      <point x="81" y="419"/>
      <point x="49" y="385"/>
    </contour>
    <contour>
      <point x="49" y="711" type="curve" smooth="yes"/>
      <point x="49" y="652"/>
      <point x="84" y="618"/>
      <point x="142" y="618" type="curve" smooth="yes"/>
      <point x="198" y="618"/>
      <point x="231" y="652"/>
      <point x="231" y="711" type="curve" smooth="yes"/>
      <point x="231" y="771"/>
      <point x="200" y="805"/>
      <point x="142" y="805" type="curve" smooth="yes"/>
      <point x="81" y="805"/>
      <point x="49" y="771"/>
    </contour>
  </outline>
</glyph>
<glyph name="semicolon" format="2">
  <advance width="280"/>
  <unicode hex="003B"/>
  <note>
semicolon
</note>
  <outline>
    <contour>
      <point x="225" y="390" type="line"/>
      <point x="67" y="390" type="line"/>
      <point x="61" y="313"/>
      <point x="46" y="184"/>
      <point x="30" y="105" type="curve"/>
      <point x="165" y="105" type="line"/>
      <point x="193" y="178"/>
      <point x="215" y="269"/>
      <point x="230" y="379" type="curve"/>
    </contour>
    <contour>
      <point x="49" y="711" type="curve" smooth="yes"/>
      <point x="49" y="652"/>
      <point x="84" y="618"/>
      <point x="142" y="618" type="curve" smooth="yes"/>
      <point x="198" y="618"/>
      <point x="231" y="652"/>
      <point x="231" y="711" type="curve" smooth="yes"/>
      <point x="231" y="771"/>
      <point x="200" y="805"/>
      <point x="142" y="805" type="curve" smooth="yes"/>
      <point x="81" y="805"/>
      <point x="49" y="771"/>
    </contour>
  </outline>
</glyph>
<glyph name="question" format="2">
  <advance width="402"/>
  <unicode hex="003F"/>
  <note>
question
</note>
  <outline>
    <contour>
      <point x="107" y="496" type="line"/>
      <point x="243" y="496" type="line"/>
      <point x="243" y="521" type="line" smooth="yes"/>
      <point x="243" y="550"/>
      <point x="245" y="561"/>
      <point x="295" y="606" type="curve" smooth="yes"/>
      <point x="354" y="658"/>
      <point x="388" y="704"/>
      <point x="388" y="790" type="curve" smooth="yes"/>
      <point x="388" y="899"/>
      <point x="319" y="968"/>
      <point x="189" y="968" type="curve" smooth="yes"/>
      <point x="126" y="968"/>
      <point x="63" y="945"/>
      <point x="0" y="899" type="curve"/>
      <point x="52" y="772" type="line"/>
      <point x="98" y="806"/>
      <point x="138" y="824"/>
      <point x="173" y="824" type="curve" smooth="yes"/>
      <point x="212" y="824"/>
      <point x="230" y="807"/>
      <point x="230" y="776" type="curve" smooth="yes"/>
      <point x="230" y="738"/>
      <point x="215" y="720"/>
      <point x="175" y="684" type="curve" smooth="yes"/>
      <point x="126" y="640"/>
      <point x="107" y="603"/>
      <point x="107" y="538" type="curve" smooth="yes"/>
    </contour>
    <contour>
      <point x="83" y="325" type="curve" smooth="yes"/>
      <point x="83" y="266"/>
      <point x="119" y="232"/>
      <point x="176" y="232" type="curve" smooth="yes"/>
      <point x="233" y="232"/>
      <point x="266" y="266"/>
      <point x="266" y="325" type="curve" smooth="yes"/>
      <point x="266" y="385"/>
      <point x="234" y="419"/>
      <point x="176" y="419" type="curve" smooth="yes"/>
      <point x="116" y="419"/>
      <point x="83" y="385"/>
    </contour>
  </outline>
</glyph>
<glyph name="guillemotleft" format="2">
  <advance width="560"/>
  <unicode hex="00AB"/>
  <note>
guillemotleft
</note>
  <outline>
    <contour>
      <point x="22" y="531" type="line"/>
      <point x="22" y="517" type="line"/>
      <point x="177" y="286" type="line"/>
      <point x="294" y="348" type="line"/>
      <point x="193" y="524" type="line"/>
      <point x="294" y="701" type="line"/>
      <point x="177" y="763" type="line"/>
    </contour>
    <contour>
      <point x="261" y="531" type="line"/>
      <point x="261" y="517" type="line"/>
      <point x="416" y="286" type="line"/>
      <point x="533" y="348" type="line"/>
      <point x="433" y="524" type="line"/>
      <point x="533" y="701" type="line"/>
      <point x="416" y="763" type="line"/>
    </contour>
  </outline>
</glyph>
<glyph name="guillemotright" format="2">
  <advance width="560"/>
  <unicode hex="00BB"/>
  <note>
guillemotright
</note>
  <outline>
    <contour>
      <point x="538" y="517" type="line"/>
      <point x="538" y="531" type="line"/>
      <point x="383" y="763" type="line"/>
      <point x="266" y="701" type="line"/>
      <point x="367" y="524" type="line"/>
      <point x="266" y="348" type="line"/>
      <point x="383" y="286" type="line"/>
    </contour>
    <contour>
      <point x="299" y="517" type="line"/>
      <point x="299" y="531" type="line"/>
      <point x="144" y="763" type="line"/>
      <point x="27" y="701" type="line"/>
      <point x="127" y="524" type="line"/>
      <point x="27" y="348" type="line"/>
      <point x="144" y="286" type="line"/>
    </contour>
  </outline>
</glyph>
<glyph name="uni1780" format="2">
  <advance width="561"/>
  <unicode hex="1780"/>
  <note>
uni1780
</note>
  <outline>
    <contour>
      <point x="60" y="668" type="line"/>
      <point x="501" y="668" type="line"/>
      <point x="501" y="780" type="line"/>
      <point x="60" y="780" type="line"/>
    </contour>
    <contour>
      <point x="60" y="244" type="line"/>
      <point x="211" y="244" type="line"/>
      <point x="211" y="460" type="line" smooth="yes"/>
      <point x="211" y="493"/>
      <point x="237" y="523"/>
      <point x="280" y="523" type="curve" smooth="yes"/>
      <point x="323" y="523"/>
      <point x="350" y="493"/>
      <point x="350" y="460" type="curve" smooth="yes"/>
      <point x="350" y="244" type="line"/>
      <point x="501" y="244" type="line"/>
      <point x="501" y="460" type="line" smooth="yes"/>
      <point x="501" y="568"/>
      <point x="423" y="634"/>
      <point x="280" y="634" type="curve" smooth="yes"/>
      <point x="138" y="634"/>
      <point x="60" y="568"/>
      <point x="60" y="460" type="curve" smooth="yes"/>
    </contour>
  </outline>
</glyph>
<glyph name="uni1782" format="2">
  <advance width="561"/>
  <unicode hex="1782"/>
  <note>
uni1782
</note>
  <outline>
    <contour>
      <point x="60" y="668" type="line"/>
      <point x="501" y="668" type="line"/>
      <point x="501" y="780" type="line"/>
      <point x="60" y="780" type="line"/>
    </contour>
    <contour>
      <point x="60" y="244" type="line"/>
      <point x="211" y="244" type="line"/>
      <point x="211" y="321" type="line"/>
      <point x="217" y="332"/>
      <point x="232" y="352"/>
      <point x="259" y="352" type="curve" smooth="yes"/>
      <point x="301" y="352" type="line"/>
      <point x="301" y="464" type="line"/>
      <point x="274" y="464" type="line" smooth="yes"/>
      <point x="243" y="464"/>
      <point x="225" y="456"/>
      <point x="211" y="435" type="curve"/>
      <point x="211" y="460" type="line" smooth="yes"/>
      <point x="211" y="495"/>
      <point x="237" y="525"/>
      <point x="280" y="525" type="curve" smooth="yes"/>
      <point x="323" y="525"/>
      <point x="350" y="493"/>
      <point x="350" y="460" type="curve" smooth="yes"/>
      <point x="350" y="244" type="line"/>
      <point x="501" y="244" type="line"/>
      <point x="501" y="460" type="line" smooth="yes"/>
      <point x="501" y="568"/>
      <point x="423" y="636"/>
      <point x="280" y="636" type="curve" smooth="yes"/>
      <point x="138" y="636"/>
      <point x="60" y="568"/>
      <point x="60" y="460" type="curve" smooth="yes"/>
    </contour>
  </outline>
</glyph>
<glyph name="uni1785" format="2">
  <advance width="588"/>
  <unicode hex="1785"/>
  <note>
uni1785
</note>
  <outline>
    <contour>
      <point x="528" y="398" type="line"/>
      <point x="377" y="398" type="line"/>
      <point x="377" y="389" type="line" smooth="yes"/>
      <point x="377" y="372"/>
      <point x="356" y="356"/>
      <point x="307" y="356" type="curve" smooth="yes"/>
      <point x="258" y="356"/>
      <point x="238" y="372"/>
      <point x="238" y="389" type="curve" smooth="yes"/>
      <point x="238" y="568" type="line"/>
      <point x="170" y="615"/>
      <point x="152" y="644"/>
      <point x="152" y="651" type="curve" smooth="yes"/>
      <point x="152" y="656"/>
      <point x="154" y="663"/>
      <point x="162" y="668" type="curve"/>
      <point x="528" y="668" type="line"/>
      <point x="528" y="780" type="line"/>
      <point x="118" y="780" type="line"/>
      <point x="64" y="711"/>
      <point x="46" y="689"/>
      <point x="46" y="663" type="curve" smooth="yes"/>
      <point x="46" y="647"/>
      <point x="68" y="610"/>
      <point x="87" y="578" type="curve"/>
      <point x="87" y="392" type="line" smooth="yes"/>
      <point x="87" y="297"/>
      <point x="160" y="244"/>
      <point x="307" y="244" type="curve" smooth="yes"/>
      <point x="453" y="244"/>
      <point x="528" y="297"/>
      <point x="528" y="392" type="curve" smooth="yes"/>
    </contour>
    <contour>
      <point x="528" y="392" type="line"/>
      <point x="528" y="557" type="line" smooth="yes"/>
      <point x="528" y="598"/>
      <point x="490" y="628"/>
      <point x="431" y="628" type="curve" smooth="yes"/>
      <point x="331" y="628"/>
      <point x="283" y="577"/>
      <point x="283" y="505" type="curve" smooth="yes"/>
      <point x="283" y="447"/>
      <point x="321" y="405"/>
      <point x="377" y="405" type="curve"/>
      <point x="377" y="392" type="line"/>
    </contour>
    <contour>
      <point x="377" y="480" type="line"/>
      <point x="367" y="480"/>
      <point x="356" y="489"/>
      <point x="356" y="510" type="curve" smooth="yes"/>
      <point x="356" y="529"/>
      <point x="367" y="539"/>
      <point x="377" y="539" type="curve"/>
    </contour>
  </outline>
</glyph>
<glyph name="uni1787" format="2">
  <advance width="583"/>
  <unicode hex="1787"/>
  <note>
uni1787
</note>
  <outline>
    <contour>
      <point x="81" y="244" type="line"/>
      <point x="208" y="244" type="line"/>
      <point x="302" y="327" type="line"/>
      <point x="396" y="244" type="line"/>
      <point x="523" y="244" type="line"/>
      <point x="523" y="578" type="line"/>
      <point x="372" y="578" type="line"/>
      <point x="372" y="409" type="line"/>
      <point x="302" y="467" type="line"/>
      <point x="232" y="408" type="line"/>
      <point x="232" y="528" type="line"/>
      <point x="164" y="575"/>
      <point x="146" y="604"/>
      <point x="146" y="611" type="curve" smooth="yes"/>
      <point x="146" y="616"/>
      <point x="148" y="623"/>
      <point x="156" y="628" type="curve"/>
      <point x="423" y="628" type="line" smooth="yes"/>
      <point x="517" y="628"/>
      <point x="523" y="673"/>
      <point x="523" y="764" type="curve" smooth="yes"/>
      <point x="523" y="788" type="line"/>
      <point x="372" y="788" type="line"/>
      <point x="372" y="764" type="line" smooth="yes"/>
      <point x="372" y="748"/>
      <point x="368" y="740"/>
      <point x="355" y="740" type="curve" smooth="yes"/>
      <point x="112" y="740" type="line"/>
      <point x="58" y="671"/>
      <point x="40" y="649"/>
      <point x="40" y="623" type="curve" smooth="yes"/>
      <point x="40" y="607"/>
      <point x="62" y="570"/>
      <point x="81" y="538" type="curve"/>
    </contour>
  </outline>
</glyph>
<glyph name="uni178A" format="2">
  <advance width="561"/>
  <unicode hex="178A"/>
  <note>
uni178A
</note>
  <outline>
    <contour>
      <point x="60" y="617" type="line"/>
      <point x="397" y="617" type="line" smooth="yes"/>
      <point x="483" y="617"/>
      <point x="501" y="663"/>
      <point x="501" y="752" type="curve" smooth="yes"/>
      <point x="501" y="793" type="line"/>
      <point x="350" y="793" type="line"/>
      <point x="350" y="752" type="line" smooth="yes"/>
      <point x="350" y="737"/>
      <point x="335" y="729"/>
      <point x="304" y="729" type="curve" smooth="yes"/>
      <point x="211" y="729" type="line"/>
      <point x="211" y="764" type="line"/>
      <point x="60" y="764" type="line"/>
    </contour>
    <contour>
      <point x="60" y="244" type="line"/>
      <point x="187" y="244" type="line"/>
      <point x="281" y="320" type="line"/>
      <point x="375" y="244" type="line"/>
      <point x="501" y="244" type="line"/>
      <point x="501" y="576" type="line"/>
      <point x="350" y="576" type="line"/>
      <point x="350" y="409" type="line"/>
      <point x="281" y="467" type="line"/>
      <point x="211" y="408" type="line"/>
      <point x="211" y="576" type="line"/>
      <point x="60" y="576" type="line"/>
    </contour>
  </outline>
</glyph>
<glyph name="uni178B" format="2">
  <advance width="586"/>
  <unicode hex="178B"/>
  <note>
uni178B
</note>
  <outline>
    <contour>
      <point x="294" y="244" type="curve" smooth="yes"/>
      <point x="442" y="244"/>
      <point x="516" y="297"/>
      <point x="516" y="402" type="curve" smooth="yes"/>
      <point x="516" y="538" type="line"/>
      <point x="466" y="600" type="line"/>
      <point x="467" y="602" type="line"/>
      <point x="481" y="602" type="line" smooth="yes"/>
      <point x="517" y="602"/>
      <point x="526" y="623"/>
      <point x="526" y="648" type="curve" smooth="yes"/>
      <point x="526" y="802" type="line"/>
      <point x="375" y="802" type="line"/>
      <point x="375" y="743" type="line" smooth="yes"/>
      <point x="375" y="722"/>
      <point x="360" y="714"/>
      <point x="346" y="714" type="curve" smooth="yes"/>
      <point x="332" y="714" type="line"/>
      <point x="303" y="668"/>
      <point x="280" y="639"/>
      <point x="280" y="622" type="curve" smooth="yes"/>
      <point x="280" y="609"/>
      <point x="284" y="603"/>
      <point x="365" y="492" type="curve"/>
      <point x="365" y="447" type="line" smooth="yes"/>
      <point x="365" y="387"/>
      <point x="340" y="356"/>
      <point x="294" y="356" type="curve" smooth="yes"/>
      <point x="248" y="356"/>
      <point x="225" y="387"/>
      <point x="225" y="447" type="curve" smooth="yes"/>
      <point x="225" y="725" type="line" smooth="yes"/>
      <point x="225" y="763"/>
      <point x="193" y="780"/>
      <point x="127" y="780" type="curve" smooth="yes"/>
      <point x="40" y="780" type="line"/>
      <point x="40" y="668" type="line"/>
      <point x="63" y="668"/>
      <point x="74" y="663"/>
      <point x="74" y="648" type="curve" smooth="yes"/>
      <point x="74" y="402" type="line" smooth="yes"/>
      <point x="74" y="297"/>
      <point x="148" y="244"/>
    </contour>
  </outline>
</glyph>
<glyph name="uni178C" format="2">
  <advance width="555"/>
  <unicode hex="178C"/>
  <note>
uni178C
</note>
  <outline>
    <contour>
      <point x="344" y="234" type="line"/>
      <point x="495" y="234" type="line"/>
      <point x="495" y="418" type="line"/>
      <point x="344" y="418" type="line"/>
      <point x="344" y="404" type="line" smooth="yes"/>
      <point x="344" y="383"/>
      <point x="273" y="351"/>
      <point x="242" y="351" type="curve" smooth="yes"/>
      <point x="217" y="351"/>
      <point x="204" y="370"/>
      <point x="204" y="392" type="curve" smooth="yes"/>
      <point x="204" y="401" type="line"/>
      <point x="239" y="409" type="line" smooth="yes"/>
      <point x="397" y="445"/>
      <point x="494" y="531"/>
      <point x="494" y="648" type="curve" smooth="yes"/>
      <point x="494" y="742"/>
      <point x="448" y="780"/>
      <point x="386" y="780" type="curve" smooth="yes"/>
      <point x="338" y="780"/>
      <point x="306" y="759"/>
      <point x="275" y="719" type="curve"/>
      <point x="273" y="719" type="line"/>
      <point x="242" y="762"/>
      <point x="215" y="780"/>
      <point x="175" y="780" type="curve" smooth="yes"/>
      <point x="91" y="780"/>
      <point x="53" y="724"/>
      <point x="53" y="656" type="curve" smooth="yes"/>
      <point x="53" y="579"/>
      <point x="96" y="536"/>
      <point x="168" y="536" type="curve" smooth="yes"/>
      <point x="206" y="536" type="line"/>
      <point x="206" y="621" type="line"/>
      <point x="203" y="621"/>
      <point x="195" y="625"/>
      <point x="195" y="640" type="curve" smooth="yes"/>
      <point x="195" y="651"/>
      <point x="202" y="657"/>
      <point x="210" y="657" type="curve" smooth="yes"/>
      <point x="228" y="657"/>
      <point x="252" y="601"/>
      <point x="274" y="601" type="curve" smooth="yes"/>
      <point x="289" y="601"/>
      <point x="298" y="614"/>
      <point x="308" y="628" type="curve" smooth="yes"/>
      <point x="319" y="643"/>
      <point x="331" y="657"/>
      <point x="337" y="657" type="curve" smooth="yes"/>
      <point x="347" y="657"/>
      <point x="352" y="647"/>
      <point x="352" y="633" type="curve" smooth="yes"/>
      <point x="352" y="589"/>
      <point x="308" y="539"/>
      <point x="235" y="522" type="curve" smooth="yes"/>
      <point x="53" y="480" type="line"/>
      <point x="53" y="387" type="line" smooth="yes"/>
      <point x="53" y="294"/>
      <point x="136" y="244"/>
      <point x="213" y="244" type="curve" smooth="yes"/>
      <point x="252" y="244"/>
      <point x="297" y="257"/>
      <point x="343" y="309" type="curve"/>
      <point x="344" y="309" type="line"/>
    </contour>
  </outline>
</glyph>
<glyph name="uni178D" format="2">
  <advance width="822"/>
  <unicode hex="178D"/>
  <note>
uni178D
</note>
  <outline>
    <contour>
      <point x="754" y="565" type="line"/>
      <point x="603" y="565" type="line"/>
      <point x="603" y="413" type="line" smooth="yes"/>
      <point x="603" y="380"/>
      <point x="588" y="365"/>
      <point x="569" y="365" type="curve" smooth="yes"/>
      <point x="547" y="365"/>
      <point x="534" y="385"/>
      <point x="525" y="419" type="curve"/>
      <point x="486" y="419" type="line"/>
      <point x="486" y="303" type="line"/>
      <point x="509" y="303" type="line"/>
      <point x="529" y="266"/>
      <point x="561" y="244"/>
      <point x="610" y="244" type="curve" smooth="yes"/>
      <point x="673" y="244"/>
      <point x="754" y="295"/>
      <point x="754" y="407" type="curve" smooth="yes"/>
    </contour>
    <contour>
      <point x="60" y="495" type="line"/>
      <point x="211" y="495" type="line"/>
      <point x="211" y="645" type="line" smooth="yes"/>
      <point x="211" y="656"/>
      <point x="215" y="662"/>
      <point x="222" y="662" type="curve" smooth="yes"/>
      <point x="238" y="662"/>
      <point x="255" y="601"/>
      <point x="280" y="601" type="curve" smooth="yes"/>
      <point x="306" y="601"/>
      <point x="322" y="662"/>
      <point x="340" y="662" type="curve" smooth="yes"/>
      <point x="346" y="662"/>
      <point x="351" y="656"/>
      <point x="351" y="645" type="curve" smooth="yes"/>
      <point x="351" y="244" type="line"/>
      <point x="502" y="244" type="line"/>
      <point x="502" y="645" type="line" smooth="yes"/>
      <point x="502" y="714"/>
      <point x="466" y="780"/>
      <point x="387" y="780" type="curve" smooth="yes"/>
      <point x="347" y="780"/>
      <point x="313" y="759"/>
      <point x="283" y="719" type="curve"/>
      <point x="280" y="719" type="line"/>
      <point x="250" y="760"/>
      <point x="215" y="780"/>
      <point x="176" y="780" type="curve" smooth="yes"/>
      <point x="90" y="780"/>
      <point x="60" y="715"/>
      <point x="60" y="645" type="curve" smooth="yes"/>
    </contour>
    <contour>
      <point x="60" y="503" type="line"/>
      <point x="60" y="314" type="line" smooth="yes"/>
      <point x="60" y="263"/>
      <point x="78" y="244"/>
      <point x="142" y="244" type="curve" smooth="yes"/>
      <point x="189" y="244" type="line" smooth="yes"/>
      <point x="267" y="244"/>
      <point x="316" y="296"/>
      <point x="316" y="369" type="curve" smooth="yes"/>
      <point x="316" y="454"/>
      <point x="277" y="485"/>
      <point x="211" y="485" type="curve"/>
      <point x="211" y="503" type="line" smooth="yes"/>
    </contour>
    <contour>
      <point x="211" y="324" type="curve"/>
      <point x="211" y="408" type="line"/>
      <point x="223" y="408"/>
      <point x="235" y="396"/>
      <point x="235" y="371" type="curve" smooth="yes"/>
      <point x="235" y="344"/>
      <point x="222" y="324"/>
    </contour>
    <contour>
      <point x="603" y="548" type="line"/>
      <point x="754" y="548" type="line"/>
      <point x="754" y="604" type="line"/>
      <point x="698" y="667" type="line"/>
      <point x="698" y="668" type="line"/>
      <point x="762" y="668" type="line"/>
      <point x="762" y="780" type="line"/>
      <point x="611" y="780" type="line"/>
      <point x="561" y="705"/>
      <point x="543" y="678"/>
      <point x="543" y="667" type="curve" smooth="yes"/>
      <point x="543" y="656"/>
      <point x="575" y="618"/>
      <point x="603" y="585" type="curve"/>
    </contour>
  </outline>
</glyph>
<glyph name="uni178E" format="2">
  <advance width="1064"/>
  <unicode hex="178E"/>
  <note>
uni178E
</note>
  <outline>
    <contour>
      <point x="60" y="495" type="line"/>
      <point x="211" y="495" type="line"/>
      <point x="211" y="622" type="line" smooth="yes"/>
      <point x="211" y="653"/>
      <point x="230" y="668"/>
      <point x="268" y="668" type="curve" smooth="yes"/>
      <point x="307" y="668"/>
      <point x="326" y="653"/>
      <point x="326" y="622" type="curve" smooth="yes"/>
      <point x="326" y="244" type="line"/>
      <point x="452" y="244" type="line"/>
      <point x="533" y="306" type="line"/>
      <point x="614" y="244" type="line"/>
      <point x="740" y="244" type="line"/>
      <point x="740" y="622" type="line" smooth="yes"/>
      <point x="740" y="653"/>
      <point x="759" y="668"/>
      <point x="797" y="668" type="curve" smooth="yes"/>
      <point x="834" y="668"/>
      <point x="853" y="653"/>
      <point x="853" y="622" type="curve" smooth="yes"/>
      <point x="853" y="244" type="line"/>
      <point x="1004" y="244" type="line"/>
      <point x="1004" y="622" type="line" smooth="yes"/>
      <point x="1004" y="727"/>
      <point x="934" y="780"/>
      <point x="797" y="780" type="curve" smooth="yes"/>
      <point x="659" y="780"/>
      <point x="589" y="727"/>
      <point x="589" y="622" type="curve" smooth="yes"/>
      <point x="589" y="409" type="line"/>
      <point x="533" y="453" type="line"/>
      <point x="477" y="408" type="line"/>
      <point x="477" y="622" type="line" smooth="yes"/>
      <point x="477" y="727"/>
      <point x="405" y="780"/>
      <point x="268" y="780" type="curve" smooth="yes"/>
      <point x="129" y="780"/>
      <point x="60" y="727"/>
      <point x="60" y="622" type="curve" smooth="yes"/>
    </contour>
    <contour>
      <point x="60" y="503" type="line"/>
      <point x="60" y="314" type="line" smooth="yes"/>
      <point x="60" y="263"/>
      <point x="78" y="244"/>
      <point x="142" y="244" type="curve" smooth="yes"/>
      <point x="189" y="244" type="line" smooth="yes"/>
      <point x="267" y="244"/>
      <point x="316" y="296"/>
      <point x="316" y="369" type="curve" smooth="yes"/>
      <point x="316" y="454"/>
      <point x="277" y="485"/>
      <point x="211" y="485" type="curve"/>
      <point x="211" y="503" type="line" smooth="yes"/>
    </contour>
    <contour>
      <point x="211" y="324" type="curve"/>
      <point x="211" y="408" type="line"/>
      <point x="223" y="408"/>
      <point x="235" y="396"/>
      <point x="235" y="371" type="curve" smooth="yes"/>
      <point x="235" y="344"/>
      <point x="222" y="324"/>
    </contour>
  </outline>
</glyph>
<glyph name="uni178F" format="2">
  <advance width="562"/>
  <unicode hex="178F"/>
  <note>
uni178F
</note>
  <outline>
    <contour>
      <point x="60" y="668" type="line"/>
      <point x="501" y="668" type="line"/>
      <point x="501" y="780" type="line"/>
      <point x="60" y="780" type="line"/>
    </contour>
    <contour>
      <point x="60" y="477" type="line"/>
      <point x="211" y="477" type="line"/>
      <point x="211" y="488" type="line" smooth="yes"/>
      <point x="211" y="509"/>
      <point x="234" y="527"/>
      <point x="280" y="527" type="curve" smooth="yes"/>
      <point x="326" y="527"/>
      <point x="351" y="509"/>
      <point x="351" y="488" type="curve" smooth="yes"/>
      <point x="351" y="244" type="line"/>
      <point x="502" y="244" type="line"/>
      <point x="502" y="505" type="line" smooth="yes"/>
      <point x="502" y="580"/>
      <point x="428" y="638"/>
      <point x="280" y="638" type="curve" smooth="yes"/>
      <point x="133" y="638"/>
      <point x="60" y="580"/>
      <point x="60" y="505" type="curve" smooth="yes"/>
    </contour>
    <contour>
      <point x="60" y="503" type="line"/>
      <point x="60" y="314" type="line" smooth="yes"/>
      <point x="60" y="263"/>
      <point x="78" y="244"/>
      <point x="142" y="244" type="curve" smooth="yes"/>
      <point x="189" y="244" type="line" smooth="yes"/>
      <point x="267" y="244"/>
      <point x="316" y="296"/>
      <point x="316" y="369" type="curve" smooth="yes"/>
      <point x="316" y="454"/>
      <point x="277" y="485"/>
      <point x="211" y="485" type="curve"/>
      <point x="211" y="503" type="line" smooth="yes"/>
    </contour>
    <contour>
      <point x="211" y="324" type="curve"/>
      <point x="211" y="408" type="line"/>
      <point x="223" y="408"/>
      <point x="235" y="396"/>
      <point x="235" y="371" type="curve" smooth="yes"/>
      <point x="235" y="344"/>
      <point x="222" y="324"/>
    </contour>
  </outline>
</glyph>
<glyph name="uni1794" format="2">
  <advance width="591"/>
  <unicode hex="1794"/>
  <note>
uni1794
</note>
  <outline>
    <contour>
      <point x="232" y="573" type="line"/>
      <point x="81" y="573" type="line"/>
      <point x="81" y="402" type="line" smooth="yes"/>
      <point x="81" y="297"/>
      <point x="154" y="244"/>
      <point x="301" y="244" type="curve" smooth="yes"/>
      <point x="449" y="244"/>
      <point x="523" y="297"/>
      <point x="523" y="402" type="curve" smooth="yes"/>
      <point x="523" y="570" type="line"/>
      <point x="372" y="570" type="line"/>
      <point x="372" y="412" type="line" smooth="yes"/>
      <point x="372" y="381"/>
      <point x="349" y="356"/>
      <point x="301" y="356" type="curve" smooth="yes"/>
      <point x="255" y="356"/>
      <point x="232" y="381"/>
      <point x="232" y="412" type="curve" smooth="yes"/>
    </contour>
    <contour>
      <point x="372" y="548" type="line"/>
      <point x="523" y="548" type="line"/>
      <point x="523" y="604" type="line"/>
      <point x="467" y="667" type="line"/>
      <point x="467" y="668" type="line"/>
      <point x="531" y="668" type="line"/>
      <point x="531" y="780" type="line"/>
      <point x="380" y="780" type="line"/>
      <point x="330" y="705"/>
      <point x="312" y="678"/>
      <point x="312" y="667" type="curve" smooth="yes"/>
      <point x="312" y="656"/>
      <point x="344" y="618"/>
      <point x="372" y="585" type="curve"/>
    </contour>
    <contour>
      <point x="81" y="548" type="line"/>
      <point x="232" y="548" type="line"/>
      <point x="232" y="604" type="line"/>
      <point x="180" y="667" type="line"/>
      <point x="180" y="668" type="line"/>
      <point x="239" y="668" type="line"/>
      <point x="239" y="780" type="line"/>
      <point x="99" y="780" type="line"/>
      <point x="64" y="726"/>
      <point x="46" y="699"/>
      <point x="46" y="685" type="curve" smooth="yes"/>
      <point x="46" y="676"/>
      <point x="48" y="673"/>
      <point x="81" y="620" type="curve"/>
    </contour>
  </outline>
</glyph>
<glyph name="uni1795" format="2">
  <advance width="602"/>
  <unicode hex="1795"/>
  <note>
uni1795
</note>
  <outline>
    <contour>
      <point x="522" y="410" type="line"/>
      <point x="371" y="410" type="line"/>
      <point x="371" y="370" type="line"/>
      <point x="302" y="388" type="line"/>
      <point x="232" y="369" type="line"/>
      <point x="232" y="568" type="line"/>
      <point x="164" y="615"/>
      <point x="146" y="644"/>
      <point x="146" y="651" type="curve" smooth="yes"/>
      <point x="146" y="656"/>
      <point x="148" y="663"/>
      <point x="156" y="668" type="curve"/>
      <point x="440" y="668" type="line" smooth="yes"/>
      <point x="500" y="668"/>
      <point x="522" y="704"/>
      <point x="522" y="760" type="curve" smooth="yes"/>
      <point x="522" y="811" type="line"/>
      <point x="372" y="811" type="line"/>
      <point x="372" y="804" type="line" smooth="yes"/>
      <point x="372" y="788"/>
      <point x="368" y="780"/>
      <point x="351" y="780" type="curve" smooth="yes"/>
      <point x="112" y="780" type="line"/>
      <point x="58" y="711"/>
      <point x="40" y="689"/>
      <point x="40" y="663" type="curve" smooth="yes"/>
      <point x="40" y="647"/>
      <point x="62" y="610"/>
      <point x="81" y="578" type="curve"/>
      <point x="81" y="244" type="line"/>
      <point x="208" y="244" type="line"/>
      <point x="302" y="280" type="line"/>
      <point x="396" y="244" type="line"/>
      <point x="522" y="244" type="line"/>
    </contour>
    <contour>
      <point x="522" y="402" type="line"/>
      <point x="522" y="567" type="line" smooth="yes"/>
      <point x="522" y="608"/>
      <point x="484" y="638"/>
      <point x="425" y="638" type="curve" smooth="yes"/>
      <point x="325" y="638"/>
      <point x="277" y="587"/>
      <point x="277" y="515" type="curve" smooth="yes"/>
      <point x="277" y="457"/>
      <point x="315" y="415"/>
      <point x="371" y="415" type="curve"/>
      <point x="371" y="402" type="line"/>
    </contour>
    <contour>
      <point x="371" y="490" type="line"/>
      <point x="361" y="490"/>
      <point x="350" y="499"/>
      <point x="350" y="520" type="curve" smooth="yes"/>
      <point x="350" y="539"/>
      <point x="361" y="549"/>
      <point x="371" y="549" type="curve"/>
    </contour>
  </outline>
</glyph>
<glyph name="uni1797" format="2">
  <advance width="605"/>
  <unicode hex="1797"/>
  <note>
uni1797
</note>
  <outline>
    <contour>
      <point x="104" y="668" type="line"/>
      <point x="545" y="668" type="line"/>
      <point x="545" y="780" type="line"/>
      <point x="104" y="780" type="line"/>
    </contour>
    <contour>
      <point x="168" y="236" type="curve" smooth="yes"/>
      <point x="238" y="236"/>
      <point x="282" y="271"/>
      <point x="282" y="360" type="curve" smooth="yes"/>
      <point x="282" y="419"/>
      <point x="262" y="438"/>
      <point x="262" y="470" type="curve" smooth="yes"/>
      <point x="262" y="503"/>
      <point x="290" y="521"/>
      <point x="330" y="521" type="curve" smooth="yes"/>
      <point x="373" y="521"/>
      <point x="395" y="497"/>
      <point x="395" y="441" type="curve" smooth="yes"/>
      <point x="395" y="244" type="line"/>
      <point x="545" y="244" type="line"/>
      <point x="545" y="460" type="line" smooth="yes"/>
      <point x="545" y="571"/>
      <point x="472" y="633"/>
      <point x="333" y="633" type="curve" smooth="yes"/>
      <point x="183" y="633"/>
      <point x="112" y="561"/>
      <point x="112" y="481" type="curve" smooth="yes"/>
      <point x="112" y="431"/>
      <point x="140" y="374"/>
      <point x="141" y="366" type="curve" smooth="yes"/>
      <point x="142" y="360"/>
      <point x="139" y="355"/>
      <point x="134" y="355" type="curve" smooth="yes"/>
      <point x="127" y="355"/>
      <point x="120" y="366"/>
      <point x="115" y="379" type="curve"/>
      <point x="44" y="341" type="line"/>
      <point x="69" y="268"/>
      <point x="101" y="236"/>
    </contour>
  </outline>
</glyph>
<glyph name="uni1799" format="2">
  <advance width="842"/>
  <unicode hex="1799"/>
  <note>
uni1799
</note>
  <outline>
    <contour>
      <point x="774" y="565" type="line"/>
      <point x="623" y="565" type="line"/>
      <point x="623" y="412" type="line" smooth="yes"/>
      <point x="623" y="381"/>
      <point x="605" y="356"/>
      <point x="566" y="356" type="curve" smooth="yes"/>
      <point x="527" y="356"/>
      <point x="510" y="381"/>
      <point x="510" y="412" type="curve" smooth="yes"/>
      <point x="510" y="565" type="line"/>
      <point x="359" y="565" type="line"/>
      <point x="359" y="412" type="line" smooth="yes"/>
      <point x="359" y="383"/>
      <point x="331" y="356"/>
      <point x="285" y="356" type="curve" smooth="yes"/>
      <point x="239" y="356"/>
      <point x="211" y="383"/>
      <point x="211" y="412" type="curve" smooth="yes"/>
      <point x="211" y="645" type="line" smooth="yes"/>
      <point x="211" y="660"/>
      <point x="225" y="668"/>
      <point x="253" y="668" type="curve"/>
      <point x="253" y="780" type="line"/>
      <point x="121" y="780" type="line" smooth="yes"/>
      <point x="82" y="780"/>
      <point x="60" y="763"/>
      <point x="60" y="730" type="curve" smooth="yes"/>
      <point x="60" y="402" type="line" smooth="yes"/>
      <point x="60" y="290"/>
      <point x="146" y="244"/>
      <point x="288" y="244" type="curve" smooth="yes"/>
      <point x="296" y="244" type="line" smooth="yes"/>
      <point x="359" y="244"/>
      <point x="407" y="263"/>
      <point x="433" y="292" type="curve"/>
      <point x="434" y="292" type="line"/>
      <point x="465" y="260"/>
      <point x="509" y="244"/>
      <point x="566" y="244" type="curve" smooth="yes"/>
      <point x="706" y="244"/>
      <point x="774" y="289"/>
      <point x="774" y="402" type="curve" smooth="yes"/>
    </contour>
    <contour>
      <point x="623" y="548" type="line"/>
      <point x="774" y="548" type="line"/>
      <point x="774" y="604" type="line"/>
      <point x="718" y="667" type="line"/>
      <point x="718" y="668" type="line"/>
      <point x="782" y="668" type="line"/>
      <point x="782" y="780" type="line"/>
      <point x="631" y="780" type="line"/>
      <point x="581" y="705"/>
      <point x="563" y="678"/>
      <point x="563" y="667" type="curve" smooth="yes"/>
      <point x="563" y="656"/>
      <point x="595" y="618"/>
      <point x="623" y="585" type="curve"/>
    </contour>
    <contour>
      <point x="359" y="548" type="line"/>
      <point x="510" y="548" type="line"/>
      <point x="510" y="604" type="line"/>
      <point x="458" y="667" type="line"/>
      <point x="458" y="668" type="line"/>
      <point x="517" y="668" type="line"/>
      <point x="517" y="780" type="line"/>
      <point x="377" y="780" type="line"/>
      <point x="342" y="726"/>
      <point x="324" y="699"/>
      <point x="324" y="685" type="curve" smooth="yes"/>
      <point x="324" y="676"/>
      <point x="326" y="673"/>
      <point x="359" y="620" type="curve"/>
    </contour>
  </outline>
</glyph>
<glyph name="uni179A" format="2">
  <advance width="347"/>
  <unicode hex="179A"/>
  <note>
uni179A
</note>
  <outline>
    <contour>
      <point x="138" y="548" type="line"/>
      <point x="289" y="548" type="line"/>
      <point x="289" y="596" type="line"/>
      <point x="233" y="667" type="line"/>
      <point x="233" y="668" type="line"/>
      <point x="297" y="668" type="line"/>
      <point x="297" y="780" type="line"/>
      <point x="137" y="780" type="line"/>
      <point x="87" y="706"/>
      <point x="67" y="676"/>
      <point x="67" y="661" type="curve" smooth="yes"/>
      <point x="67" y="647"/>
      <point x="90" y="621"/>
      <point x="138" y="567" type="curve"/>
    </contour>
    <contour>
      <point x="289" y="579" type="line"/>
      <point x="138" y="579" type="line"/>
      <point x="138" y="473" type="line"/>
      <point x="94" y="471"/>
      <point x="40" y="431"/>
      <point x="40" y="357" type="curve" smooth="yes"/>
      <point x="40" y="266"/>
      <point x="98" y="244"/>
      <point x="143" y="244" type="curve" smooth="yes"/>
      <point x="205" y="244" type="line" smooth="yes"/>
      <point x="272" y="244"/>
      <point x="289" y="286"/>
      <point x="289" y="353" type="curve" smooth="yes"/>
    </contour>
    <contour>
      <point x="138" y="321" type="line"/>
      <point x="129" y="321"/>
      <point x="112" y="324"/>
      <point x="112" y="359" type="curve" smooth="yes"/>
      <point x="112" y="384"/>
      <point x="129" y="395"/>
      <point x="138" y="395" type="curve"/>
    </contour>
  </outline>
</glyph>
<glyph name="uni179B" format="2">
  <advance width="814"/>
  <unicode hex="179B"/>
  <note>
uni179B
</note>
  <outline>
    <contour>
      <point x="746" y="572" type="line"/>
      <point x="595" y="572" type="line"/>
      <point x="595" y="412" type="line" smooth="yes"/>
      <point x="595" y="381"/>
      <point x="576" y="356"/>
      <point x="537" y="356" type="curve" smooth="yes"/>
      <point x="498" y="356"/>
      <point x="479" y="381"/>
      <point x="479" y="412" type="curve" smooth="yes"/>
      <point x="479" y="622" type="line" smooth="yes"/>
      <point x="479" y="727"/>
      <point x="409" y="780"/>
      <point x="270" y="780" type="curve" smooth="yes"/>
      <point x="130" y="780"/>
      <point x="60" y="727"/>
      <point x="60" y="622" type="curve" smooth="yes"/>
      <point x="60" y="495" type="line"/>
      <point x="211" y="495" type="line"/>
      <point x="211" y="612" type="line" smooth="yes"/>
      <point x="211" y="643"/>
      <point x="231" y="668"/>
      <point x="270" y="668" type="curve" smooth="yes"/>
      <point x="309" y="668"/>
      <point x="329" y="643"/>
      <point x="329" y="612" type="curve" smooth="yes"/>
      <point x="329" y="402" type="line" smooth="yes"/>
      <point x="329" y="297"/>
      <point x="398" y="244"/>
      <point x="537" y="244" type="curve" smooth="yes"/>
      <point x="674" y="244"/>
      <point x="746" y="297"/>
      <point x="746" y="402" type="curve" smooth="yes"/>
    </contour>
    <contour>
      <point x="60" y="503" type="line"/>
      <point x="60" y="314" type="line" smooth="yes"/>
      <point x="60" y="263"/>
      <point x="78" y="244"/>
      <point x="142" y="244" type="curve" smooth="yes"/>
      <point x="189" y="244" type="line" smooth="yes"/>
      <point x="267" y="244"/>
      <point x="316" y="296"/>
      <point x="316" y="369" type="curve" smooth="yes"/>
      <point x="316" y="454"/>
      <point x="277" y="485"/>
      <point x="211" y="485" type="curve"/>
      <point x="211" y="503" type="line" smooth="yes"/>
    </contour>
    <contour>
      <point x="211" y="324" type="curve"/>
      <point x="211" y="408" type="line"/>
      <point x="223" y="408"/>
      <point x="235" y="396"/>
      <point x="235" y="371" type="curve" smooth="yes"/>
      <point x="235" y="344"/>
      <point x="222" y="324"/>
    </contour>
    <contour>
      <point x="595" y="548" type="line"/>
      <point x="746" y="548" type="line"/>
      <point x="746" y="604" type="line"/>
      <point x="690" y="667" type="line"/>
      <point x="690" y="668" type="line"/>
      <point x="754" y="668" type="line"/>
      <point x="754" y="780" type="line"/>
      <point x="603" y="780" type="line"/>
      <point x="553" y="705"/>
      <point x="535" y="678"/>
      <point x="535" y="667" type="curve" smooth="yes"/>
      <point x="535" y="656"/>
      <point x="567" y="618"/>
      <point x="595" y="585" type="curve"/>
    </contour>
  </outline>
</glyph>
<glyph name="uni179C" format="2">
  <advance width="345"/>
  <unicode hex="179C"/>
  <note>
uni179C
</note>
  <outline>
    <contour>
      <point x="138" y="530" type="line"/>
      <point x="289" y="530" type="line"/>
      <point x="289" y="584" type="line"/>
      <point x="234" y="647" type="line"/>
      <point x="235" y="648" type="line"/>
      <point x="258" y="648" type="line" smooth="yes"/>
      <point x="294" y="648"/>
      <point x="321" y="679"/>
      <point x="321" y="717" type="curve" smooth="yes"/>
      <point x="321" y="798" type="line"/>
      <point x="171" y="798" type="line"/>
      <point x="171" y="784" type="line" smooth="yes"/>
      <point x="171" y="768"/>
      <point x="154" y="760"/>
      <point x="138" y="760" type="curve" smooth="yes"/>
      <point x="122" y="760" type="line"/>
      <point x="94" y="718"/>
      <point x="69" y="681"/>
      <point x="69" y="663" type="curve" smooth="yes"/>
      <point x="69" y="650"/>
      <point x="94" y="620"/>
      <point x="138" y="568" type="curve"/>
    </contour>
    <contour>
      <point x="289" y="579" type="line"/>
      <point x="138" y="579" type="line"/>
      <point x="138" y="473" type="line"/>
      <point x="94" y="471"/>
      <point x="40" y="431"/>
      <point x="40" y="357" type="curve" smooth="yes"/>
      <point x="40" y="266"/>
      <point x="98" y="244"/>
      <point x="143" y="244" type="curve" smooth="yes"/>
      <point x="205" y="244" type="line" smooth="yes"/>
      <point x="272" y="244"/>
      <point x="289" y="286"/>
      <point x="289" y="353" type="curve" smooth="yes"/>
    </contour>
    <contour>
      <point x="138" y="321" type="line"/>
      <point x="129" y="321"/>
      <point x="112" y="324"/>
      <point x="112" y="359" type="curve" smooth="yes"/>
      <point x="112" y="384"/>
      <point x="129" y="395"/>
      <point x="138" y="395" type="curve"/>
    </contour>
  </outline>
</glyph>
<glyph name="uni17A0" format="2">
  <advance width="824"/>
  <unicode hex="17A0"/>
  <note>
uni17A0
</note>
  <outline>
    <contour>
      <point x="232" y="572" type="line"/>
      <point x="81" y="572" type="line"/>
      <point x="81" y="402" type="line" smooth="yes"/>
      <point x="81" y="289"/>
      <point x="151" y="244"/>
      <point x="291" y="244" type="curve" smooth="yes"/>
      <point x="431" y="244"/>
      <point x="500" y="289"/>
      <point x="500" y="402" type="curve" smooth="yes"/>
      <point x="500" y="622" type="line" smooth="yes"/>
      <point x="500" y="653"/>
      <point x="519" y="668"/>
      <point x="558" y="668" type="curve" smooth="yes"/>
      <point x="598" y="668"/>
      <point x="616" y="653"/>
      <point x="616" y="622" type="curve" smooth="yes"/>
      <point x="616" y="244" type="line"/>
      <point x="764" y="244" type="line"/>
      <point x="764" y="622" type="line" smooth="yes"/>
      <point x="764" y="727"/>
      <point x="696" y="780"/>
      <point x="559" y="780" type="curve" smooth="yes"/>
      <point x="419" y="780"/>
      <point x="350" y="735"/>
      <point x="350" y="622" type="curve" smooth="yes"/>
      <point x="350" y="402" type="line" smooth="yes"/>
      <point x="350" y="371"/>
      <point x="330" y="356"/>
      <point x="291" y="356" type="curve" smooth="yes"/>
      <point x="252" y="356"/>
      <point x="232" y="371"/>
      <point x="232" y="402" type="curve" smooth="yes"/>
    </contour>
    <contour>
      <point x="81" y="548" type="line"/>
      <point x="232" y="548" type="line"/>
      <point x="232" y="604" type="line"/>
      <point x="180" y="667" type="line"/>
      <point x="180" y="668" type="line"/>
      <point x="239" y="668" type="line"/>
      <point x="239" y="780" type="line"/>
      <point x="99" y="780" type="line"/>
      <point x="64" y="726"/>
      <point x="46" y="699"/>
      <point x="46" y="685" type="curve" smooth="yes"/>
      <point x="46" y="676"/>
      <point x="48" y="673"/>
      <point x="81" y="620" type="curve"/>
    </contour>
  </outline>
</glyph>
<glyph name="uni17A1" format="2">
  <advance width="815"/>
  <unicode hex="17A1"/>
  <note>
uni17A1
</note>
  <outline>
    <contour>
      <point x="268" y="244" type="curve" smooth="yes"/>
      <point x="398" y="244"/>
      <point x="464" y="297"/>
      <point x="464" y="402" type="curve" smooth="yes"/>
      <point x="464" y="404" type="line"/>
      <point x="483" y="420"/>
      <point x="497" y="439"/>
      <point x="497" y="483" type="curve" smooth="yes"/>
      <point x="497" y="538"/>
      <point x="451" y="577"/>
      <point x="403" y="577" type="curve" smooth="yes"/>
      <point x="361" y="577"/>
      <point x="334" y="554"/>
      <point x="319" y="522" type="curve"/>
      <point x="231" y="558"/>
      <point x="201" y="580"/>
      <point x="201" y="619" type="curve" smooth="yes"/>
      <point x="201" y="651"/>
      <point x="229" y="668"/>
      <point x="270" y="668" type="curve" smooth="yes"/>
      <point x="309" y="668"/>
      <point x="341" y="657"/>
      <point x="341" y="632" type="curve" smooth="yes"/>
      <point x="341" y="608" type="line"/>
      <point x="491" y="608" type="line"/>
      <point x="491" y="632" type="line" smooth="yes"/>
      <point x="491" y="743"/>
      <point x="417" y="780"/>
      <point x="270" y="780" type="curve" smooth="yes"/>
      <point x="128" y="780"/>
      <point x="50" y="734"/>
      <point x="50" y="622" type="curve" smooth="yes"/>
      <point x="50" y="509"/>
      <point x="146" y="453"/>
      <point x="313" y="413" type="curve"/>
      <point x="313" y="402" type="line" smooth="yes"/>
      <point x="313" y="371"/>
      <point x="300" y="356"/>
      <point x="268" y="356" type="curve" smooth="yes"/>
      <point x="236" y="356"/>
      <point x="223" y="371"/>
      <point x="223" y="402" type="curve" smooth="yes"/>
      <point x="223" y="412" type="line"/>
      <point x="72" y="412" type="line"/>
      <point x="72" y="402" type="line" smooth="yes"/>
      <point x="72" y="297"/>
      <point x="137" y="244"/>
    </contour>
    <contour>
      <point x="747" y="566" type="line"/>
      <point x="596" y="566" type="line"/>
      <point x="596" y="131" type="line"/>
      <point x="531" y="173" type="line"/>
      <point x="467" y="131" type="line"/>
      <point x="467" y="139" type="line" smooth="yes"/>
      <point x="467" y="171"/>
      <point x="444" y="205"/>
      <point x="383" y="205" type="curve" smooth="yes"/>
      <point x="286" y="205" type="line"/>
      <point x="286" y="109" type="line"/>
      <point x="314" y="109"/>
      <point x="327" y="102"/>
      <point x="327" y="84" type="curve" smooth="yes"/>
      <point x="327" y="5" type="line"/>
      <point x="451" y="5" type="line"/>
      <point x="531" y="57" type="line"/>
      <point x="611" y="5" type="line"/>
      <point x="747" y="5" type="line"/>
    </contour>
    <contour>
      <point x="596" y="548" type="line"/>
      <point x="747" y="548" type="line"/>
      <point x="747" y="604" type="line"/>
      <point x="691" y="667" type="line"/>
      <point x="691" y="668" type="line"/>
      <point x="755" y="668" type="line"/>
      <point x="755" y="780" type="line"/>
      <point x="604" y="780" type="line"/>
      <point x="554" y="705"/>
      <point x="536" y="678"/>
      <point x="536" y="667" type="curve" smooth="yes"/>
      <point x="536" y="656"/>
      <point x="568" y="618"/>
      <point x="596" y="585" type="curve"/>
    </contour>
  </outline>
</glyph>
<glyph name="uni17A5" format="2">
  <advance width="598"/>
  <unicode hex="17A5"/>
  <note>
uni17A5
</note>
  <outline>
    <contour>
      <point x="101" y="622" type="curve"/>
      <point x="198" y="676" type="line"/>
      <point x="179" y="692"/>
      <point x="169" y="702"/>
      <point x="169" y="709" type="curve" smooth="yes"/>
      <point x="169" y="714"/>
      <point x="172" y="721"/>
      <point x="181" y="726" type="curve"/>
      <point x="418" y="726" type="line" smooth="yes"/>
      <point x="512" y="726"/>
      <point x="518" y="771"/>
      <point x="518" y="862" type="curve" smooth="yes"/>
      <point x="518" y="916" type="line"/>
      <point x="367" y="916" type="line"/>
      <point x="367" y="862" type="line" smooth="yes"/>
      <point x="367" y="846"/>
      <point x="363" y="838"/>
      <point x="350" y="838" type="curve" smooth="yes"/>
      <point x="128" y="838" type="line"/>
      <point x="64" y="769"/>
      <point x="42" y="745"/>
      <point x="42" y="720" type="curve" smooth="yes"/>
      <point x="42" y="702"/>
      <point x="53" y="685"/>
    </contour>
    <contour>
      <point x="73" y="477" type="line"/>
      <point x="224" y="477" type="line"/>
      <point x="224" y="488" type="line" smooth="yes"/>
      <point x="224" y="509"/>
      <point x="247" y="527"/>
      <point x="293" y="527" type="curve" smooth="yes"/>
      <point x="339" y="527"/>
      <point x="364" y="509"/>
      <point x="364" y="488" type="curve" smooth="yes"/>
      <point x="364" y="244" type="line"/>
      <point x="515" y="244" type="line"/>
      <point x="515" y="505" type="line" smooth="yes"/>
      <point x="515" y="580"/>
      <point x="441" y="638"/>
      <point x="293" y="638" type="curve" smooth="yes"/>
      <point x="146" y="638"/>
      <point x="73" y="580"/>
      <point x="73" y="505" type="curve" smooth="yes"/>
    </contour>
    <contour>
      <point x="73" y="503" type="line"/>
      <point x="73" y="314" type="line" smooth="yes"/>
      <point x="73" y="263"/>
      <point x="91" y="244"/>
      <point x="155" y="244" type="curve" smooth="yes"/>
      <point x="202" y="244" type="line" smooth="yes"/>
      <point x="280" y="244"/>
      <point x="329" y="296"/>
      <point x="329" y="369" type="curve" smooth="yes"/>
      <point x="329" y="454"/>
      <point x="290" y="485"/>
      <point x="224" y="485" type="curve"/>
      <point x="224" y="503" type="line" smooth="yes"/>
    </contour>
    <contour>
      <point x="224" y="324" type="curve"/>
      <point x="224" y="408" type="line"/>
      <point x="236" y="408"/>
      <point x="248" y="396"/>
      <point x="248" y="371" type="curve" smooth="yes"/>
      <point x="248" y="344"/>
      <point x="235" y="324"/>
    </contour>
  </outline>
</glyph>
<glyph name="uni17A6" format="2">
  <advance width="782"/>
  <unicode hex="17A6"/>
  <note>
uni17A6
</note>
  <outline>
    <contour>
      <point x="722" y="735" type="line"/>
      <point x="571" y="735" type="line"/>
      <point x="571" y="126" type="line" smooth="yes"/>
      <point x="571" y="102"/>
      <point x="557" y="89"/>
      <point x="518" y="89" type="curve" smooth="yes"/>
      <point x="479" y="89"/>
      <point x="458" y="99"/>
      <point x="458" y="126" type="curve" smooth="yes"/>
      <point x="458" y="185"/>
      <point x="369" y="220"/>
      <point x="258" y="220" type="curve" smooth="yes"/>
      <point x="169" y="220"/>
      <point x="60" y="186"/>
      <point x="60" y="106" type="curve" smooth="yes"/>
      <point x="60" y="71" type="line" smooth="yes"/>
      <point x="60" y="12"/>
      <point x="90" y="0"/>
      <point x="150" y="0" type="curve" smooth="yes"/>
      <point x="243" y="0" type="line"/>
      <point x="243" y="84" type="line"/>
      <point x="227" y="84"/>
      <point x="200" y="88"/>
      <point x="200" y="102" type="curve" smooth="yes"/>
      <point x="200" y="116" type="line" smooth="yes"/>
      <point x="200" y="138"/>
      <point x="223" y="149"/>
      <point x="258" y="149" type="curve" smooth="yes"/>
      <point x="298" y="149"/>
      <point x="318" y="138"/>
      <point x="318" y="109" type="curve" smooth="yes"/>
      <point x="318" y="35"/>
      <point x="388" y="0"/>
      <point x="528" y="0" type="curve" smooth="yes"/>
      <point x="658" y="0"/>
      <point x="722" y="39"/>
      <point x="722" y="117" type="curve" smooth="yes"/>
    </contour>
    <contour>
      <point x="42" y="498" type="line"/>
      <point x="193" y="498" type="line"/>
      <point x="193" y="620" type="line" smooth="yes"/>
      <point x="193" y="651"/>
      <point x="216" y="667"/>
      <point x="262" y="667" type="curve" smooth="yes"/>
      <point x="308" y="667"/>
      <point x="333" y="651"/>
      <point x="333" y="620" type="curve" smooth="yes"/>
      <point x="333" y="244" type="line"/>
      <point x="483" y="244" type="line"/>
      <point x="483" y="620" type="line" smooth="yes"/>
      <point x="483" y="725"/>
      <point x="410" y="778"/>
      <point x="262" y="778" type="curve" smooth="yes"/>
      <point x="115" y="778"/>
      <point x="42" y="725"/>
      <point x="42" y="620" type="curve" smooth="yes"/>
    </contour>
    <contour>
      <point x="42" y="503" type="line"/>
      <point x="42" y="314" type="line" smooth="yes"/>
      <point x="42" y="263"/>
      <point x="60" y="244"/>
      <point x="124" y="244" type="curve" smooth="yes"/>
      <point x="171" y="244" type="line" smooth="yes"/>
      <point x="249" y="244"/>
      <point x="298" y="296"/>
      <point x="298" y="369" type="curve" smooth="yes"/>
      <point x="298" y="454"/>
      <point x="259" y="485"/>
      <point x="193" y="485" type="curve"/>
      <point x="193" y="503" type="line" smooth="yes"/>
    </contour>
    <contour>
      <point x="193" y="324" type="curve"/>
      <point x="193" y="408" type="line"/>
      <point x="205" y="408"/>
      <point x="217" y="396"/>
      <point x="217" y="371" type="curve" smooth="yes"/>
      <point x="217" y="344"/>
      <point x="204" y="324"/>
    </contour>
    <contour>
      <point x="571" y="714" type="line"/>
      <point x="722" y="714" type="line"/>
      <point x="722" y="826" type="line" smooth="yes"/>
      <point x="722" y="943"/>
      <point x="672" y="1032"/>
      <point x="558" y="1032" type="curve" smooth="yes"/>
      <point x="519" y="1032"/>
      <point x="499" y="1017"/>
      <point x="483" y="1005" type="curve"/>
      <point x="483" y="1048" type="line"/>
      <point x="332" y="1048" type="line"/>
      <point x="332" y="879" type="line"/>
      <point x="483" y="879" type="line"/>
      <point x="489" y="892"/>
      <point x="500" y="899"/>
      <point x="520" y="899" type="curve" smooth="yes"/>
      <point x="550" y="899"/>
      <point x="571" y="877"/>
      <point x="571" y="814" type="curve" smooth="yes"/>
    </contour>
  </outline>
</glyph>
<glyph name="uni17A7" format="2">
  <advance width="561"/>
  <unicode hex="17A7"/>
  <note>
uni17A7
</note>
  <outline>
    <contour>
      <point x="351" y="240" type="line"/>
      <point x="501" y="240" type="line"/>
      <point x="501" y="438" type="line"/>
      <point x="351" y="438" type="line"/>
      <point x="351" y="433" type="line" smooth="yes"/>
      <point x="351" y="394"/>
      <point x="287" y="356"/>
      <point x="255" y="356" type="curve" smooth="yes"/>
      <point x="226" y="356"/>
      <point x="211" y="380"/>
      <point x="211" y="414" type="curve" smooth="yes"/>
      <point x="211" y="419" type="line"/>
      <point x="246" y="428" type="line" smooth="yes"/>
      <point x="403" y="468"/>
      <point x="501" y="536"/>
      <point x="501" y="632" type="curve" smooth="yes"/>
      <point x="501" y="747"/>
      <point x="423" y="790"/>
      <point x="280" y="790" type="curve" smooth="yes"/>
      <point x="136" y="790"/>
      <point x="60" y="744"/>
      <point x="60" y="656" type="curve" smooth="yes"/>
      <point x="60" y="589"/>
      <point x="102" y="553"/>
      <point x="178" y="553" type="curve" smooth="yes"/>
      <point x="238" y="553" type="line"/>
      <point x="238" y="628" type="line"/>
      <point x="218" y="628"/>
      <point x="213" y="637"/>
      <point x="213" y="649" type="curve" smooth="yes"/>
      <point x="213" y="670"/>
      <point x="245" y="678"/>
      <point x="285" y="678" type="curve" smooth="yes"/>
      <point x="326" y="678"/>
      <point x="351" y="662"/>
      <point x="351" y="633" type="curve" smooth="yes"/>
      <point x="351" y="589"/>
      <point x="315" y="552"/>
      <point x="242" y="534" type="curve" smooth="yes"/>
      <point x="60" y="490" type="line"/>
      <point x="60" y="402" type="line" smooth="yes"/>
      <point x="60" y="290"/>
      <point x="122" y="244"/>
      <point x="205" y="244" type="curve" smooth="yes"/>
      <point x="268" y="244"/>
      <point x="322" y="274"/>
      <point x="350" y="299" type="curve"/>
      <point x="351" y="299" type="line"/>
    </contour>
  </outline>
</glyph>
<glyph name="uni17A8" format="2">
  <advance width="567"/>
  <unicode hex="17A8"/>
  <note>
uni17A8
</note>
  <outline>
    <contour>
      <point x="60" y="826" type="line"/>
      <point x="485" y="826" type="line"/>
      <point x="485" y="936" type="line"/>
      <point x="60" y="936" type="line"/>
    </contour>
    <contour>
      <point x="357" y="240" type="line"/>
      <point x="507" y="240" type="line"/>
      <point x="507" y="438" type="line"/>
      <point x="357" y="438" type="line"/>
      <point x="357" y="433" type="line" smooth="yes"/>
      <point x="357" y="394"/>
      <point x="293" y="356"/>
      <point x="261" y="356" type="curve" smooth="yes"/>
      <point x="232" y="356"/>
      <point x="217" y="380"/>
      <point x="217" y="414" type="curve" smooth="yes"/>
      <point x="217" y="419" type="line"/>
      <point x="252" y="428" type="line" smooth="yes"/>
      <point x="409" y="468"/>
      <point x="507" y="536"/>
      <point x="507" y="632" type="curve" smooth="yes"/>
      <point x="507" y="747"/>
      <point x="429" y="790"/>
      <point x="286" y="790" type="curve" smooth="yes"/>
      <point x="142" y="790"/>
      <point x="66" y="744"/>
      <point x="66" y="656" type="curve" smooth="yes"/>
      <point x="66" y="589"/>
      <point x="108" y="553"/>
      <point x="184" y="553" type="curve" smooth="yes"/>
      <point x="244" y="553" type="line"/>
      <point x="244" y="628" type="line"/>
      <point x="224" y="628"/>
      <point x="219" y="637"/>
      <point x="219" y="649" type="curve" smooth="yes"/>
      <point x="219" y="670"/>
      <point x="251" y="678"/>
      <point x="291" y="678" type="curve" smooth="yes"/>
      <point x="332" y="678"/>
      <point x="357" y="662"/>
      <point x="357" y="633" type="curve" smooth="yes"/>
      <point x="357" y="589"/>
      <point x="321" y="552"/>
      <point x="248" y="534" type="curve" smooth="yes"/>
      <point x="66" y="490" type="line"/>
      <point x="66" y="402" type="line" smooth="yes"/>
      <point x="66" y="290"/>
      <point x="128" y="244"/>
      <point x="211" y="244" type="curve" smooth="yes"/>
      <point x="274" y="244"/>
      <point x="328" y="274"/>
      <point x="356" y="299" type="curve"/>
      <point x="357" y="299" type="line"/>
    </contour>
  </outline>
</glyph>
<glyph name="uni17AA" format="2">
  <advance width="596"/>
  <unicode hex="17AA"/>
  <note>
uni17AA
</note>
  <outline>
    <contour>
      <point x="101" y="765" type="curve"/>
      <point x="198" y="819" type="line"/>
      <point x="179" y="835"/>
      <point x="169" y="845"/>
      <point x="169" y="852" type="curve" smooth="yes"/>
      <point x="169" y="857"/>
      <point x="172" y="864"/>
      <point x="181" y="869" type="curve"/>
      <point x="418" y="869" type="line" smooth="yes"/>
      <point x="512" y="869"/>
      <point x="518" y="914"/>
      <point x="518" y="1005" type="curve" smooth="yes"/>
      <point x="518" y="1056" type="line"/>
      <point x="367" y="1056" type="line"/>
      <point x="367" y="1005" type="line" smooth="yes"/>
      <point x="367" y="989"/>
      <point x="363" y="981"/>
      <point x="350" y="981" type="curve" smooth="yes"/>
      <point x="128" y="981" type="line"/>
      <point x="64" y="912"/>
      <point x="42" y="888"/>
      <point x="42" y="863" type="curve" smooth="yes"/>
      <point x="42" y="845"/>
      <point x="53" y="828"/>
    </contour>
    <contour>
      <point x="386" y="240" type="line"/>
      <point x="536" y="240" type="line"/>
      <point x="536" y="438" type="line"/>
      <point x="386" y="438" type="line"/>
      <point x="386" y="433" type="line" smooth="yes"/>
      <point x="386" y="394"/>
      <point x="322" y="356"/>
      <point x="290" y="356" type="curve" smooth="yes"/>
      <point x="261" y="356"/>
      <point x="246" y="380"/>
      <point x="246" y="414" type="curve" smooth="yes"/>
      <point x="246" y="419" type="line"/>
      <point x="281" y="428" type="line" smooth="yes"/>
      <point x="438" y="468"/>
      <point x="536" y="536"/>
      <point x="536" y="632" type="curve" smooth="yes"/>
      <point x="536" y="747"/>
      <point x="458" y="790"/>
      <point x="315" y="790" type="curve" smooth="yes"/>
      <point x="171" y="790"/>
      <point x="95" y="744"/>
      <point x="95" y="656" type="curve" smooth="yes"/>
      <point x="95" y="589"/>
      <point x="137" y="553"/>
      <point x="213" y="553" type="curve" smooth="yes"/>
      <point x="273" y="553" type="line"/>
      <point x="273" y="628" type="line"/>
      <point x="253" y="628"/>
      <point x="248" y="637"/>
      <point x="248" y="649" type="curve" smooth="yes"/>
      <point x="248" y="670"/>
      <point x="280" y="678"/>
      <point x="320" y="678" type="curve" smooth="yes"/>
      <point x="361" y="678"/>
      <point x="386" y="662"/>
      <point x="386" y="633" type="curve" smooth="yes"/>
      <point x="386" y="589"/>
      <point x="350" y="552"/>
      <point x="277" y="534" type="curve" smooth="yes"/>
      <point x="95" y="490" type="line"/>
      <point x="95" y="402" type="line" smooth="yes"/>
      <point x="95" y="290"/>
      <point x="157" y="244"/>
      <point x="240" y="244" type="curve" smooth="yes"/>
      <point x="303" y="244"/>
      <point x="357" y="274"/>
      <point x="385" y="299" type="curve"/>
      <point x="386" y="299" type="line"/>
    </contour>
  </outline>
</glyph>
<glyph name="uni17AC" format="2">
  <advance width="632"/>
  <unicode hex="17AC"/>
  <note>
uni17AC
</note>
  <outline>
    <contour>
      <point x="232" y="573" type="line"/>
      <point x="81" y="573" type="line"/>
      <point x="81" y="402" type="line" smooth="yes"/>
      <point x="81" y="297"/>
      <point x="154" y="244"/>
      <point x="301" y="244" type="curve" smooth="yes"/>
      <point x="449" y="244"/>
      <point x="523" y="297"/>
      <point x="523" y="402" type="curve" smooth="yes"/>
      <point x="523" y="570" type="line"/>
      <point x="372" y="570" type="line"/>
      <point x="372" y="412" type="line" smooth="yes"/>
      <point x="372" y="381"/>
      <point x="349" y="356"/>
      <point x="301" y="356" type="curve" smooth="yes"/>
      <point x="255" y="356"/>
      <point x="232" y="381"/>
      <point x="232" y="412" type="curve" smooth="yes"/>
    </contour>
    <contour>
      <point x="372" y="548" type="line"/>
      <point x="523" y="548" type="line"/>
      <point x="523" y="604" type="line"/>
      <point x="467" y="667" type="line"/>
      <point x="467" y="668" type="line"/>
      <point x="531" y="668" type="line"/>
      <point x="531" y="780" type="line"/>
      <point x="380" y="780" type="line"/>
      <point x="330" y="705"/>
      <point x="312" y="678"/>
      <point x="312" y="667" type="curve" smooth="yes"/>
      <point x="312" y="656"/>
      <point x="344" y="618"/>
      <point x="372" y="585" type="curve"/>
    </contour>
    <contour>
      <point x="81" y="548" type="line"/>
      <point x="232" y="548" type="line"/>
      <point x="232" y="604" type="line"/>
      <point x="180" y="667" type="line"/>
      <point x="180" y="668" type="line"/>
      <point x="239" y="668" type="line"/>
      <point x="239" y="780" type="line"/>
      <point x="99" y="780" type="line"/>
      <point x="64" y="726"/>
      <point x="46" y="699"/>
      <point x="46" y="685" type="curve" smooth="yes"/>
      <point x="46" y="676"/>
      <point x="48" y="673"/>
      <point x="81" y="620" type="curve"/>
    </contour>
    <contour>
      <point x="464" y="57" type="line"/>
      <point x="486" y="27"/>
      <point x="514" y="0"/>
      <point x="564" y="0" type="curve" smooth="yes"/>
      <point x="587" y="0" type="line"/>
      <point x="587" y="100" type="line"/>
      <point x="568" y="100" type="line" smooth="yes"/>
      <point x="532" y="100"/>
      <point x="519" y="112"/>
      <point x="508" y="126" type="curve"/>
    </contour>
    <contour>
      <point x="80" y="1" type="line"/>
      <point x="239" y="1" type="line" smooth="yes"/>
      <point x="427" y="2"/>
      <point x="521" y="52"/>
      <point x="521" y="195" type="curve" smooth="yes"/>
      <point x="521" y="220" type="line"/>
      <point x="324" y="220" type="line"/>
      <point x="324" y="128" type="line"/>
      <point x="371" y="128" type="line"/>
      <point x="367" y="111"/>
      <point x="327" y="102"/>
      <point x="239" y="102" type="curve" smooth="yes"/>
      <point x="80" y="102" type="line"/>
    </contour>
  </outline>
</glyph>
<glyph name="uni17AD" format="2">
  <advance width="562"/>
  <unicode hex="17AD"/>
  <note>
uni17AD
</note>
  <outline>
    <contour>
      <point x="60" y="495" type="line"/>
      <point x="211" y="495" type="line"/>
      <point x="211" y="645" type="line" smooth="yes"/>
      <point x="211" y="656"/>
      <point x="215" y="662"/>
      <point x="222" y="662" type="curve" smooth="yes"/>
      <point x="238" y="662"/>
      <point x="255" y="601"/>
      <point x="280" y="601" type="curve" smooth="yes"/>
      <point x="306" y="601"/>
      <point x="322" y="662"/>
      <point x="340" y="662" type="curve" smooth="yes"/>
      <point x="346" y="662"/>
      <point x="351" y="656"/>
      <point x="351" y="645" type="curve" smooth="yes"/>
      <point x="351" y="244" type="line"/>
      <point x="502" y="244" type="line"/>
      <point x="502" y="645" type="line" smooth="yes"/>
      <point x="502" y="714"/>
      <point x="466" y="780"/>
      <point x="387" y="780" type="curve" smooth="yes"/>
      <point x="347" y="780"/>
      <point x="313" y="759"/>
      <point x="283" y="719" type="curve"/>
      <point x="280" y="719" type="line"/>
      <point x="250" y="760"/>
      <point x="215" y="780"/>
      <point x="176" y="780" type="curve" smooth="yes"/>
      <point x="90" y="780"/>
      <point x="60" y="715"/>
      <point x="60" y="645" type="curve" smooth="yes"/>
    </contour>
    <contour>
      <point x="60" y="503" type="line"/>
      <point x="60" y="314" type="line" smooth="yes"/>
      <point x="60" y="263"/>
      <point x="78" y="244"/>
      <point x="142" y="244" type="curve" smooth="yes"/>
      <point x="189" y="244" type="line" smooth="yes"/>
      <point x="267" y="244"/>
      <point x="316" y="296"/>
      <point x="316" y="369" type="curve" smooth="yes"/>
      <point x="316" y="454"/>
      <point x="277" y="485"/>
      <point x="211" y="485" type="curve"/>
      <point x="211" y="503" type="line" smooth="yes"/>
    </contour>
    <contour>
      <point x="211" y="324" type="curve"/>
      <point x="211" y="408" type="line"/>
      <point x="223" y="408"/>
      <point x="235" y="396"/>
      <point x="235" y="371" type="curve" smooth="yes"/>
      <point x="235" y="344"/>
      <point x="222" y="324"/>
    </contour>
    <contour>
      <point x="61" y="1" type="line"/>
      <point x="220" y="1" type="line" smooth="yes"/>
      <point x="408" y="2"/>
      <point x="502" y="52"/>
      <point x="502" y="195" type="curve" smooth="yes"/>
      <point x="502" y="220" type="line"/>
      <point x="305" y="220" type="line"/>
      <point x="305" y="128" type="line"/>
      <point x="352" y="128" type="line"/>
      <point x="348" y="111"/>
      <point x="308" y="102"/>
      <point x="220" y="102" type="curve" smooth="yes"/>
      <point x="61" y="102" type="line"/>
    </contour>
  </outline>
</glyph>
<glyph name="uni17AF" format="2">
  <advance width="583"/>
  <unicode hex="17AF"/>
  <note>
uni17AF
</note>
  <outline>
    <contour>
      <point x="81" y="244" type="line"/>
      <point x="208" y="244" type="line"/>
      <point x="302" y="320" type="line"/>
      <point x="396" y="244" type="line"/>
      <point x="523" y="244" type="line"/>
      <point x="523" y="632" type="line" smooth="yes"/>
      <point x="523" y="731"/>
      <point x="471" y="780"/>
      <point x="368" y="780" type="curve" smooth="yes"/>
      <point x="288" y="780" type="line" smooth="yes"/>
      <point x="236" y="780"/>
      <point x="232" y="802"/>
      <point x="232" y="837" type="curve" smooth="yes"/>
      <point x="232" y="936" type="line"/>
      <point x="81" y="936" type="line"/>
      <point x="81" y="837" type="line" smooth="yes"/>
      <point x="81" y="713"/>
      <point x="138" y="668"/>
      <point x="253" y="668" type="curve" smooth="yes"/>
      <point x="330" y="668" type="line" smooth="yes"/>
      <point x="358" y="668"/>
      <point x="372" y="656"/>
      <point x="372" y="632" type="curve" smooth="yes"/>
      <point x="372" y="409" type="line"/>
      <point x="302" y="467" type="line"/>
      <point x="232" y="408" type="line"/>
      <point x="232" y="559" type="line" smooth="yes"/>
      <point x="232" y="606"/>
      <point x="199" y="631"/>
      <point x="138" y="631" type="curve" smooth="yes"/>
      <point x="40" y="631" type="line"/>
      <point x="40" y="519" type="line"/>
      <point x="61" y="519"/>
      <point x="81" y="518"/>
      <point x="81" y="499" type="curve" smooth="yes"/>
    </contour>
  </outline>
</glyph>
<glyph name="uni17B0" format="2">
  <advance width="562"/>
  <unicode hex="17B0"/>
  <note>
uni17B0
</note>
  <outline>
    <contour>
      <point x="60" y="495" type="line"/>
      <point x="211" y="495" type="line"/>
      <point x="211" y="645" type="line" smooth="yes"/>
      <point x="211" y="656"/>
      <point x="215" y="662"/>
      <point x="222" y="662" type="curve" smooth="yes"/>
      <point x="238" y="662"/>
      <point x="255" y="601"/>
      <point x="280" y="601" type="curve" smooth="yes"/>
      <point x="306" y="601"/>
      <point x="322" y="662"/>
      <point x="340" y="662" type="curve" smooth="yes"/>
      <point x="346" y="662"/>
      <point x="351" y="656"/>
      <point x="351" y="645" type="curve" smooth="yes"/>
      <point x="351" y="244" type="line"/>
      <point x="502" y="244" type="line"/>
      <point x="502" y="645" type="line" smooth="yes"/>
      <point x="502" y="714"/>
      <point x="466" y="780"/>
      <point x="387" y="780" type="curve" smooth="yes"/>
      <point x="347" y="780"/>
      <point x="313" y="759"/>
      <point x="283" y="719" type="curve"/>
      <point x="280" y="719" type="line"/>
      <point x="250" y="760"/>
      <point x="215" y="780"/>
      <point x="176" y="780" type="curve" smooth="yes"/>
      <point x="90" y="780"/>
      <point x="60" y="715"/>
      <point x="60" y="645" type="curve" smooth="yes"/>
    </contour>
    <contour>
      <point x="60" y="503" type="line"/>
      <point x="60" y="314" type="line" smooth="yes"/>
      <point x="60" y="263"/>
      <point x="78" y="244"/>
      <point x="142" y="244" type="curve" smooth="yes"/>
      <point x="189" y="244" type="line" smooth="yes"/>
      <point x="267" y="244"/>
      <point x="316" y="296"/>
      <point x="316" y="369" type="curve" smooth="yes"/>
      <point x="316" y="454"/>
      <point x="277" y="485"/>
      <point x="211" y="485" type="curve"/>
      <point x="211" y="503" type="line" smooth="yes"/>
    </contour>
    <contour>
      <point x="211" y="324" type="curve"/>
      <point x="211" y="408" type="line"/>
      <point x="223" y="408"/>
      <point x="235" y="396"/>
      <point x="235" y="371" type="curve" smooth="yes"/>
      <point x="235" y="344"/>
      <point x="222" y="324"/>
    </contour>
    <contour>
      <point x="220" y="37" type="curve" smooth="yes"/>
      <point x="281" y="37"/>
      <point x="312" y="61"/>
      <point x="329" y="87" type="curve"/>
      <point x="338" y="79"/>
      <point x="353" y="70"/>
      <point x="387" y="70" type="curve" smooth="yes"/>
      <point x="430" y="70"/>
      <point x="502" y="96"/>
      <point x="502" y="172" type="curve" smooth="yes"/>
      <point x="502" y="258" type="line"/>
      <point x="371" y="258" type="line"/>
      <point x="360" y="237"/>
      <point x="223" y="206"/>
      <point x="104" y="184" type="curve"/>
      <point x="104" y="156" type="line" smooth="yes"/>
      <point x="104" y="71"/>
      <point x="151" y="37"/>
    </contour>
    <contour>
      <point x="230" y="101" type="curve" smooth="yes"/>
      <point x="221" y="101"/>
      <point x="209" y="103"/>
      <point x="209" y="116" type="curve" smooth="yes"/>
      <point x="209" y="128" type="line"/>
      <point x="262" y="143" type="line"/>
      <point x="262" y="134" type="line" smooth="yes"/>
      <point x="262" y="118"/>
      <point x="250" y="101"/>
    </contour>
    <contour>
      <point x="392" y="164" type="line" smooth="yes"/>
      <point x="392" y="145"/>
      <point x="372" y="137"/>
      <point x="355" y="137" type="curve" smooth="yes"/>
      <point x="341" y="137"/>
      <point x="329" y="144"/>
      <point x="329" y="151" type="curve" smooth="yes"/>
      <point x="329" y="161" type="line"/>
      <point x="392" y="178" type="line"/>
    </contour>
  </outline>
</glyph>
<glyph name="uni17B1" format="2">
  <advance width="572"/>
  <unicode hex="17B1"/>
  <note>
uni17B1
</note>
  <outline>
    <contour>
      <point x="77" y="805" type="curve"/>
      <point x="174" y="859" type="line"/>
      <point x="155" y="875"/>
      <point x="145" y="885"/>
      <point x="145" y="892" type="curve" smooth="yes"/>
      <point x="145" y="897"/>
      <point x="148" y="904"/>
      <point x="157" y="909" type="curve"/>
      <point x="316" y="909" type="line" smooth="yes"/>
      <point x="353" y="909"/>
      <point x="426" y="901"/>
      <point x="421" y="830" type="curve"/>
      <point x="540" y="864" type="line"/>
      <point x="524" y="984"/>
      <point x="442" y="1021"/>
      <point x="361" y="1021" type="curve" smooth="yes"/>
      <point x="104" y="1021" type="line"/>
      <point x="40" y="952"/>
      <point x="18" y="928"/>
      <point x="18" y="903" type="curve" smooth="yes"/>
      <point x="18" y="885"/>
      <point x="29" y="868"/>
    </contour>
    <contour>
      <point x="363" y="240" type="line"/>
      <point x="513" y="240" type="line"/>
      <point x="513" y="438" type="line"/>
      <point x="363" y="438" type="line"/>
      <point x="363" y="433" type="line" smooth="yes"/>
      <point x="363" y="394"/>
      <point x="299" y="356"/>
      <point x="267" y="356" type="curve" smooth="yes"/>
      <point x="238" y="356"/>
      <point x="223" y="380"/>
      <point x="223" y="414" type="curve" smooth="yes"/>
      <point x="223" y="419" type="line"/>
      <point x="258" y="428" type="line" smooth="yes"/>
      <point x="415" y="468"/>
      <point x="513" y="536"/>
      <point x="513" y="632" type="curve" smooth="yes"/>
      <point x="513" y="747"/>
      <point x="435" y="790"/>
      <point x="292" y="790" type="curve" smooth="yes"/>
      <point x="148" y="790"/>
      <point x="72" y="744"/>
      <point x="72" y="656" type="curve" smooth="yes"/>
      <point x="72" y="589"/>
      <point x="114" y="553"/>
      <point x="190" y="553" type="curve" smooth="yes"/>
      <point x="250" y="553" type="line"/>
      <point x="250" y="628" type="line"/>
      <point x="230" y="628"/>
      <point x="225" y="637"/>
      <point x="225" y="649" type="curve" smooth="yes"/>
      <point x="225" y="670"/>
      <point x="257" y="678"/>
      <point x="297" y="678" type="curve" smooth="yes"/>
      <point x="338" y="678"/>
      <point x="363" y="662"/>
      <point x="363" y="633" type="curve" smooth="yes"/>
      <point x="363" y="589"/>
      <point x="327" y="552"/>
      <point x="254" y="534" type="curve" smooth="yes"/>
      <point x="72" y="490" type="line"/>
      <point x="72" y="402" type="line" smooth="yes"/>
      <point x="72" y="290"/>
      <point x="134" y="244"/>
      <point x="217" y="244" type="curve" smooth="yes"/>
      <point x="280" y="244"/>
      <point x="334" y="274"/>
      <point x="362" y="299" type="curve"/>
      <point x="363" y="299" type="line"/>
    </contour>
  </outline>
</glyph>
<glyph name="uni17B2" format="2">
  <advance width="521"/>
  <unicode hex="17B2"/>
  <note>
uni17B2
</note>
  <outline>
    <contour>
      <point x="261" y="244" type="curve" smooth="yes"/>
      <point x="404" y="244"/>
      <point x="479" y="290"/>
      <point x="479" y="397" type="curve" smooth="yes"/>
      <point x="479" y="439"/>
      <point x="459" y="474"/>
      <point x="432" y="494" type="curve"/>
      <point x="460" y="529"/>
      <point x="465" y="539"/>
      <point x="465" y="556" type="curve" smooth="yes"/>
      <point x="465" y="568"/>
      <point x="463" y="571"/>
      <point x="413" y="649" type="curve"/>
      <point x="250" y="649" type="line"/>
      <point x="250" y="537" type="line"/>
      <point x="310" y="537" type="line"/>
      <point x="250" y="477" type="line"/>
      <point x="309" y="408" type="line"/>
      <point x="329" y="431" type="line"/>
      <point x="334" y="423"/>
      <point x="335" y="418"/>
      <point x="335" y="412" type="curve" smooth="yes"/>
      <point x="335" y="384"/>
      <point x="313" y="358"/>
      <point x="261" y="358" type="curve" smooth="yes"/>
      <point x="219" y="358"/>
      <point x="192" y="381"/>
      <point x="192" y="404" type="curve" smooth="yes"/>
      <point x="192" y="672" type="line" smooth="yes"/>
      <point x="192" y="703"/>
      <point x="222" y="718"/>
      <point x="273" y="718" type="curve" smooth="yes"/>
      <point x="325" y="718"/>
      <point x="363" y="703"/>
      <point x="394" y="679" type="curve"/>
      <point x="424" y="782" type="line"/>
      <point x="386" y="812"/>
      <point x="329" y="830"/>
      <point x="251" y="830" type="curve" smooth="yes"/>
      <point x="111" y="830"/>
      <point x="41" y="785"/>
      <point x="41" y="672" type="curve" smooth="yes"/>
      <point x="41" y="402" type="line" smooth="yes"/>
      <point x="41" y="290"/>
      <point x="119" y="244"/>
    </contour>
  </outline>
</glyph>
<glyph name="uni17B3" format="2">
  <advance width="537"/>
  <unicode hex="17B3"/>
  <note>
uni17B3
</note>
  <outline>
    <contour>
      <point x="357" y="1056" type="curve"/>
      <point x="238" y="1056" type="line"/>
      <point x="237" y="1051"/>
      <point x="237" y="1045"/>
      <point x="237" y="1040" type="curve" smooth="yes"/>
      <point x="239" y="1022"/>
      <point x="248" y="1003"/>
      <point x="262" y="981" type="curve"/>
      <point x="86" y="981" type="line"/>
      <point x="22" y="912"/>
      <point x="0" y="888"/>
      <point x="0" y="863" type="curve" smooth="yes"/>
      <point x="0" y="845"/>
      <point x="11" y="828"/>
      <point x="59" y="765" type="curve"/>
      <point x="156" y="819" type="line"/>
      <point x="137" y="835"/>
      <point x="127" y="845"/>
      <point x="127" y="852" type="curve" smooth="yes"/>
      <point x="127" y="857"/>
      <point x="130" y="864"/>
      <point x="139" y="869" type="curve"/>
      <point x="358" y="869" type="line"/>
      <point x="436" y="777" type="line"/>
      <point x="497" y="814" type="line"/>
      <point x="480" y="918"/>
      <point x="452" y="964"/>
      <point x="392" y="977" type="curve"/>
      <point x="362" y="1017"/>
      <point x="357" y="1031"/>
      <point x="357" y="1053" type="curve" smooth="yes"/>
      <point x="357" y="1054"/>
      <point x="357" y="1055"/>
    </contour>
    <contour>
      <point x="340" y="240" type="line"/>
      <point x="490" y="240" type="line"/>
      <point x="490" y="438" type="line"/>
      <point x="340" y="438" type="line"/>
      <point x="340" y="433" type="line" smooth="yes"/>
      <point x="340" y="394"/>
      <point x="276" y="356"/>
      <point x="244" y="356" type="curve" smooth="yes"/>
      <point x="215" y="356"/>
      <point x="200" y="380"/>
      <point x="200" y="414" type="curve" smooth="yes"/>
      <point x="200" y="419" type="line"/>
      <point x="235" y="428" type="line" smooth="yes"/>
      <point x="392" y="468"/>
      <point x="490" y="536"/>
      <point x="490" y="632" type="curve" smooth="yes"/>
      <point x="490" y="747"/>
      <point x="412" y="790"/>
      <point x="269" y="790" type="curve" smooth="yes"/>
      <point x="125" y="790"/>
      <point x="49" y="744"/>
      <point x="49" y="656" type="curve" smooth="yes"/>
      <point x="49" y="589"/>
      <point x="91" y="553"/>
      <point x="167" y="553" type="curve" smooth="yes"/>
      <point x="227" y="553" type="line"/>
      <point x="227" y="628" type="line"/>
      <point x="207" y="628"/>
      <point x="202" y="637"/>
      <point x="202" y="649" type="curve" smooth="yes"/>
      <point x="202" y="670"/>
      <point x="234" y="678"/>
      <point x="274" y="678" type="curve" smooth="yes"/>
      <point x="315" y="678"/>
      <point x="340" y="662"/>
      <point x="340" y="633" type="curve" smooth="yes"/>
      <point x="340" y="589"/>
      <point x="304" y="552"/>
      <point x="231" y="534" type="curve" smooth="yes"/>
      <point x="49" y="490" type="line"/>
      <point x="49" y="402" type="line" smooth="yes"/>
      <point x="49" y="290"/>
      <point x="111" y="244"/>
      <point x="194" y="244" type="curve" smooth="yes"/>
      <point x="257" y="244"/>
      <point x="311" y="274"/>
      <point x="339" y="299" type="curve"/>
      <point x="340" y="299" type="line"/>
    </contour>
  </outline>
</glyph>
<glyph name="uni17B4" format="2">
  <advance width="249"/>
  <unicode hex="17B4"/>
  <note>
uni17B4
</note>
  <outline>
    <contour>
      <point x="172" y="799" type="line"/>
      <point x="172" y="944" type="line" smooth="yes"/>
      <point x="172" y="1015"/>
      <point x="147" y="1048"/>
      <point x="73" y="1048" type="curve" smooth="yes"/>
      <point x="-60" y="1048" type="line"/>
      <point x="-60" y="936" type="line"/>
      <point x="-42" y="936" type="line" smooth="yes"/>
      <point x="14" y="936"/>
      <point x="21" y="926"/>
      <point x="21" y="884" type="curve" smooth="yes"/>
      <point x="21" y="799" type="line"/>
    </contour>
    <contour>
      <point x="38" y="244" type="line"/>
      <point x="189" y="244" type="line"/>
      <point x="189" y="652" type="line" smooth="yes"/>
      <point x="189" y="733"/>
      <point x="153" y="780"/>
      <point x="72" y="780" type="curve" smooth="yes"/>
      <point x="-98" y="780" type="line"/>
      <point x="-98" y="668" type="line"/>
      <point x="-12" y="668" type="line" smooth="yes"/>
      <point x="31" y="668"/>
      <point x="38" y="649"/>
      <point x="38" y="607" type="curve" smooth="yes"/>
    </contour>
  </outline>
</glyph>
<glyph name="uni17B5" format="2">
  <advance width="249"/>
  <unicode hex="17B5"/>
  <note>
uni17B5
</note>
  <outline>
    <contour>
      <point x="38" y="244" type="line"/>
      <point x="189" y="244" type="line"/>
      <point x="189" y="652" type="line" smooth="yes"/>
      <point x="189" y="733"/>
      <point x="153" y="780"/>
      <point x="72" y="780" type="curve" smooth="yes"/>
      <point x="-98" y="780" type="line"/>
      <point x="-98" y="668" type="line"/>
      <point x="-12" y="668" type="line" smooth="yes"/>
      <point x="31" y="668"/>
      <point x="38" y="649"/>
      <point x="38" y="607" type="curve" smooth="yes"/>
    </contour>
  </outline>
</glyph>
<glyph name="uni17B6" format="2">
  <advance width="249"/>
  <unicode hex="17B6"/>
  <note>
uni17B6
</note>
  <outline>
    <contour>
      <point x="38" y="244" type="line"/>
      <point x="189" y="244" type="line"/>
      <point x="189" y="652" type="line" smooth="yes"/>
      <point x="189" y="733"/>
      <point x="153" y="780"/>
      <point x="72" y="780" type="curve" smooth="yes"/>
      <point x="-98" y="780" type="line"/>
      <point x="-98" y="668" type="line"/>
      <point x="-12" y="668" type="line" smooth="yes"/>
      <point x="31" y="668"/>
      <point x="38" y="649"/>
      <point x="38" y="607" type="curve" smooth="yes"/>
    </contour>
  </outline>
</glyph>
<glyph name="uni17B9" format="2">
  <unicode hex="17B9"/>
  <note>
uni17B9
</note>
  <outline>
    <contour>
      <point x="-269" y="849" type="curve"/>
      <point x="-119" y="740" type="line"/>
      <point x="-110" y="749"/>
      <point x="-89" y="787"/>
      <point x="-89" y="822" type="curve" smooth="yes"/>
      <point x="-89" y="864"/>
      <point x="-119" y="910"/>
      <point x="-178" y="910" type="curve" smooth="yes"/>
      <point x="-218" y="910"/>
      <point x="-255" y="889"/>
    </contour>
    <contour>
      <point x="-195" y="828" type="line"/>
      <point x="-192" y="834"/>
      <point x="-185" y="840"/>
      <point x="-177" y="840" type="curve" smooth="yes"/>
      <point x="-168" y="840"/>
      <point x="-161" y="834"/>
      <point x="-161" y="825" type="curve" smooth="yes"/>
      <point x="-161" y="818"/>
      <point x="-166" y="810"/>
      <point x="-168" y="808" type="curve"/>
    </contour>
    <contour>
      <point x="-423" y="684" type="curve" smooth="yes"/>
      <point x="-116" y="684" type="line"/>
      <point x="-116" y="757" type="line"/>
      <point x="-191" y="838"/>
      <point x="-265" y="897"/>
      <point x="-351" y="897" type="curve" smooth="yes"/>
      <point x="-431" y="897"/>
      <point x="-498" y="848"/>
      <point x="-498" y="757" type="curve" smooth="yes"/>
      <point x="-498" y="708"/>
      <point x="-474" y="684"/>
    </contour>
    <contour>
      <point x="-396" y="763" type="line"/>
      <point x="-392" y="782"/>
      <point x="-378" y="795"/>
      <point x="-347" y="795" type="curve" smooth="yes"/>
      <point x="-312" y="795"/>
      <point x="-277" y="780"/>
      <point x="-263" y="763" type="curve"/>
    </contour>
  </outline>
</glyph>
<glyph name="uni17BA" format="2">
  <unicode hex="17BA"/>
  <note>
uni17BA
</note>
  <outline>
    <contour>
      <point x="-196" y="885" type="line"/>
      <point x="-196" y="684" type="line"/>
      <point x="-116" y="684" type="line"/>
      <point x="-116" y="885" type="line"/>
    </contour>
    <contour>
      <point x="-302" y="910" type="line"/>
      <point x="-302" y="826" type="line"/>
      <point x="-222" y="826" type="line"/>
      <point x="-222" y="910" type="line"/>
    </contour>
    <contour>
      <point x="-423" y="684" type="curve" smooth="yes"/>
      <point x="-116" y="684" type="line"/>
      <point x="-116" y="757" type="line"/>
      <point x="-191" y="838"/>
      <point x="-265" y="897"/>
      <point x="-351" y="897" type="curve" smooth="yes"/>
      <point x="-431" y="897"/>
      <point x="-498" y="848"/>
      <point x="-498" y="757" type="curve" smooth="yes"/>
      <point x="-498" y="708"/>
      <point x="-474" y="684"/>
    </contour>
    <contour>
      <point x="-396" y="763" type="line"/>
      <point x="-392" y="782"/>
      <point x="-378" y="795"/>
      <point x="-347" y="795" type="curve" smooth="yes"/>
      <point x="-312" y="795"/>
      <point x="-277" y="780"/>
      <point x="-263" y="763" type="curve"/>
    </contour>
  </outline>
</glyph>
<glyph name="uni17BC" format="2">
  <unicode hex="17BC"/>
  <note>
uni17BC
</note>
  <outline>
    <contour>
      <point x="-310" y="-244" type="curve" smooth="yes"/>
      <point x="-217" y="-244"/>
      <point x="-165" y="-204"/>
      <point x="-165" y="-124" type="curve" smooth="yes"/>
      <point x="-165" y="-50" type="line"/>
      <point x="-282" y="-50" type="line"/>
      <point x="-282" y="-101" type="line" smooth="yes"/>
      <point x="-282" y="-130"/>
      <point x="-292" y="-143"/>
      <point x="-310" y="-143" type="curve" smooth="yes"/>
      <point x="-328" y="-143"/>
      <point x="-338" y="-130"/>
      <point x="-338" y="-101" type="curve" smooth="yes"/>
      <point x="-338" y="-50" type="line"/>
      <point x="-455" y="-50" type="line"/>
      <point x="-455" y="-124" type="line" smooth="yes"/>
      <point x="-455" y="-204"/>
      <point x="-403" y="-244"/>
    </contour>
  </outline>
</glyph>
<glyph name="uni17BD" format="2">
  <unicode hex="17BD"/>
  <note>
uni17BD
</note>
  <outline>
    <contour>
      <point x="-455" y="-244" type="line"/>
      <point x="-353" y="-244" type="line"/>
      <point x="-310" y="-205" type="line"/>
      <point x="-268" y="-244" type="line"/>
      <point x="-165" y="-244" type="line"/>
      <point x="-165" y="-50" type="line"/>
      <point x="-281" y="-50" type="line"/>
      <point x="-281" y="-117" type="line"/>
      <point x="-310" y="-92" type="line"/>
      <point x="-339" y="-117" type="line"/>
      <point x="-339" y="-50" type="line"/>
      <point x="-455" y="-50" type="line"/>
    </contour>
  </outline>
</glyph>
<glyph name="uni17BE" format="2">
  <unicode hex="17BE"/>
  <note>
uni17BE
</note>
  <outline>
    <contour>
      <point x="719" y="830" type="line"/>
      <point x="719" y="1056" type="line"/>
      <point x="623" y="1056" type="line"/>
      <point x="623" y="830" type="line"/>
    </contour>
    <contour>
      <point x="412" y="830" type="curve" smooth="yes"/>
      <point x="719" y="830" type="line"/>
      <point x="719" y="903" type="line"/>
      <point x="644" y="984"/>
      <point x="570" y="1043"/>
      <point x="484" y="1043" type="curve" smooth="yes"/>
      <point x="404" y="1043"/>
      <point x="337" y="994"/>
      <point x="337" y="903" type="curve" smooth="yes"/>
      <point x="337" y="854"/>
      <point x="361" y="830"/>
    </contour>
    <contour>
      <point x="439" y="909" type="line"/>
      <point x="443" y="928"/>
      <point x="457" y="941"/>
      <point x="488" y="941" type="curve" smooth="yes"/>
      <point x="523" y="941"/>
      <point x="558" y="926"/>
      <point x="572" y="909" type="curve"/>
    </contour>
    <contour>
      <point x="212" y="569" type="line"/>
      <point x="61" y="569" type="line"/>
      <point x="61" y="294" type="line" smooth="yes"/>
      <point x="61" y="261"/>
      <point x="83" y="244"/>
      <point x="122" y="244" type="curve" smooth="yes"/>
      <point x="250" y="244" type="line"/>
      <point x="250" y="356" type="line"/>
      <point x="238" y="356" type="line" smooth="yes"/>
      <point x="219" y="356"/>
      <point x="212" y="362"/>
      <point x="212" y="387" type="curve" smooth="yes"/>
    </contour>
    <contour>
      <point x="61" y="548" type="line"/>
      <point x="212" y="548" type="line"/>
      <point x="212" y="604" type="line"/>
      <point x="160" y="667" type="line"/>
      <point x="160" y="668" type="line"/>
      <point x="219" y="668" type="line"/>
      <point x="219" y="780" type="line"/>
      <point x="79" y="780" type="line"/>
      <point x="44" y="726"/>
      <point x="26" y="699"/>
      <point x="26" y="685" type="curve" smooth="yes"/>
      <point x="26" y="676"/>
      <point x="28" y="673"/>
      <point x="61" y="620" type="curve"/>
    </contour>
    <contour>
      <point x="367.155" y="500" type="curve" smooth="yes"/>
      <point x="382.982" y="500"/>
      <point x="396.31" y="516"/>
      <point x="396.31" y="535" type="curve" smooth="yes"/>
      <point x="396.31" y="554"/>
      <point x="382.982" y="570"/>
      <point x="367.155" y="570" type="curve" smooth="yes"/>
      <point x="351.328" y="570"/>
      <point x="338" y="554"/>
      <point x="338" y="535" type="curve" smooth="yes"/>
      <point x="338" y="516"/>
      <point x="351.328" y="500"/>
    </contour>
    <contour>
      <point x="388.155" y="601" type="curve" smooth="yes"/>
      <point x="403.982" y="601"/>
      <point x="417.31" y="617"/>
      <point x="417.31" y="636" type="curve" smooth="yes"/>
      <point x="417.31" y="655"/>
      <point x="403.982" y="671"/>
      <point x="388.155" y="671" type="curve" smooth="yes"/>
      <point x="372.328" y="671"/>
      <point x="359" y="655"/>
      <point x="359" y="636" type="curve" smooth="yes"/>
      <point x="359" y="617"/>
      <point x="372.328" y="601"/>
    </contour>
    <contour>
      <point x="448.155" y="671" type="curve" smooth="yes"/>
      <point x="463.982" y="671"/>
      <point x="477.31" y="687"/>
      <point x="477.31" y="706" type="curve" smooth="yes"/>
      <point x="477.31" y="725"/>
      <point x="463.982" y="741"/>
      <point x="448.155" y="741" type="curve" smooth="yes"/>
      <point x="432.328" y="741"/>
      <point x="419" y="725"/>
      <point x="419" y="706" type="curve" smooth="yes"/>
      <point x="419" y="687"/>
      <point x="432.328" y="671"/>
    </contour>
    <contour>
      <point x="528.155" y="695" type="curve" smooth="yes"/>
      <point x="543.982" y="695"/>
      <point x="557.31" y="711"/>
      <point x="557.31" y="730" type="curve" smooth="yes"/>
      <point x="557.31" y="749"/>
      <point x="543.982" y="765"/>
      <point x="528.155" y="765" type="curve" smooth="yes"/>
      <point x="512.328" y="765"/>
      <point x="499" y="749"/>
      <point x="499" y="730" type="curve" smooth="yes"/>
      <point x="499" y="711"/>
      <point x="512.328" y="695"/>
    </contour>
    <contour>
      <point x="609.155" y="671" type="curve" smooth="yes"/>
      <point x="624.982" y="671"/>
      <point x="638.31" y="687"/>
      <point x="638.31" y="706" type="curve" smooth="yes"/>
      <point x="638.31" y="725"/>
      <point x="624.982" y="741"/>
      <point x="609.155" y="741" type="curve" smooth="yes"/>
      <point x="593.328" y="741"/>
      <point x="580" y="725"/>
      <point x="580" y="706" type="curve" smooth="yes"/>
      <point x="580" y="687"/>
      <point x="593.328" y="671"/>
    </contour>
    <contour>
      <point x="668.155" y="599" type="curve" smooth="yes"/>
      <point x="683.982" y="599"/>
      <point x="697.31" y="615"/>
      <point x="697.31" y="634" type="curve" smooth="yes"/>
      <point x="697.31" y="653"/>
      <point x="683.982" y="669"/>
      <point x="668.155" y="669" type="curve" smooth="yes"/>
      <point x="652.328" y="669"/>
      <point x="639" y="653"/>
      <point x="639" y="634" type="curve" smooth="yes"/>
      <point x="639" y="615"/>
      <point x="652.328" y="599"/>
    </contour>
    <contour>
      <point x="693.155" y="500" type="curve" smooth="yes"/>
      <point x="708.982" y="500"/>
      <point x="722.31" y="516"/>
      <point x="722.31" y="535" type="curve" smooth="yes"/>
      <point x="722.31" y="554"/>
      <point x="708.982" y="570"/>
      <point x="693.155" y="570" type="curve" smooth="yes"/>
      <point x="677.328" y="570"/>
      <point x="664" y="554"/>
      <point x="664" y="535" type="curve" smooth="yes"/>
      <point x="664" y="516"/>
      <point x="677.328" y="500"/>
    </contour>
    <contour>
      <point x="669.155" y="406" type="curve" smooth="yes"/>
      <point x="684.982" y="406"/>
      <point x="698.31" y="422"/>
      <point x="698.31" y="441" type="curve" smooth="yes"/>
      <point x="698.31" y="460"/>
      <point x="684.982" y="476"/>
      <point x="669.155" y="476" type="curve" smooth="yes"/>
      <point x="653.328" y="476"/>
      <point x="640" y="460"/>
      <point x="640" y="441" type="curve" smooth="yes"/>
      <point x="640" y="422"/>
      <point x="653.328" y="406"/>
    </contour>
    <contour>
      <point x="610.155" y="334" type="curve" smooth="yes"/>
      <point x="625.982" y="334"/>
      <point x="639.31" y="350"/>
      <point x="639.31" y="369" type="curve" smooth="yes"/>
      <point x="639.31" y="388"/>
      <point x="625.982" y="404"/>
      <point x="610.155" y="404" type="curve" smooth="yes"/>
      <point x="594.328" y="404"/>
      <point x="581" y="388"/>
      <point x="581" y="369" type="curve" smooth="yes"/>
      <point x="581" y="350"/>
      <point x="594.328" y="334"/>
    </contour>
    <contour>
      <point x="528.155" y="306" type="curve" smooth="yes"/>
      <point x="543.982" y="306"/>
      <point x="557.31" y="322"/>
      <point x="557.31" y="341" type="curve" smooth="yes"/>
      <point x="557.31" y="360"/>
      <point x="543.982" y="376"/>
      <point x="528.155" y="376" type="curve" smooth="yes"/>
      <point x="512.328" y="376"/>
      <point x="499" y="360"/>
      <point x="499" y="341" type="curve" smooth="yes"/>
      <point x="499" y="322"/>
      <point x="512.328" y="306"/>
    </contour>
    <contour>
      <point x="448.155" y="333" type="curve" smooth="yes"/>
      <point x="463.982" y="333"/>
      <point x="477.31" y="349"/>
      <point x="477.31" y="368" type="curve" smooth="yes"/>
      <point x="477.31" y="387"/>
      <point x="463.982" y="403"/>
      <point x="448.155" y="403" type="curve" smooth="yes"/>
      <point x="432.328" y="403"/>
      <point x="419" y="387"/>
      <point x="419" y="368" type="curve" smooth="yes"/>
      <point x="419" y="349"/>
      <point x="432.328" y="333"/>
    </contour>
    <contour>
      <point x="387.155" y="405" type="curve" smooth="yes"/>
      <point x="402.982" y="405"/>
      <point x="416.31" y="421"/>
      <point x="416.31" y="440" type="curve" smooth="yes"/>
      <point x="416.31" y="459"/>
      <point x="402.982" y="475"/>
      <point x="387.155" y="475" type="curve" smooth="yes"/>
      <point x="371.328" y="475"/>
      <point x="358" y="459"/>
      <point x="358" y="440" type="curve" smooth="yes"/>
      <point x="358" y="421"/>
      <point x="371.328" y="405"/>
    </contour>
  </outline>
</glyph>
<glyph name="uni17BF" format="2">
  <advance width="1058"/>
  <unicode hex="17BF"/>
  <note>
uni17BF
</note>
  <outline>
    <contour>
      <point x="212" y="569" type="line"/>
      <point x="61" y="569" type="line"/>
      <point x="61" y="294" type="line" smooth="yes"/>
      <point x="61" y="261"/>
      <point x="83" y="244"/>
      <point x="122" y="244" type="curve" smooth="yes"/>
      <point x="250" y="244" type="line"/>
      <point x="250" y="356" type="line"/>
      <point x="238" y="356" type="line" smooth="yes"/>
      <point x="219" y="356"/>
      <point x="212" y="362"/>
      <point x="212" y="387" type="curve" smooth="yes"/>
    </contour>
    <contour>
      <point x="61" y="548" type="line"/>
      <point x="212" y="548" type="line"/>
      <point x="212" y="604" type="line"/>
      <point x="160" y="667" type="line"/>
      <point x="160" y="668" type="line"/>
      <point x="219" y="668" type="line"/>
      <point x="219" y="780" type="line"/>
      <point x="79" y="780" type="line"/>
      <point x="44" y="726"/>
      <point x="26" y="699"/>
      <point x="26" y="685" type="curve" smooth="yes"/>
      <point x="26" y="676"/>
      <point x="28" y="673"/>
      <point x="61" y="620" type="curve"/>
    </contour>
    <contour>
      <point x="369.155" y="500" type="curve" smooth="yes"/>
      <point x="384.982" y="500"/>
      <point x="398.31" y="516"/>
      <point x="398.31" y="535" type="curve" smooth="yes"/>
      <point x="398.31" y="554"/>
      <point x="384.982" y="570"/>
      <point x="369.155" y="570" type="curve" smooth="yes"/>
      <point x="353.328" y="570"/>
      <point x="340" y="554"/>
      <point x="340" y="535" type="curve" smooth="yes"/>
      <point x="340" y="516"/>
      <point x="353.328" y="500"/>
    </contour>
    <contour>
      <point x="390.155" y="601" type="curve" smooth="yes"/>
      <point x="405.982" y="601"/>
      <point x="419.31" y="617"/>
      <point x="419.31" y="636" type="curve" smooth="yes"/>
      <point x="419.31" y="655"/>
      <point x="405.982" y="671"/>
      <point x="390.155" y="671" type="curve" smooth="yes"/>
      <point x="374.328" y="671"/>
      <point x="361" y="655"/>
      <point x="361" y="636" type="curve" smooth="yes"/>
      <point x="361" y="617"/>
      <point x="374.328" y="601"/>
    </contour>
    <contour>
      <point x="450.155" y="671" type="curve" smooth="yes"/>
      <point x="465.982" y="671"/>
      <point x="479.31" y="687"/>
      <point x="479.31" y="706" type="curve" smooth="yes"/>
      <point x="479.31" y="725"/>
      <point x="465.982" y="741"/>
      <point x="450.155" y="741" type="curve" smooth="yes"/>
      <point x="434.328" y="741"/>
      <point x="421" y="725"/>
      <point x="421" y="706" type="curve" smooth="yes"/>
      <point x="421" y="687"/>
      <point x="434.328" y="671"/>
    </contour>
    <contour>
      <point x="530.155" y="695" type="curve" smooth="yes"/>
      <point x="545.982" y="695"/>
      <point x="559.31" y="711"/>
      <point x="559.31" y="730" type="curve" smooth="yes"/>
      <point x="559.31" y="749"/>
      <point x="545.982" y="765"/>
      <point x="530.155" y="765" type="curve" smooth="yes"/>
      <point x="514.328" y="765"/>
      <point x="501" y="749"/>
      <point x="501" y="730" type="curve" smooth="yes"/>
      <point x="501" y="711"/>
      <point x="514.328" y="695"/>
    </contour>
    <contour>
      <point x="611.155" y="671" type="curve" smooth="yes"/>
      <point x="626.982" y="671"/>
      <point x="640.31" y="687"/>
      <point x="640.31" y="706" type="curve" smooth="yes"/>
      <point x="640.31" y="725"/>
      <point x="626.982" y="741"/>
      <point x="611.155" y="741" type="curve" smooth="yes"/>
      <point x="595.328" y="741"/>
      <point x="582" y="725"/>
      <point x="582" y="706" type="curve" smooth="yes"/>
      <point x="582" y="687"/>
      <point x="595.328" y="671"/>
    </contour>
    <contour>
      <point x="670.155" y="599" type="curve" smooth="yes"/>
      <point x="685.982" y="599"/>
      <point x="699.31" y="615"/>
      <point x="699.31" y="634" type="curve" smooth="yes"/>
      <point x="699.31" y="653"/>
      <point x="685.982" y="669"/>
      <point x="670.155" y="669" type="curve" smooth="yes"/>
      <point x="654.328" y="669"/>
      <point x="641" y="653"/>
      <point x="641" y="634" type="curve" smooth="yes"/>
      <point x="641" y="615"/>
      <point x="654.328" y="599"/>
    </contour>
    <contour>
      <point x="695.155" y="500" type="curve" smooth="yes"/>
      <point x="710.982" y="500"/>
      <point x="724.31" y="516"/>
      <point x="724.31" y="535" type="curve" smooth="yes"/>
      <point x="724.31" y="554"/>
      <point x="710.982" y="570"/>
      <point x="695.155" y="570" type="curve" smooth="yes"/>
      <point x="679.328" y="570"/>
      <point x="666" y="554"/>
      <point x="666" y="535" type="curve" smooth="yes"/>
      <point x="666" y="516"/>
      <point x="679.328" y="500"/>
    </contour>
    <contour>
      <point x="671.155" y="406" type="curve" smooth="yes"/>
      <point x="686.982" y="406"/>
      <point x="700.31" y="422"/>
      <point x="700.31" y="441" type="curve" smooth="yes"/>
      <point x="700.31" y="460"/>
      <point x="686.982" y="476"/>
      <point x="671.155" y="476" type="curve" smooth="yes"/>
      <point x="655.328" y="476"/>
      <point x="642" y="460"/>
      <point x="642" y="441" type="curve" smooth="yes"/>
      <point x="642" y="422"/>
      <point x="655.328" y="406"/>
    </contour>
    <contour>
      <point x="612.155" y="334" type="curve" smooth="yes"/>
      <point x="627.982" y="334"/>
      <point x="641.31" y="350"/>
      <point x="641.31" y="369" type="curve" smooth="yes"/>
      <point x="641.31" y="388"/>
      <point x="627.982" y="404"/>
      <point x="612.155" y="404" type="curve" smooth="yes"/>
      <point x="596.328" y="404"/>
      <point x="583" y="388"/>
      <point x="583" y="369" type="curve" smooth="yes"/>
      <point x="583" y="350"/>
      <point x="596.328" y="334"/>
    </contour>
    <contour>
      <point x="530.155" y="306" type="curve" smooth="yes"/>
      <point x="545.982" y="306"/>
      <point x="559.31" y="322"/>
      <point x="559.31" y="341" type="curve" smooth="yes"/>
      <point x="559.31" y="360"/>
      <point x="545.982" y="376"/>
      <point x="530.155" y="376" type="curve" smooth="yes"/>
      <point x="514.328" y="376"/>
      <point x="501" y="360"/>
      <point x="501" y="341" type="curve" smooth="yes"/>
      <point x="501" y="322"/>
      <point x="514.328" y="306"/>
    </contour>
    <contour>
      <point x="450.155" y="333" type="curve" smooth="yes"/>
      <point x="465.982" y="333"/>
      <point x="479.31" y="349"/>
      <point x="479.31" y="368" type="curve" smooth="yes"/>
      <point x="479.31" y="387"/>
      <point x="465.982" y="403"/>
      <point x="450.155" y="403" type="curve" smooth="yes"/>
      <point x="434.328" y="403"/>
      <point x="421" y="387"/>
      <point x="421" y="368" type="curve" smooth="yes"/>
      <point x="421" y="349"/>
      <point x="434.328" y="333"/>
    </contour>
    <contour>
      <point x="389.155" y="405" type="curve" smooth="yes"/>
      <point x="404.982" y="405"/>
      <point x="418.31" y="421"/>
      <point x="418.31" y="440" type="curve" smooth="yes"/>
      <point x="418.31" y="459"/>
      <point x="404.982" y="475"/>
      <point x="389.155" y="475" type="curve" smooth="yes"/>
      <point x="373.328" y="475"/>
      <point x="360" y="459"/>
      <point x="360" y="440" type="curve" smooth="yes"/>
      <point x="360" y="421"/>
      <point x="373.328" y="405"/>
    </contour>
    <contour>
      <point x="998" y="726" type="line"/>
      <point x="847" y="726" type="line"/>
      <point x="847" y="117" type="line" smooth="yes"/>
      <point x="847" y="103"/>
      <point x="832" y="96"/>
      <point x="803" y="96" type="curve" smooth="yes"/>
      <point x="774" y="96"/>
      <point x="759" y="103"/>
      <point x="759" y="117" type="curve" smooth="yes"/>
      <point x="759" y="122" type="line"/>
      <point x="770" y="122" type="line"/>
      <point x="770" y="195" type="line"/>
      <point x="608" y="195" type="line"/>
      <point x="608" y="117" type="line" smooth="yes"/>
      <point x="608" y="39"/>
      <point x="673" y="0"/>
      <point x="803" y="0" type="curve" smooth="yes"/>
      <point x="933" y="0"/>
      <point x="998" y="39"/>
      <point x="998" y="117" type="curve" smooth="yes"/>
    </contour>
    <contour>
      <point x="847" y="708" type="line"/>
      <point x="998" y="708" type="line"/>
      <point x="998" y="753" type="line" smooth="yes"/>
      <point x="998" y="849"/>
      <point x="977" y="916"/>
      <point x="900" y="980" type="curve" smooth="yes"/>
      <point x="826" y="1042"/>
      <point x="767" y="1052"/>
      <point x="729" y="1052" type="curve" smooth="yes"/>
      <point x="646" y="1052"/>
      <point x="591" y="1002"/>
      <point x="591" y="933" type="curve" smooth="yes"/>
      <point x="591" y="888"/>
      <point x="614" y="843"/>
      <point x="693" y="843" type="curve" smooth="yes"/>
      <point x="802" y="843" type="line" smooth="yes"/>
      <point x="832" y="843"/>
      <point x="847" y="827"/>
      <point x="847" y="795" type="curve" smooth="yes"/>
    </contour>
    <contour>
      <point x="704" y="922" type="line"/>
      <point x="704" y="941"/>
      <point x="718" y="955"/>
      <point x="741" y="955" type="curve" smooth="yes"/>
      <point x="762" y="955"/>
      <point x="786" y="944"/>
      <point x="810" y="922" type="curve"/>
    </contour>
    <contour>
      <point x="873" y="972" type="line"/>
      <point x="873" y="1056" type="line"/>
      <point x="794" y="1056" type="line"/>
      <point x="794" y="1013" type="line"/>
    </contour>
    <contour>
      <point x="971" y="885" type="line"/>
      <point x="971" y="1036" type="line"/>
      <point x="892" y="1036" type="line"/>
      <point x="892" y="963" type="line"/>
    </contour>
  </outline>
</glyph>
<glyph name="uni17C0" format="2">
  <advance width="1103"/>
  <unicode hex="17C0"/>
  <note>
uni17C0
</note>
  <outline>
    <contour>
      <point x="212" y="569" type="line"/>
      <point x="61" y="569" type="line"/>
      <point x="61" y="294" type="line" smooth="yes"/>
      <point x="61" y="261"/>
      <point x="83" y="244"/>
      <point x="122" y="244" type="curve" smooth="yes"/>
      <point x="250" y="244" type="line"/>
      <point x="250" y="356" type="line"/>
      <point x="238" y="356" type="line" smooth="yes"/>
      <point x="219" y="356"/>
      <point x="212" y="362"/>
      <point x="212" y="387" type="curve" smooth="yes"/>
    </contour>
    <contour>
      <point x="61" y="548" type="line"/>
      <point x="212" y="548" type="line"/>
      <point x="212" y="604" type="line"/>
      <point x="160" y="667" type="line"/>
      <point x="160" y="668" type="line"/>
      <point x="219" y="668" type="line"/>
      <point x="219" y="780" type="line"/>
      <point x="79" y="780" type="line"/>
      <point x="44" y="726"/>
      <point x="26" y="699"/>
      <point x="26" y="685" type="curve" smooth="yes"/>
      <point x="26" y="676"/>
      <point x="28" y="673"/>
      <point x="61" y="620" type="curve"/>
    </contour>
    <contour>
      <point x="394.155" y="500" type="curve" smooth="yes"/>
      <point x="409.982" y="500"/>
      <point x="423.31" y="516"/>
      <point x="423.31" y="535" type="curve" smooth="yes"/>
      <point x="423.31" y="554"/>
      <point x="409.982" y="570"/>
      <point x="394.155" y="570" type="curve" smooth="yes"/>
      <point x="378.328" y="570"/>
      <point x="365" y="554"/>
      <point x="365" y="535" type="curve" smooth="yes"/>
      <point x="365" y="516"/>
      <point x="378.328" y="500"/>
    </contour>
    <contour>
      <point x="415.155" y="601" type="curve" smooth="yes"/>
      <point x="430.982" y="601"/>
      <point x="444.31" y="617"/>
      <point x="444.31" y="636" type="curve" smooth="yes"/>
      <point x="444.31" y="655"/>
      <point x="430.982" y="671"/>
      <point x="415.155" y="671" type="curve" smooth="yes"/>
      <point x="399.328" y="671"/>
      <point x="386" y="655"/>
      <point x="386" y="636" type="curve" smooth="yes"/>
      <point x="386" y="617"/>
      <point x="399.328" y="601"/>
    </contour>
    <contour>
      <point x="475.155" y="671" type="curve" smooth="yes"/>
      <point x="490.982" y="671"/>
      <point x="504.31" y="687"/>
      <point x="504.31" y="706" type="curve" smooth="yes"/>
      <point x="504.31" y="725"/>
      <point x="490.982" y="741"/>
      <point x="475.155" y="741" type="curve" smooth="yes"/>
      <point x="459.328" y="741"/>
      <point x="446" y="725"/>
      <point x="446" y="706" type="curve" smooth="yes"/>
      <point x="446" y="687"/>
      <point x="459.328" y="671"/>
    </contour>
    <contour>
      <point x="555.155" y="695" type="curve" smooth="yes"/>
      <point x="570.982" y="695"/>
      <point x="584.31" y="711"/>
      <point x="584.31" y="730" type="curve" smooth="yes"/>
      <point x="584.31" y="749"/>
      <point x="570.982" y="765"/>
      <point x="555.155" y="765" type="curve" smooth="yes"/>
      <point x="539.328" y="765"/>
      <point x="526" y="749"/>
      <point x="526" y="730" type="curve" smooth="yes"/>
      <point x="526" y="711"/>
      <point x="539.328" y="695"/>
    </contour>
    <contour>
      <point x="636.155" y="671" type="curve" smooth="yes"/>
      <point x="651.982" y="671"/>
      <point x="665.31" y="687"/>
      <point x="665.31" y="706" type="curve" smooth="yes"/>
      <point x="665.31" y="725"/>
      <point x="651.982" y="741"/>
      <point x="636.155" y="741" type="curve" smooth="yes"/>
      <point x="620.328" y="741"/>
      <point x="607" y="725"/>
      <point x="607" y="706" type="curve" smooth="yes"/>
      <point x="607" y="687"/>
      <point x="620.328" y="671"/>
    </contour>
    <contour>
      <point x="695.155" y="599" type="curve" smooth="yes"/>
      <point x="710.982" y="599"/>
      <point x="724.31" y="615"/>
      <point x="724.31" y="634" type="curve" smooth="yes"/>
      <point x="724.31" y="653"/>
      <point x="710.982" y="669"/>
      <point x="695.155" y="669" type="curve" smooth="yes"/>
      <point x="679.328" y="669"/>
      <point x="666" y="653"/>
      <point x="666" y="634" type="curve" smooth="yes"/>
      <point x="666" y="615"/>
      <point x="679.328" y="599"/>
    </contour>
    <contour>
      <point x="720.155" y="500" type="curve" smooth="yes"/>
      <point x="735.982" y="500"/>
      <point x="749.31" y="516"/>
      <point x="749.31" y="535" type="curve" smooth="yes"/>
      <point x="749.31" y="554"/>
      <point x="735.982" y="570"/>
      <point x="720.155" y="570" type="curve" smooth="yes"/>
      <point x="704.328" y="570"/>
      <point x="691" y="554"/>
      <point x="691" y="535" type="curve" smooth="yes"/>
      <point x="691" y="516"/>
      <point x="704.328" y="500"/>
    </contour>
    <contour>
      <point x="696.155" y="406" type="curve" smooth="yes"/>
      <point x="711.982" y="406"/>
      <point x="725.31" y="422"/>
      <point x="725.31" y="441" type="curve" smooth="yes"/>
      <point x="725.31" y="460"/>
      <point x="711.982" y="476"/>
      <point x="696.155" y="476" type="curve" smooth="yes"/>
      <point x="680.328" y="476"/>
      <point x="667" y="460"/>
      <point x="667" y="441" type="curve" smooth="yes"/>
      <point x="667" y="422"/>
      <point x="680.328" y="406"/>
    </contour>
    <contour>
      <point x="637.155" y="334" type="curve" smooth="yes"/>
      <point x="652.982" y="334"/>
      <point x="666.31" y="350"/>
      <point x="666.31" y="369" type="curve" smooth="yes"/>
      <point x="666.31" y="388"/>
      <point x="652.982" y="404"/>
      <point x="637.155" y="404" type="curve" smooth="yes"/>
      <point x="621.328" y="404"/>
      <point x="608" y="388"/>
      <point x="608" y="369" type="curve" smooth="yes"/>
      <point x="608" y="350"/>
      <point x="621.328" y="334"/>
    </contour>
    <contour>
      <point x="555.155" y="306" type="curve" smooth="yes"/>
      <point x="570.982" y="306"/>
      <point x="584.31" y="322"/>
      <point x="584.31" y="341" type="curve" smooth="yes"/>
      <point x="584.31" y="360"/>
      <point x="570.982" y="376"/>
      <point x="555.155" y="376" type="curve" smooth="yes"/>
      <point x="539.328" y="376"/>
      <point x="526" y="360"/>
      <point x="526" y="341" type="curve" smooth="yes"/>
      <point x="526" y="322"/>
      <point x="539.328" y="306"/>
    </contour>
    <contour>
      <point x="475.155" y="333" type="curve" smooth="yes"/>
      <point x="490.982" y="333"/>
      <point x="504.31" y="349"/>
      <point x="504.31" y="368" type="curve" smooth="yes"/>
      <point x="504.31" y="387"/>
      <point x="490.982" y="403"/>
      <point x="475.155" y="403" type="curve" smooth="yes"/>
      <point x="459.328" y="403"/>
      <point x="446" y="387"/>
      <point x="446" y="368" type="curve" smooth="yes"/>
      <point x="446" y="349"/>
      <point x="459.328" y="333"/>
    </contour>
    <contour>
      <point x="414.155" y="405" type="curve" smooth="yes"/>
      <point x="429.982" y="405"/>
      <point x="443.31" y="421"/>
      <point x="443.31" y="440" type="curve" smooth="yes"/>
      <point x="443.31" y="459"/>
      <point x="429.982" y="475"/>
      <point x="414.155" y="475" type="curve" smooth="yes"/>
      <point x="398.328" y="475"/>
      <point x="385" y="459"/>
      <point x="385" y="440" type="curve" smooth="yes"/>
      <point x="385" y="421"/>
      <point x="398.328" y="405"/>
    </contour>
    <contour>
      <point x="1043" y="742" type="line"/>
      <point x="892" y="742" type="line"/>
      <point x="892" y="120" type="line" smooth="yes"/>
      <point x="892" y="105"/>
      <point x="877" y="96"/>
      <point x="848" y="96" type="curve" smooth="yes"/>
      <point x="819" y="96"/>
      <point x="804" y="105"/>
      <point x="804" y="120" type="curve" smooth="yes"/>
      <point x="804" y="122" type="line"/>
      <point x="821" y="122" type="line"/>
      <point x="821" y="195" type="line"/>
      <point x="653" y="195" type="line"/>
      <point x="653" y="117" type="line" smooth="yes"/>
      <point x="653" y="39"/>
      <point x="718" y="0"/>
      <point x="848" y="0" type="curve" smooth="yes"/>
      <point x="978" y="0"/>
      <point x="1043" y="39"/>
      <point x="1043" y="117" type="curve" smooth="yes"/>
    </contour>
    <contour>
      <point x="892" y="722" type="line"/>
      <point x="1043" y="722" type="line"/>
      <point x="1043" y="834" type="line" smooth="yes"/>
      <point x="1043" y="951"/>
      <point x="993" y="1040"/>
      <point x="879" y="1040" type="curve" smooth="yes"/>
      <point x="840" y="1040"/>
      <point x="820" y="1025"/>
      <point x="804" y="1013" type="curve"/>
      <point x="804" y="1056" type="line"/>
      <point x="653" y="1056" type="line"/>
      <point x="653" y="887" type="line"/>
      <point x="804" y="887" type="line"/>
      <point x="810" y="900"/>
      <point x="821" y="907"/>
      <point x="841" y="907" type="curve" smooth="yes"/>
      <point x="871" y="907"/>
      <point x="892" y="885"/>
      <point x="892" y="822" type="curve" smooth="yes"/>
    </contour>
  </outline>
</glyph>
<glyph name="uni17C1" format="2">
  <advance width="260"/>
  <unicode hex="17C1"/>
  <note>
uni17C1
</note>
  <outline>
    <contour>
      <point x="212" y="569" type="line"/>
      <point x="61" y="569" type="line"/>
      <point x="61" y="294" type="line" smooth="yes"/>
      <point x="61" y="261"/>
      <point x="83" y="244"/>
      <point x="122" y="244" type="curve" smooth="yes"/>
      <point x="250" y="244" type="line"/>
      <point x="250" y="356" type="line"/>
      <point x="238" y="356" type="line" smooth="yes"/>
      <point x="219" y="356"/>
      <point x="212" y="362"/>
      <point x="212" y="387" type="curve" smooth="yes"/>
    </contour>
    <contour>
      <point x="61" y="548" type="line"/>
      <point x="212" y="548" type="line"/>
      <point x="212" y="604" type="line"/>
      <point x="160" y="667" type="line"/>
      <point x="160" y="668" type="line"/>
      <point x="219" y="668" type="line"/>
      <point x="219" y="780" type="line"/>
      <point x="79" y="780" type="line"/>
      <point x="44" y="726"/>
      <point x="26" y="699"/>
      <point x="26" y="685" type="curve" smooth="yes"/>
      <point x="26" y="676"/>
      <point x="28" y="673"/>
      <point x="61" y="620" type="curve"/>
    </contour>
  </outline>
</glyph>
<glyph name="uni17C2" format="2">
  <advance width="260"/>
  <unicode hex="17C2"/>
  <note>
uni17C2
</note>
  <outline>
    <contour>
      <point x="115" y="829" type="curve" smooth="yes"/>
      <point x="207" y="829"/>
      <point x="258" y="897"/>
      <point x="258" y="1048" type="curve"/>
      <point x="160" y="1048" type="line"/>
      <point x="163" y="988"/>
      <point x="157" y="919"/>
      <point x="129" y="919" type="curve" smooth="yes"/>
      <point x="121" y="919"/>
      <point x="116" y="924"/>
      <point x="116" y="932" type="curve" smooth="yes"/>
      <point x="116" y="941"/>
      <point x="123" y="946"/>
      <point x="131" y="946" type="curve"/>
      <point x="131" y="1019" type="line"/>
      <point x="44" y="1019"/>
      <point x="0" y="983"/>
      <point x="0" y="924" type="curve" smooth="yes"/>
      <point x="0" y="863"/>
      <point x="51" y="829"/>
    </contour>
    <contour>
      <point x="212" y="569" type="line"/>
      <point x="61" y="569" type="line"/>
      <point x="61" y="294" type="line" smooth="yes"/>
      <point x="61" y="261"/>
      <point x="83" y="244"/>
      <point x="122" y="244" type="curve" smooth="yes"/>
      <point x="250" y="244" type="line"/>
      <point x="250" y="356" type="line"/>
      <point x="238" y="356" type="line" smooth="yes"/>
      <point x="219" y="356"/>
      <point x="212" y="362"/>
      <point x="212" y="387" type="curve" smooth="yes"/>
    </contour>
    <contour>
      <point x="61" y="548" type="line"/>
      <point x="212" y="548" type="line"/>
      <point x="212" y="604" type="line"/>
      <point x="160" y="667" type="line"/>
      <point x="160" y="668" type="line"/>
      <point x="219" y="668" type="line"/>
      <point x="219" y="780" type="line"/>
      <point x="79" y="780" type="line"/>
      <point x="44" y="726"/>
      <point x="26" y="699"/>
      <point x="26" y="685" type="curve" smooth="yes"/>
      <point x="26" y="676"/>
      <point x="28" y="673"/>
      <point x="61" y="620" type="curve"/>
    </contour>
  </outline>
</glyph>
<glyph name="uni17C3" format="2">
  <advance width="260"/>
  <unicode hex="17C3"/>
  <note>
uni17C3
</note>
  <outline>
    <contour>
      <point x="22" y="809" type="line"/>
      <point x="148" y="809" type="line" smooth="yes"/>
      <point x="218" y="809"/>
      <point x="275" y="854"/>
      <point x="275" y="933" type="curve" smooth="yes"/>
      <point x="275" y="992"/>
      <point x="243" y="1030"/>
      <point x="188" y="1030" type="curve" smooth="yes"/>
      <point x="162" y="1030"/>
      <point x="146" y="1021"/>
      <point x="131" y="1007" type="curve"/>
      <point x="131" y="1020" type="line" smooth="yes"/>
      <point x="131" y="1035"/>
      <point x="124" y="1056"/>
      <point x="83" y="1056" type="curve" smooth="yes"/>
      <point x="0" y="1056" type="line"/>
      <point x="0" y="976" type="line"/>
      <point x="14" y="976"/>
      <point x="22" y="968"/>
      <point x="22" y="952" type="curve" smooth="yes"/>
      <point x="22" y="924" type="line"/>
      <point x="131" y="924" type="line"/>
      <point x="134" y="934"/>
      <point x="142" y="943"/>
      <point x="155" y="943" type="curve" smooth="yes"/>
      <point x="168" y="943"/>
      <point x="175" y="934"/>
      <point x="175" y="923" type="curve" smooth="yes"/>
      <point x="175" y="911"/>
      <point x="167" y="899"/>
      <point x="142" y="899" type="curve" smooth="yes"/>
      <point x="22" y="899" type="line"/>
    </contour>
    <contour>
      <point x="212" y="569" type="line"/>
      <point x="61" y="569" type="line"/>
      <point x="61" y="294" type="line" smooth="yes"/>
      <point x="61" y="261"/>
      <point x="83" y="244"/>
      <point x="122" y="244" type="curve" smooth="yes"/>
      <point x="250" y="244" type="line"/>
      <point x="250" y="356" type="line"/>
      <point x="238" y="356" type="line" smooth="yes"/>
      <point x="219" y="356"/>
      <point x="212" y="362"/>
      <point x="212" y="387" type="curve" smooth="yes"/>
    </contour>
    <contour>
      <point x="61" y="548" type="line"/>
      <point x="212" y="548" type="line"/>
      <point x="212" y="604" type="line"/>
      <point x="160" y="667" type="line"/>
      <point x="160" y="668" type="line"/>
      <point x="219" y="668" type="line"/>
      <point x="219" y="780" type="line"/>
      <point x="79" y="780" type="line"/>
      <point x="44" y="726"/>
      <point x="26" y="699"/>
      <point x="26" y="685" type="curve" smooth="yes"/>
      <point x="26" y="676"/>
      <point x="28" y="673"/>
      <point x="61" y="620" type="curve"/>
    </contour>
  </outline>
</glyph>
<glyph name="uni17C5" format="2">
  <advance width="1011"/>
  <unicode hex="17C5"/>
  <note>
uni17C5
</note>
  <outline>
    <contour>
      <point x="212" y="569" type="line"/>
      <point x="61" y="569" type="line"/>
      <point x="61" y="294" type="line" smooth="yes"/>
      <point x="61" y="261"/>
      <point x="83" y="244"/>
      <point x="122" y="244" type="curve" smooth="yes"/>
      <point x="250" y="244" type="line"/>
      <point x="250" y="356" type="line"/>
      <point x="238" y="356" type="line" smooth="yes"/>
      <point x="219" y="356"/>
      <point x="212" y="362"/>
      <point x="212" y="387" type="curve" smooth="yes"/>
    </contour>
    <contour>
      <point x="61" y="548" type="line"/>
      <point x="212" y="548" type="line"/>
      <point x="212" y="604" type="line"/>
      <point x="160" y="667" type="line"/>
      <point x="160" y="668" type="line"/>
      <point x="219" y="668" type="line"/>
      <point x="219" y="780" type="line"/>
      <point x="79" y="780" type="line"/>
      <point x="44" y="726"/>
      <point x="26" y="699"/>
      <point x="26" y="685" type="curve" smooth="yes"/>
      <point x="26" y="676"/>
      <point x="28" y="673"/>
      <point x="61" y="620" type="curve"/>
    </contour>
    <contour>
      <point x="316.155" y="480" type="curve" smooth="yes"/>
      <point x="331.982" y="480"/>
      <point x="345.31" y="496"/>
      <point x="345.31" y="515" type="curve" smooth="yes"/>
      <point x="345.31" y="534"/>
      <point x="331.982" y="550"/>
      <point x="316.155" y="550" type="curve" smooth="yes"/>
      <point x="300.328" y="550"/>
      <point x="287" y="534"/>
      <point x="287" y="515" type="curve" smooth="yes"/>
      <point x="287" y="496"/>
      <point x="300.328" y="480"/>
    </contour>
    <contour>
      <point x="337.155" y="581" type="curve" smooth="yes"/>
      <point x="352.982" y="581"/>
      <point x="366.31" y="597"/>
      <point x="366.31" y="616" type="curve" smooth="yes"/>
      <point x="366.31" y="635"/>
      <point x="352.982" y="651"/>
      <point x="337.155" y="651" type="curve" smooth="yes"/>
      <point x="321.328" y="651"/>
      <point x="308" y="635"/>
      <point x="308" y="616" type="curve" smooth="yes"/>
      <point x="308" y="597"/>
      <point x="321.328" y="581"/>
    </contour>
    <contour>
      <point x="397.155" y="651" type="curve" smooth="yes"/>
      <point x="412.982" y="651"/>
      <point x="426.31" y="667"/>
      <point x="426.31" y="686" type="curve" smooth="yes"/>
      <point x="426.31" y="705"/>
      <point x="412.982" y="721"/>
      <point x="397.155" y="721" type="curve" smooth="yes"/>
      <point x="381.328" y="721"/>
      <point x="368" y="705"/>
      <point x="368" y="686" type="curve" smooth="yes"/>
      <point x="368" y="667"/>
      <point x="381.328" y="651"/>
    </contour>
    <contour>
      <point x="477.155" y="675" type="curve" smooth="yes"/>
      <point x="492.982" y="675"/>
      <point x="506.31" y="691"/>
      <point x="506.31" y="710" type="curve" smooth="yes"/>
      <point x="506.31" y="729"/>
      <point x="492.982" y="745"/>
      <point x="477.155" y="745" type="curve" smooth="yes"/>
      <point x="461.328" y="745"/>
      <point x="448" y="729"/>
      <point x="448" y="710" type="curve" smooth="yes"/>
      <point x="448" y="691"/>
      <point x="461.328" y="675"/>
    </contour>
    <contour>
      <point x="558.155" y="651" type="curve" smooth="yes"/>
      <point x="573.982" y="651"/>
      <point x="587.31" y="667"/>
      <point x="587.31" y="686" type="curve" smooth="yes"/>
      <point x="587.31" y="705"/>
      <point x="573.982" y="721"/>
      <point x="558.155" y="721" type="curve" smooth="yes"/>
      <point x="542.328" y="721"/>
      <point x="529" y="705"/>
      <point x="529" y="686" type="curve" smooth="yes"/>
      <point x="529" y="667"/>
      <point x="542.328" y="651"/>
    </contour>
    <contour>
      <point x="617.155" y="579" type="curve" smooth="yes"/>
      <point x="632.982" y="579"/>
      <point x="646.31" y="595"/>
      <point x="646.31" y="614" type="curve" smooth="yes"/>
      <point x="646.31" y="633"/>
      <point x="632.982" y="649"/>
      <point x="617.155" y="649" type="curve" smooth="yes"/>
      <point x="601.328" y="649"/>
      <point x="588" y="633"/>
      <point x="588" y="614" type="curve" smooth="yes"/>
      <point x="588" y="595"/>
      <point x="601.328" y="579"/>
    </contour>
    <contour>
      <point x="642.155" y="480" type="curve" smooth="yes"/>
      <point x="657.982" y="480"/>
      <point x="671.31" y="496"/>
      <point x="671.31" y="515" type="curve" smooth="yes"/>
      <point x="671.31" y="534"/>
      <point x="657.982" y="550"/>
      <point x="642.155" y="550" type="curve" smooth="yes"/>
      <point x="626.328" y="550"/>
      <point x="613" y="534"/>
      <point x="613" y="515" type="curve" smooth="yes"/>
      <point x="613" y="496"/>
      <point x="626.328" y="480"/>
    </contour>
    <contour>
      <point x="618.155" y="386" type="curve" smooth="yes"/>
      <point x="633.982" y="386"/>
      <point x="647.31" y="402"/>
      <point x="647.31" y="421" type="curve" smooth="yes"/>
      <point x="647.31" y="440"/>
      <point x="633.982" y="456"/>
      <point x="618.155" y="456" type="curve" smooth="yes"/>
      <point x="602.328" y="456"/>
      <point x="589" y="440"/>
      <point x="589" y="421" type="curve" smooth="yes"/>
      <point x="589" y="402"/>
      <point x="602.328" y="386"/>
    </contour>
    <contour>
      <point x="559.155" y="314" type="curve" smooth="yes"/>
      <point x="574.982" y="314"/>
      <point x="588.31" y="330"/>
      <point x="588.31" y="349" type="curve" smooth="yes"/>
      <point x="588.31" y="368"/>
      <point x="574.982" y="384"/>
      <point x="559.155" y="384" type="curve" smooth="yes"/>
      <point x="543.328" y="384"/>
      <point x="530" y="368"/>
      <point x="530" y="349" type="curve" smooth="yes"/>
      <point x="530" y="330"/>
      <point x="543.328" y="314"/>
    </contour>
    <contour>
      <point x="477.155" y="286" type="curve" smooth="yes"/>
      <point x="492.982" y="286"/>
      <point x="506.31" y="302"/>
      <point x="506.31" y="321" type="curve" smooth="yes"/>
      <point x="506.31" y="340"/>
      <point x="492.982" y="356"/>
      <point x="477.155" y="356" type="curve" smooth="yes"/>
      <point x="461.328" y="356"/>
      <point x="448" y="340"/>
      <point x="448" y="321" type="curve" smooth="yes"/>
      <point x="448" y="302"/>
      <point x="461.328" y="286"/>
    </contour>
    <contour>
      <point x="397.155" y="313" type="curve" smooth="yes"/>
      <point x="412.982" y="313"/>
      <point x="426.31" y="329"/>
      <point x="426.31" y="348" type="curve" smooth="yes"/>
      <point x="426.31" y="367"/>
      <point x="412.982" y="383"/>
      <point x="397.155" y="383" type="curve" smooth="yes"/>
      <point x="381.328" y="383"/>
      <point x="368" y="367"/>
      <point x="368" y="348" type="curve" smooth="yes"/>
      <point x="368" y="329"/>
      <point x="381.328" y="313"/>
    </contour>
    <contour>
      <point x="336.155" y="385" type="curve" smooth="yes"/>
      <point x="351.982" y="385"/>
      <point x="365.31" y="401"/>
      <point x="365.31" y="420" type="curve" smooth="yes"/>
      <point x="365.31" y="439"/>
      <point x="351.982" y="455"/>
      <point x="336.155" y="455" type="curve" smooth="yes"/>
      <point x="320.328" y="455"/>
      <point x="307" y="439"/>
      <point x="307" y="420" type="curve" smooth="yes"/>
      <point x="307" y="401"/>
      <point x="320.328" y="385"/>
    </contour>
    <contour>
      <point x="934" y="799" type="line"/>
      <point x="934" y="944" type="line" smooth="yes"/>
      <point x="934" y="1015"/>
      <point x="909" y="1048"/>
      <point x="835" y="1048" type="curve" smooth="yes"/>
      <point x="702" y="1048" type="line"/>
      <point x="702" y="936" type="line"/>
      <point x="720" y="936" type="line" smooth="yes"/>
      <point x="776" y="936"/>
      <point x="783" y="926"/>
      <point x="783" y="884" type="curve" smooth="yes"/>
      <point x="783" y="799" type="line"/>
    </contour>
    <contour>
      <point x="800" y="244" type="line"/>
      <point x="951" y="244" type="line"/>
      <point x="951" y="652" type="line" smooth="yes"/>
      <point x="951" y="733"/>
      <point x="915" y="780"/>
      <point x="834" y="780" type="curve" smooth="yes"/>
      <point x="664" y="780" type="line"/>
      <point x="664" y="668" type="line"/>
      <point x="750" y="668" type="line" smooth="yes"/>
      <point x="793" y="668"/>
      <point x="800" y="649"/>
      <point x="800" y="607" type="curve" smooth="yes"/>
    </contour>
  </outline>
</glyph>
<glyph name="uni17C6" format="2">
  <unicode hex="17C6"/>
  <note>
uni17C6
</note>
  <outline>
    <contour>
      <point x="-310" y="689" type="curve" smooth="yes"/>
      <point x="-246" y="689"/>
      <point x="-195" y="735"/>
      <point x="-195" y="799" type="curve" smooth="yes"/>
      <point x="-195" y="863"/>
      <point x="-246" y="909"/>
      <point x="-310" y="909" type="curve" smooth="yes"/>
      <point x="-374" y="909"/>
      <point x="-425" y="863"/>
      <point x="-425" y="799" type="curve" smooth="yes"/>
      <point x="-425" y="735"/>
      <point x="-374" y="689"/>
    </contour>
    <contour>
      <point x="-310" y="768" type="curve" smooth="yes"/>
      <point x="-327" y="768"/>
      <point x="-341" y="782"/>
      <point x="-341" y="799" type="curve" smooth="yes"/>
      <point x="-341" y="816"/>
      <point x="-327" y="830"/>
      <point x="-310" y="830" type="curve" smooth="yes"/>
      <point x="-293" y="830"/>
      <point x="-279" y="816"/>
      <point x="-279" y="799" type="curve" smooth="yes"/>
      <point x="-279" y="782"/>
      <point x="-293" y="768"/>
    </contour>
  </outline>
</glyph>
<glyph name="uni17C7" format="2">
  <advance width="350"/>
  <unicode hex="17C7"/>
  <note>
uni17C7
</note>
  <outline>
    <contour>
      <point x="175" y="566" type="curve" smooth="yes"/>
      <point x="239" y="566"/>
      <point x="290" y="617"/>
      <point x="290" y="681" type="curve" smooth="yes"/>
      <point x="290" y="745"/>
      <point x="239" y="796"/>
      <point x="175" y="796" type="curve" smooth="yes"/>
      <point x="111" y="796"/>
      <point x="60" y="745"/>
      <point x="60" y="681" type="curve" smooth="yes"/>
      <point x="60" y="617"/>
      <point x="111" y="566"/>
    </contour>
    <contour>
      <point x="175" y="240" type="curve" smooth="yes"/>
      <point x="239" y="240"/>
      <point x="290" y="291"/>
      <point x="290" y="355" type="curve" smooth="yes"/>
      <point x="290" y="419"/>
      <point x="239" y="470"/>
      <point x="175" y="470" type="curve" smooth="yes"/>
      <point x="111" y="470"/>
      <point x="60" y="419"/>
      <point x="60" y="355" type="curve" smooth="yes"/>
      <point x="60" y="291"/>
      <point x="111" y="240"/>
    </contour>
    <contour>
      <point x="175" y="650" type="curve" smooth="yes"/>
      <point x="158" y="650"/>
      <point x="144" y="664"/>
      <point x="144" y="681" type="curve" smooth="yes"/>
      <point x="144" y="698"/>
      <point x="158" y="712"/>
      <point x="175" y="712" type="curve" smooth="yes"/>
      <point x="192" y="712"/>
      <point x="206" y="698"/>
      <point x="206" y="681" type="curve" smooth="yes"/>
      <point x="206" y="664"/>
      <point x="192" y="650"/>
    </contour>
    <contour>
      <point x="175" y="324" type="curve" smooth="yes"/>
      <point x="158" y="324"/>
      <point x="144" y="338"/>
      <point x="144" y="355" type="curve" smooth="yes"/>
      <point x="144" y="372"/>
      <point x="158" y="386"/>
      <point x="175" y="386" type="curve" smooth="yes"/>
      <point x="192" y="386"/>
      <point x="206" y="372"/>
      <point x="206" y="355" type="curve" smooth="yes"/>
      <point x="206" y="338"/>
      <point x="192" y="324"/>
    </contour>
  </outline>
</glyph>
<glyph name="uni17C8" format="2">
  <advance width="255"/>
  <unicode hex="17C8"/>
  <note>
uni17C8
</note>
  <outline>
    <contour>
      <point x="128" y="636" type="curve" smooth="yes"/>
      <point x="160" y="636"/>
      <point x="185" y="662"/>
      <point x="185" y="693" type="curve" smooth="yes"/>
      <point x="185" y="725"/>
      <point x="160" y="751"/>
      <point x="128" y="751" type="curve" smooth="yes"/>
      <point x="96" y="751"/>
      <point x="71" y="725"/>
      <point x="71" y="693" type="curve" smooth="yes"/>
      <point x="71" y="662"/>
      <point x="96" y="636"/>
    </contour>
    <contour>
      <point x="128" y="283" type="curve" smooth="yes"/>
      <point x="160" y="283"/>
      <point x="185" y="309"/>
      <point x="185" y="341" type="curve" smooth="yes"/>
      <point x="185" y="372"/>
      <point x="160" y="398"/>
      <point x="128" y="398" type="curve" smooth="yes"/>
      <point x="96" y="398"/>
      <point x="71" y="372"/>
      <point x="71" y="341" type="curve" smooth="yes"/>
      <point x="71" y="309"/>
      <point x="96" y="283"/>
    </contour>
  </outline>
</glyph>
<glyph name="uni17CA" format="2">
  <unicode hex="17CA"/>
  <note>
uni17CA
</note>
  <outline>
    <contour>
      <point x="-531" y="684" type="line"/>
      <point x="-90" y="684" type="line"/>
      <point x="-90" y="796" type="line"/>
      <point x="-274" y="796" type="line"/>
      <point x="-311" y="746" type="line"/>
      <point x="-347" y="796" type="line"/>
      <point x="-531" y="796" type="line"/>
    </contour>
  </outline>
</glyph>
<glyph name="uni17CC" format="2">
  <unicode hex="17CC"/>
  <note>
uni17CC
</note>
  <outline>
    <contour>
      <point x="-420" y="682" type="line"/>
      <point x="-400" y="698"/>
      <point x="-359" y="730"/>
      <point x="-309" y="730" type="curve" smooth="yes"/>
      <point x="-287" y="730"/>
      <point x="-252" y="724"/>
      <point x="-223" y="688" type="curve"/>
      <point x="-156" y="746" type="line"/>
      <point x="-195" y="795"/>
      <point x="-231" y="811"/>
      <point x="-291" y="810" type="curve"/>
      <point x="-269" y="836"/>
      <point x="-259" y="852"/>
      <point x="-255" y="868" type="curve"/>
      <point x="-336" y="899" type="line"/>
      <point x="-356" y="864"/>
      <point x="-392" y="828"/>
      <point x="-478" y="763" type="curve"/>
    </contour>
  </outline>
</glyph>
<glyph name="uni17CD" format="2">
  <unicode hex="17CD"/>
  <note>
uni17CD
</note>
  <outline>
    <contour>
      <point x="-325" y="684" type="curve" smooth="yes"/>
      <point x="-307" y="684" type="line"/>
      <point x="-307" y="761" type="line"/>
      <point x="-335" y="761" type="line" smooth="yes"/>
      <point x="-342" y="761"/>
      <point x="-347" y="767"/>
      <point x="-347" y="775" type="curve" smooth="yes"/>
      <point x="-347" y="784"/>
      <point x="-342" y="789"/>
      <point x="-333" y="789" type="curve" smooth="yes"/>
      <point x="-280" y="789" type="line" smooth="yes"/>
      <point x="-195" y="789"/>
      <point x="-139" y="825"/>
      <point x="-139" y="910" type="curve"/>
      <point x="-247" y="910" type="line"/>
      <point x="-247" y="894"/>
      <point x="-261" y="879"/>
      <point x="-289" y="879" type="curve" smooth="yes"/>
      <point x="-344" y="879" type="line" smooth="yes"/>
      <point x="-416" y="879"/>
      <point x="-475" y="867"/>
      <point x="-475" y="784" type="curve" smooth="yes"/>
      <point x="-475" y="707"/>
      <point x="-425" y="684"/>
    </contour>
  </outline>
</glyph>
<glyph name="uni17CE" format="2">
  <unicode hex="17CE"/>
  <note>
uni17CE
</note>
  <outline>
    <contour>
      <point x="-361" y="684" type="line"/>
      <point x="-259" y="684" type="line"/>
      <point x="-259" y="740" type="line"/>
      <point x="-192" y="740" type="line"/>
      <point x="-192" y="854" type="line"/>
      <point x="-259" y="854" type="line"/>
      <point x="-259" y="910" type="line"/>
      <point x="-361" y="910" type="line"/>
      <point x="-361" y="854" type="line"/>
      <point x="-428" y="854" type="line"/>
      <point x="-428" y="740" type="line"/>
      <point x="-361" y="740" type="line"/>
    </contour>
  </outline>
</glyph>
<glyph name="uni17CF" format="2">
  <unicode hex="17CF"/>
  <note>
uni17CF
</note>
  <outline>
    <contour>
      <point x="-508" y="684" type="line"/>
      <point x="-375" y="684" type="line"/>
      <point x="-310" y="712" type="line"/>
      <point x="-245" y="684" type="line"/>
      <point x="-110" y="684" type="line"/>
      <point x="-110" y="788" type="line"/>
      <point x="-245" y="788" type="line"/>
      <point x="-245" y="773" type="line"/>
      <point x="-309" y="785" type="line"/>
      <point x="-375" y="774" type="line"/>
      <point x="-375" y="780" type="line" smooth="yes"/>
      <point x="-375" y="796"/>
      <point x="-358" y="799"/>
      <point x="-346" y="799" type="curve" smooth="yes"/>
      <point x="-231" y="799" type="line" smooth="yes"/>
      <point x="-155" y="799"/>
      <point x="-103" y="834"/>
      <point x="-103" y="903" type="curve" smooth="yes"/>
      <point x="-103" y="915" type="line"/>
      <point x="-237" y="915" type="line"/>
      <point x="-237" y="893"/>
      <point x="-268" y="881"/>
      <point x="-315" y="881" type="curve" smooth="yes"/>
      <point x="-371" y="881" type="line" smooth="yes"/>
      <point x="-464" y="881"/>
      <point x="-508" y="839"/>
      <point x="-508" y="766" type="curve" smooth="yes"/>
    </contour>
  </outline>
</glyph>
<glyph name="uni17D0" format="2">
  <unicode hex="17D0"/>
  <note>
uni17D0
</note>
  <outline>
    <contour>
      <point x="-324.8" y="684" type="curve" smooth="yes"/>
      <point x="-188.9" y="684"/>
      <point x="-122.3" y="769"/>
      <point x="-122.3" y="904" type="curve"/>
      <point x="-248.3" y="904" type="line"/>
      <point x="-248.3" y="817"/>
      <point x="-280.7" y="779"/>
      <point x="-323" y="779" type="curve" smooth="yes"/>
      <point x="-347.3" y="779"/>
      <point x="-353.6" y="784"/>
      <point x="-353.6" y="794" type="curve" smooth="yes"/>
      <point x="-353.6" y="804"/>
      <point x="-344.6" y="808"/>
      <point x="-316.7" y="807" type="curve"/>
      <point x="-316.7" y="903" type="line"/>
      <point x="-425.6" y="903"/>
      <point x="-471.5" y="876"/>
      <point x="-471.5" y="797" type="curve" smooth="yes"/>
      <point x="-471.5" y="722"/>
      <point x="-396.8" y="684"/>
    </contour>
  </outline>
</glyph>
<glyph name="uni17D1" format="2">
  <unicode hex="17D1"/>
  <note>
uni17D1
</note>
  <outline>
    <contour>
      <point x="-508" y="684" type="line"/>
      <point x="-87" y="684" type="line"/>
      <point x="-87" y="796" type="line"/>
      <point x="-508" y="796" type="line"/>
    </contour>
  </outline>
</glyph>
<glyph name="uni17D2" format="2">
  <unicode hex="17D2"/>
  <note>
uni17D2
</note>
  <outline>
    <contour>
      <point x="-338" y="-244" type="line"/>
      <point x="-254" y="-244" type="line"/>
      <point x="-254" y="-182" type="line"/>
      <point x="-185" y="-182" type="line"/>
      <point x="-185" y="-86" type="line"/>
      <point x="-254" y="-86" type="line"/>
      <point x="-254" y="-24" type="line"/>
      <point x="-338" y="-24" type="line"/>
      <point x="-338" y="-86" type="line"/>
      <point x="-409" y="-86" type="line"/>
      <point x="-409" y="-182" type="line"/>
      <point x="-338" y="-182" type="line"/>
    </contour>
  </outline>
</glyph>
<glyph name="uni17D3" format="2">
  <unicode hex="17D3"/>
  <note>
uni17D3
</note>
  <outline>
    <contour>
      <point x="-297" y="695" type="curve" smooth="yes"/>
      <point x="-216" y="695"/>
      <point x="-135" y="737"/>
      <point x="-135" y="807" type="curve" smooth="yes"/>
      <point x="-135" y="876"/>
      <point x="-215" y="919"/>
      <point x="-297" y="919" type="curve" smooth="yes"/>
      <point x="-378" y="919"/>
      <point x="-460" y="875"/>
      <point x="-460" y="807" type="curve" smooth="yes"/>
      <point x="-460" y="743"/>
      <point x="-381" y="695"/>
    </contour>
    <contour>
      <point x="-296" y="781" type="curve" smooth="yes"/>
      <point x="-316" y="781"/>
      <point x="-330" y="792"/>
      <point x="-330" y="807" type="curve" smooth="yes"/>
      <point x="-330" y="822"/>
      <point x="-316" y="833"/>
      <point x="-296" y="833" type="curve" smooth="yes"/>
      <point x="-276" y="833"/>
      <point x="-263" y="822"/>
      <point x="-263" y="807" type="curve" smooth="yes"/>
      <point x="-263" y="792"/>
      <point x="-276" y="781"/>
    </contour>
  </outline>
</glyph>
<glyph name="uni17D5" format="2">
  <advance width="649"/>
  <unicode hex="17D5"/>
  <note>
uni17D5
</note>
  <outline>
    <contour>
      <point x="469" y="244" type="line"/>
      <point x="620" y="244" type="line"/>
      <point x="620" y="830" type="line"/>
      <point x="469" y="830" type="line"/>
    </contour>
    <contour>
      <point x="290" y="244" type="line"/>
      <point x="441" y="244" type="line"/>
      <point x="441" y="830" type="line"/>
      <point x="290" y="830" type="line"/>
      <point x="284" y="743"/>
      <point x="249" y="666"/>
      <point x="201" y="666" type="curve" smooth="yes"/>
      <point x="190" y="666"/>
      <point x="180" y="671"/>
      <point x="180" y="683" type="curve" smooth="yes"/>
      <point x="180" y="694"/>
      <point x="189" y="700"/>
      <point x="198" y="700" type="curve" smooth="yes"/>
      <point x="202" y="700" type="line"/>
      <point x="202" y="830" type="line"/>
      <point x="169" y="830" type="line" smooth="yes"/>
      <point x="92" y="830"/>
      <point x="35" y="772"/>
      <point x="35" y="697" type="curve" smooth="yes"/>
      <point x="35" y="600"/>
      <point x="109" y="545"/>
      <point x="182" y="545" type="curve" smooth="yes"/>
      <point x="250" y="545"/>
      <point x="268" y="574"/>
      <point x="290" y="600" type="curve"/>
    </contour>
  </outline>
</glyph>
<glyph name="uni17D6" format="2">
  <advance width="384"/>
  <unicode hex="17D6"/>
  <note>
uni17D6
</note>
  <outline>
    <contour>
      <point x="60" y="489" type="line"/>
      <point x="324" y="489" type="line"/>
      <point x="324" y="593" type="line"/>
      <point x="60" y="593" type="line"/>
    </contour>
    <contour>
      <point x="180" y="243" type="curve" smooth="yes"/>
      <point x="244" y="243"/>
      <point x="295" y="289"/>
      <point x="295" y="353" type="curve" smooth="yes"/>
      <point x="295" y="417"/>
      <point x="244" y="463"/>
      <point x="180" y="463" type="curve" smooth="yes"/>
      <point x="116" y="463"/>
      <point x="65" y="417"/>
      <point x="65" y="353" type="curve" smooth="yes"/>
      <point x="65" y="289"/>
      <point x="116" y="243"/>
    </contour>
    <contour>
      <point x="180" y="322" type="curve" smooth="yes"/>
      <point x="163" y="322"/>
      <point x="149" y="336"/>
      <point x="149" y="353" type="curve" smooth="yes"/>
      <point x="149" y="370"/>
      <point x="163" y="384"/>
      <point x="180" y="384" type="curve" smooth="yes"/>
      <point x="197" y="384"/>
      <point x="211" y="370"/>
      <point x="211" y="353" type="curve" smooth="yes"/>
      <point x="211" y="336"/>
      <point x="197" y="322"/>
    </contour>
    <contour>
      <point x="180" y="619" type="curve" smooth="yes"/>
      <point x="244" y="619"/>
      <point x="295" y="665"/>
      <point x="295" y="729" type="curve" smooth="yes"/>
      <point x="295" y="793"/>
      <point x="244" y="839"/>
      <point x="180" y="839" type="curve" smooth="yes"/>
      <point x="116" y="839"/>
      <point x="65" y="793"/>
      <point x="65" y="729" type="curve" smooth="yes"/>
      <point x="65" y="665"/>
      <point x="116" y="619"/>
    </contour>
    <contour>
      <point x="180" y="698" type="curve" smooth="yes"/>
      <point x="163" y="698"/>
      <point x="149" y="712"/>
      <point x="149" y="729" type="curve" smooth="yes"/>
      <point x="149" y="746"/>
      <point x="163" y="760"/>
      <point x="180" y="760" type="curve" smooth="yes"/>
      <point x="197" y="760"/>
      <point x="211" y="746"/>
      <point x="211" y="729" type="curve" smooth="yes"/>
      <point x="211" y="712"/>
      <point x="197" y="698"/>
    </contour>
  </outline>
</glyph>
<glyph name="uni17D7" format="2">
  <advance width="521"/>
  <unicode hex="17D7"/>
  <note>
uni17D7
</note>
  <outline>
    <contour>
      <point x="211" y="49" type="line"/>
      <point x="224" y="49" type="line" smooth="yes"/>
      <point x="390" y="49"/>
      <point x="432" y="62"/>
      <point x="432" y="190" type="curve" smooth="yes"/>
      <point x="432" y="830" type="line"/>
      <point x="281" y="830" type="line"/>
      <point x="277" y="804"/>
      <point x="261" y="777"/>
      <point x="240" y="777" type="curve" smooth="yes"/>
      <point x="216" y="777"/>
      <point x="195" y="830"/>
      <point x="131" y="830" type="curve" smooth="yes"/>
      <point x="70" y="830"/>
      <point x="12" y="788"/>
      <point x="12" y="700" type="curve" smooth="yes"/>
      <point x="12" y="619"/>
      <point x="50" y="558"/>
      <point x="139" y="558" type="curve" smooth="yes"/>
      <point x="165" y="558" type="line"/>
      <point x="165" y="672" type="line"/>
      <point x="158" y="672" type="line" smooth="yes"/>
      <point x="140" y="672"/>
      <point x="128" y="679"/>
      <point x="128" y="696" type="curve" smooth="yes"/>
      <point x="128" y="708"/>
      <point x="135" y="717"/>
      <point x="150" y="717" type="curve" smooth="yes"/>
      <point x="190" y="717"/>
      <point x="185" y="659"/>
      <point x="237" y="659" type="curve" smooth="yes"/>
      <point x="261" y="659"/>
      <point x="272" y="674"/>
      <point x="279" y="684" type="curve"/>
      <point x="281" y="684" type="line"/>
      <point x="281" y="225" type="line" smooth="yes"/>
      <point x="281" y="196"/>
      <point x="262" y="181"/>
      <point x="223" y="179" type="curve" smooth="yes"/>
      <point x="211" y="179" type="line"/>
    </contour>
  </outline>
</glyph>
<glyph name="uni17D8" format="2">
  <advance width="1797"/>
  <unicode hex="17D8"/>
  <note>
uni17D8
</note>
  <outline>
    <contour>
      <point x="290" y="244" type="line"/>
      <point x="441" y="244" type="line"/>
      <point x="441" y="830" type="line"/>
      <point x="290" y="830" type="line"/>
      <point x="284" y="743"/>
      <point x="249" y="666"/>
      <point x="201" y="666" type="curve" smooth="yes"/>
      <point x="190" y="666"/>
      <point x="180" y="671"/>
      <point x="180" y="683" type="curve" smooth="yes"/>
      <point x="180" y="694"/>
      <point x="189" y="700"/>
      <point x="198" y="700" type="curve" smooth="yes"/>
      <point x="202" y="700" type="line"/>
      <point x="202" y="830" type="line"/>
      <point x="169" y="830" type="line" smooth="yes"/>
      <point x="92" y="830"/>
      <point x="35" y="772"/>
      <point x="35" y="697" type="curve" smooth="yes"/>
      <point x="35" y="600"/>
      <point x="109" y="545"/>
      <point x="182" y="545" type="curve" smooth="yes"/>
      <point x="250" y="545"/>
      <point x="268" y="574"/>
      <point x="290" y="600" type="curve"/>
    </contour>
    <contour>
      <point x="1237" y="572" type="line"/>
      <point x="1086" y="572" type="line"/>
      <point x="1086" y="412" type="line" smooth="yes"/>
      <point x="1086" y="381"/>
      <point x="1067" y="356"/>
      <point x="1028" y="356" type="curve" smooth="yes"/>
      <point x="989" y="356"/>
      <point x="970" y="381"/>
      <point x="970" y="412" type="curve" smooth="yes"/>
      <point x="970" y="622" type="line" smooth="yes"/>
      <point x="970" y="727"/>
      <point x="900" y="780"/>
      <point x="761" y="780" type="curve" smooth="yes"/>
      <point x="621" y="780"/>
      <point x="551" y="727"/>
      <point x="551" y="622" type="curve" smooth="yes"/>
      <point x="551" y="495" type="line"/>
      <point x="702" y="495" type="line"/>
      <point x="702" y="612" type="line" smooth="yes"/>
      <point x="702" y="643"/>
      <point x="722" y="668"/>
      <point x="761" y="668" type="curve" smooth="yes"/>
      <point x="800" y="668"/>
      <point x="820" y="643"/>
      <point x="820" y="612" type="curve" smooth="yes"/>
      <point x="820" y="402" type="line" smooth="yes"/>
      <point x="820" y="297"/>
      <point x="889" y="244"/>
      <point x="1028" y="244" type="curve" smooth="yes"/>
      <point x="1165" y="244"/>
      <point x="1237" y="297"/>
      <point x="1237" y="402" type="curve" smooth="yes"/>
    </contour>
    <contour>
      <point x="551" y="503" type="line"/>
      <point x="551" y="314" type="line" smooth="yes"/>
      <point x="551" y="263"/>
      <point x="569" y="244"/>
      <point x="633" y="244" type="curve" smooth="yes"/>
      <point x="680" y="244" type="line" smooth="yes"/>
      <point x="758" y="244"/>
      <point x="807" y="296"/>
      <point x="807" y="369" type="curve" smooth="yes"/>
      <point x="807" y="454"/>
      <point x="768" y="485"/>
      <point x="702" y="485" type="curve"/>
      <point x="702" y="503" type="line" smooth="yes"/>
    </contour>
    <contour>
      <point x="702" y="324" type="curve"/>
      <point x="702" y="408" type="line"/>
      <point x="714" y="408"/>
      <point x="726" y="396"/>
      <point x="726" y="371" type="curve" smooth="yes"/>
      <point x="726" y="344"/>
      <point x="713" y="324"/>
    </contour>
    <contour>
      <point x="1086" y="548" type="line"/>
      <point x="1237" y="548" type="line"/>
      <point x="1237" y="604" type="line"/>
      <point x="1181" y="667" type="line"/>
      <point x="1181" y="668" type="line"/>
      <point x="1245" y="668" type="line"/>
      <point x="1245" y="780" type="line"/>
      <point x="1094" y="780" type="line"/>
      <point x="1044" y="705"/>
      <point x="1026" y="678"/>
      <point x="1026" y="667" type="curve" smooth="yes"/>
      <point x="1026" y="656"/>
      <point x="1058" y="618"/>
      <point x="1086" y="585" type="curve"/>
    </contour>
    <contour>
      <point x="1567" y="244" type="line"/>
      <point x="1718" y="244" type="line"/>
      <point x="1718" y="830" type="line"/>
      <point x="1567" y="830" type="line"/>
      <point x="1561" y="743"/>
      <point x="1526" y="666"/>
      <point x="1478" y="666" type="curve" smooth="yes"/>
      <point x="1467" y="666"/>
      <point x="1457" y="671"/>
      <point x="1457" y="683" type="curve" smooth="yes"/>
      <point x="1457" y="694"/>
      <point x="1466" y="700"/>
      <point x="1475" y="700" type="curve" smooth="yes"/>
      <point x="1479" y="700" type="line"/>
      <point x="1479" y="830" type="line"/>
      <point x="1446" y="830" type="line" smooth="yes"/>
      <point x="1369" y="830"/>
      <point x="1312" y="772"/>
      <point x="1312" y="697" type="curve" smooth="yes"/>
      <point x="1312" y="600"/>
      <point x="1386" y="545"/>
      <point x="1459" y="545" type="curve" smooth="yes"/>
      <point x="1527" y="545"/>
      <point x="1545" y="574"/>
      <point x="1567" y="600" type="curve"/>
    </contour>
  </outline>
</glyph>
<glyph name="uni17D9" format="2">
  <advance width="576"/>
  <unicode hex="17D9"/>
  <note>
uni17D9
</note>
  <outline>
    <contour>
      <point x="287" y="226" type="curve" smooth="yes"/>
      <point x="439" y="226"/>
      <point x="542" y="347"/>
      <point x="542" y="537" type="curve" smooth="yes"/>
      <point x="542" y="727"/>
      <point x="442" y="848"/>
      <point x="287" y="848" type="curve" smooth="yes"/>
      <point x="132" y="848"/>
      <point x="34" y="725"/>
      <point x="34" y="537" type="curve" smooth="yes"/>
      <point x="34" y="350"/>
      <point x="133" y="226"/>
    </contour>
    <contour>
      <point x="287" y="324" type="curve" smooth="yes"/>
      <point x="188" y="324"/>
      <point x="141" y="394"/>
      <point x="141" y="537" type="curve" smooth="yes"/>
      <point x="141" y="680"/>
      <point x="188" y="750"/>
      <point x="287" y="750" type="curve" smooth="yes"/>
      <point x="386" y="750"/>
      <point x="435" y="679"/>
      <point x="435" y="537" type="curve" smooth="yes"/>
      <point x="435" y="395"/>
      <point x="386" y="324"/>
    </contour>
    <contour>
      <point x="287" y="348" type="curve" smooth="yes"/>
      <point x="364" y="348"/>
      <point x="410" y="409"/>
      <point x="410" y="537" type="curve" smooth="yes"/>
      <point x="410" y="665"/>
      <point x="364" y="726"/>
      <point x="287" y="726" type="curve" smooth="yes"/>
      <point x="212" y="726"/>
      <point x="165" y="665"/>
      <point x="165" y="537" type="curve" smooth="yes"/>
      <point x="165" y="409"/>
      <point x="212" y="348"/>
    </contour>
    <contour>
      <point x="287" y="439" type="curve" smooth="yes"/>
      <point x="258" y="439"/>
      <point x="251" y="472"/>
      <point x="251" y="537" type="curve" smooth="yes"/>
      <point x="251" y="598"/>
      <point x="257" y="633"/>
      <point x="287" y="633" type="curve" smooth="yes"/>
      <point x="318" y="633"/>
      <point x="325" y="601"/>
      <point x="325" y="537" type="curve" smooth="yes"/>
      <point x="325" y="477"/>
      <point x="318" y="439"/>
    </contour>
  </outline>
</glyph>
<glyph name="uni17DA" format="2">
  <advance width="1137"/>
  <unicode hex="17DA"/>
  <note>
uni17DA
</note>
  <outline>
    <contour>
      <point x="279" y="244" type="curve" smooth="yes"/>
      <point x="394" y="244"/>
      <point x="457" y="327"/>
      <point x="524" y="509" type="curve" smooth="yes"/>
      <point x="573" y="644" type="line"/>
      <point x="651" y="279" type="line"/>
      <point x="778" y="279" type="line"/>
      <point x="832" y="589" type="line"/>
      <point x="879" y="350" type="line"/>
      <point x="983" y="350" type="line"/>
      <point x="1026" y="481" type="line"/>
      <point x="1087" y="481" type="line"/>
      <point x="1087" y="588" type="line"/>
      <point x="976" y="588" type="line"/>
      <point x="938" y="477" type="line"/>
      <point x="888" y="740" type="line"/>
      <point x="776" y="740" type="line"/>
      <point x="716" y="434" type="line"/>
      <point x="626" y="793" type="line"/>
      <point x="542" y="793" type="line"/>
      <point x="430" y="536" type="line" smooth="yes"/>
      <point x="376" y="412"/>
      <point x="354" y="361"/>
      <point x="291" y="361" type="curve" smooth="yes"/>
      <point x="212" y="361"/>
      <point x="185" y="448"/>
      <point x="185" y="539" type="curve" smooth="yes"/>
      <point x="185" y="653"/>
      <point x="218" y="713"/>
      <point x="276" y="713" type="curve" smooth="yes"/>
      <point x="304" y="713"/>
      <point x="318" y="698"/>
      <point x="318" y="674" type="curve" smooth="yes"/>
      <point x="318" y="650"/>
      <point x="302" y="632"/>
      <point x="266" y="632" type="curve"/>
      <point x="266" y="532" type="line"/>
      <point x="357" y="532"/>
      <point x="411" y="589"/>
      <point x="411" y="684" type="curve" smooth="yes"/>
      <point x="411" y="773"/>
      <point x="359" y="828"/>
      <point x="269" y="828" type="curve" smooth="yes"/>
      <point x="130" y="828"/>
      <point x="34" y="715"/>
      <point x="34" y="540" type="curve" smooth="yes"/>
      <point x="34" y="361"/>
      <point x="153" y="244"/>
    </contour>
  </outline>
</glyph>
<glyph name="uni17DC" format="2">
  <advance width="597"/>
  <unicode hex="17DC"/>
  <note>
uni17DC
</note>
  <outline>
    <contour>
      <point x="277" y="244" type="curve" smooth="yes"/>
      <point x="422" y="244"/>
      <point x="517" y="335"/>
      <point x="517" y="433" type="curve" smooth="yes"/>
      <point x="517" y="533"/>
      <point x="418" y="568"/>
      <point x="333" y="594" type="curve" smooth="yes"/>
      <point x="265" y="615"/>
      <point x="231" y="623"/>
      <point x="231" y="677" type="curve" smooth="yes"/>
      <point x="231" y="731"/>
      <point x="262" y="752"/>
      <point x="314" y="752" type="curve" smooth="yes"/>
      <point x="343" y="752"/>
      <point x="373" y="744"/>
      <point x="373" y="722" type="curve" smooth="yes"/>
      <point x="373" y="711"/>
      <point x="365" y="704"/>
      <point x="356" y="704" type="curve"/>
      <point x="356" y="612" type="line"/>
      <point x="405" y="612"/>
      <point x="512" y="647"/>
      <point x="512" y="727" type="curve" smooth="yes"/>
      <point x="512" y="793"/>
      <point x="438" y="864"/>
      <point x="306" y="864" type="curve" smooth="yes"/>
      <point x="176" y="864"/>
      <point x="80" y="784"/>
      <point x="80" y="683" type="curve" smooth="yes"/>
      <point x="80" y="585"/>
      <point x="173" y="539"/>
      <point x="266" y="508" type="curve" smooth="yes"/>
      <point x="348" y="481"/>
      <point x="367" y="461"/>
      <point x="367" y="429" type="curve" smooth="yes"/>
      <point x="367" y="385"/>
      <point x="333" y="356"/>
      <point x="277" y="356" type="curve" smooth="yes"/>
      <point x="236" y="356"/>
      <point x="209" y="365"/>
      <point x="209" y="387" type="curve" smooth="yes"/>
      <point x="209" y="399"/>
      <point x="218" y="407"/>
      <point x="233" y="407" type="curve"/>
      <point x="233" y="499" type="line"/>
      <point x="166" y="499"/>
      <point x="80" y="463"/>
      <point x="80" y="382" type="curve" smooth="yes"/>
      <point x="80" y="312"/>
      <point x="144" y="244"/>
    </contour>
  </outline>
</glyph>
<glyph name="uni17DD" format="2">
  <unicode hex="17DD"/>
  <note>
uni17DD
</note>
  <outline>
    <contour>
      <point x="-521" y="685" type="curve"/>
      <point x="-387" y="685" type="line"/>
      <point x="-387" y="730"/>
      <point x="-364" y="754"/>
      <point x="-310" y="754" type="curve" smooth="yes"/>
      <point x="-256" y="754"/>
      <point x="-232" y="730"/>
      <point x="-232" y="685" type="curve"/>
      <point x="-98" y="685" type="line"/>
      <point x="-98" y="823"/>
      <point x="-200" y="856"/>
      <point x="-310" y="856" type="curve" smooth="yes"/>
      <point x="-420" y="856"/>
      <point x="-521" y="823"/>
    </contour>
  </outline>
</glyph>
<glyph name="uni17E0" format="2">
  <advance width="561"/>
  <unicode hex="17E0"/>
  <note>
uni17E0
</note>
  <outline>
    <contour>
      <point x="280" y="244" type="curve" smooth="yes"/>
      <point x="428" y="244"/>
      <point x="501" y="306"/>
      <point x="501" y="430" type="curve" smooth="yes"/>
      <point x="501" y="644" type="line" smooth="yes"/>
      <point x="501" y="768"/>
      <point x="428" y="830"/>
      <point x="280" y="830" type="curve" smooth="yes"/>
      <point x="133" y="830"/>
      <point x="60" y="768"/>
      <point x="60" y="644" type="curve" smooth="yes"/>
      <point x="60" y="430" type="line" smooth="yes"/>
      <point x="60" y="306"/>
      <point x="133" y="244"/>
    </contour>
    <contour>
      <point x="280" y="356" type="curve" smooth="yes"/>
      <point x="234" y="356"/>
      <point x="211" y="381"/>
      <point x="211" y="430" type="curve" smooth="yes"/>
      <point x="211" y="644" type="line" smooth="yes"/>
      <point x="211" y="693"/>
      <point x="234" y="718"/>
      <point x="280" y="718" type="curve" smooth="yes"/>
      <point x="328" y="718"/>
      <point x="351" y="693"/>
      <point x="351" y="644" type="curve" smooth="yes"/>
      <point x="351" y="430" type="line" smooth="yes"/>
      <point x="351" y="381"/>
      <point x="328" y="356"/>
    </contour>
  </outline>
</glyph>
<glyph name="uni17E1" format="2">
  <advance width="561"/>
  <unicode hex="17E1"/>
  <note>
uni17E1
</note>
  <outline>
    <contour>
      <point x="280" y="244" type="curve" smooth="yes"/>
      <point x="428" y="244"/>
      <point x="501" y="296"/>
      <point x="501" y="400" type="curve" smooth="yes"/>
      <point x="501" y="674" type="line" smooth="yes"/>
      <point x="501" y="778"/>
      <point x="428" y="830"/>
      <point x="280" y="830" type="curve" smooth="yes"/>
      <point x="133" y="830"/>
      <point x="60" y="778"/>
      <point x="60" y="674" type="curve" smooth="yes"/>
      <point x="60" y="615" type="line" smooth="yes"/>
      <point x="60" y="514"/>
      <point x="115" y="497"/>
      <point x="185" y="497" type="curve" smooth="yes"/>
      <point x="280" y="497" type="line"/>
      <point x="280" y="626" type="line"/>
      <point x="243" y="626" type="line" smooth="yes"/>
      <point x="211" y="626"/>
      <point x="211" y="647"/>
      <point x="211" y="665" type="curve" smooth="yes"/>
      <point x="211" y="674" type="line" smooth="yes"/>
      <point x="211" y="703"/>
      <point x="234" y="718"/>
      <point x="280" y="718" type="curve" smooth="yes"/>
      <point x="328" y="718"/>
      <point x="351" y="703"/>
      <point x="351" y="674" type="curve" smooth="yes"/>
      <point x="351" y="400" type="line" smooth="yes"/>
      <point x="351" y="371"/>
      <point x="328" y="356"/>
      <point x="280" y="356" type="curve" smooth="yes"/>
      <point x="234" y="356"/>
      <point x="211" y="371"/>
      <point x="211" y="400" type="curve"/>
      <point x="60" y="400" type="line"/>
      <point x="60" y="296"/>
      <point x="133" y="244"/>
    </contour>
  </outline>
</glyph>
<glyph name="uni17E2" format="2">
  <advance width="729"/>
  <unicode hex="17E2"/>
  <note>
uni17E2
</note>
  <outline>
    <contour>
      <point x="376" y="244" type="curve" smooth="yes"/>
      <point x="572" y="244"/>
      <point x="669" y="309"/>
      <point x="669" y="439" type="curve" smooth="yes"/>
      <point x="669" y="830" type="line"/>
      <point x="518" y="830" type="line"/>
      <point x="472" y="788" type="line"/>
      <point x="426" y="830" type="line"/>
      <point x="275" y="830" type="line"/>
      <point x="275" y="537" type="line"/>
      <point x="441" y="537" type="line"/>
      <point x="441" y="649" type="line"/>
      <point x="426" y="649" type="line"/>
      <point x="426" y="703" type="line"/>
      <point x="472" y="663" type="line"/>
      <point x="518" y="703" type="line"/>
      <point x="518" y="439" type="line" smooth="yes"/>
      <point x="518" y="383"/>
      <point x="472" y="356"/>
      <point x="376" y="356" type="curve" smooth="yes"/>
      <point x="280" y="356"/>
      <point x="232" y="384"/>
      <point x="232" y="439" type="curve" smooth="yes"/>
      <point x="232" y="908" type="line" smooth="yes"/>
      <point x="232" y="939"/>
      <point x="221" y="952"/>
      <point x="179" y="952" type="curve" smooth="yes"/>
      <point x="40" y="952" type="line"/>
      <point x="40" y="840" type="line"/>
      <point x="81" y="840" type="line"/>
      <point x="81" y="439" type="line" smooth="yes"/>
      <point x="81" y="309"/>
      <point x="179" y="244"/>
    </contour>
  </outline>
</glyph>
<glyph name="uni17E3" format="2">
  <advance width="748"/>
  <unicode hex="17E3"/>
  <note>
uni17E3
</note>
  <outline>
    <contour>
      <point x="60" y="244" type="line"/>
      <point x="243" y="244" type="line"/>
      <point x="243" y="356" type="line"/>
      <point x="211" y="356" type="line"/>
      <point x="211" y="667" type="line" smooth="yes"/>
      <point x="211" y="702"/>
      <point x="226" y="718"/>
      <point x="255" y="718" type="curve" smooth="yes"/>
      <point x="284" y="718"/>
      <point x="299" y="702"/>
      <point x="299" y="667" type="curve" smooth="yes"/>
      <point x="299" y="244" type="line"/>
      <point x="449" y="244" type="line"/>
      <point x="449" y="667" type="line" smooth="yes"/>
      <point x="449" y="702"/>
      <point x="464" y="718"/>
      <point x="494" y="718" type="curve" smooth="yes"/>
      <point x="523" y="718"/>
      <point x="538" y="702"/>
      <point x="538" y="667" type="curve" smooth="yes"/>
      <point x="538" y="244" type="line"/>
      <point x="688" y="244" type="line"/>
      <point x="688" y="654" type="line" smooth="yes"/>
      <point x="688" y="771"/>
      <point x="623" y="830"/>
      <point x="494" y="830" type="curve" smooth="yes"/>
      <point x="440" y="830"/>
      <point x="400" y="815"/>
      <point x="374" y="786" type="curve"/>
      <point x="348" y="815"/>
      <point x="308" y="830"/>
      <point x="255" y="830" type="curve" smooth="yes"/>
      <point x="125" y="830"/>
      <point x="60" y="773"/>
      <point x="60" y="659" type="curve" smooth="yes"/>
    </contour>
  </outline>
</glyph>
<glyph name="uni17E4" format="2">
  <advance width="588"/>
  <unicode hex="17E4"/>
  <note>
uni17E4
</note>
  <outline>
    <contour>
      <point x="301" y="244" type="curve" smooth="yes"/>
      <point x="500" y="244" type="line"/>
      <point x="528" y="333" type="line"/>
      <point x="471" y="487" type="line"/>
      <point x="471" y="571" type="line"/>
      <point x="522" y="571" type="line"/>
      <point x="522" y="702" type="line"/>
      <point x="476" y="702" type="line" smooth="yes"/>
      <point x="393" y="702"/>
      <point x="322" y="698"/>
      <point x="322" y="635" type="curve" smooth="yes"/>
      <point x="322" y="463" type="line"/>
      <point x="394" y="356" type="line"/>
      <point x="301" y="356" type="line" smooth="yes"/>
      <point x="255" y="356"/>
      <point x="232" y="384"/>
      <point x="232" y="439" type="curve" smooth="yes"/>
      <point x="232" y="874" type="line" smooth="yes"/>
      <point x="232" y="923"/>
      <point x="213" y="947"/>
      <point x="169" y="947" type="curve" smooth="yes"/>
      <point x="40" y="947" type="line"/>
      <point x="40" y="835" type="line"/>
      <point x="81" y="835" type="line"/>
      <point x="81" y="439" type="line" smooth="yes"/>
      <point x="81" y="309"/>
      <point x="154" y="244"/>
    </contour>
  </outline>
</glyph>
<glyph name="uni17E5" format="2">
  <advance width="548"/>
  <unicode hex="17E5"/>
  <note>
uni17E5
</note>
  <outline>
    <contour>
      <point x="280" y="244" type="curve" smooth="yes"/>
      <point x="478" y="244" type="line"/>
      <point x="508" y="333" type="line"/>
      <point x="452" y="438" type="line"/>
      <point x="452" y="504" type="line"/>
      <point x="501" y="504" type="line"/>
      <point x="501" y="635" type="line"/>
      <point x="378" y="635" type="line" smooth="yes"/>
      <point x="323" y="635"/>
      <point x="301" y="612"/>
      <point x="301" y="537" type="curve" smooth="yes"/>
      <point x="301" y="424" type="line"/>
      <point x="365" y="356" type="line"/>
      <point x="280" y="356" type="line" smooth="yes"/>
      <point x="234" y="356"/>
      <point x="211" y="372"/>
      <point x="211" y="405" type="curve" smooth="yes"/>
      <point x="211" y="614" type="line" smooth="yes"/>
      <point x="211" y="653"/>
      <point x="219" y="684"/>
      <point x="228" y="696" type="curve"/>
      <point x="258" y="679"/>
      <point x="281" y="668"/>
      <point x="323" y="668" type="curve" smooth="yes"/>
      <point x="447" y="668"/>
      <point x="502" y="733"/>
      <point x="502" y="834" type="curve" smooth="yes"/>
      <point x="502" y="948" type="line"/>
      <point x="351" y="948" type="line"/>
      <point x="351" y="813" type="line" smooth="yes"/>
      <point x="351" y="784"/>
      <point x="337" y="773"/>
      <point x="325" y="770" type="curve" smooth="yes"/>
      <point x="315" y="767"/>
      <point x="301" y="769"/>
      <point x="281" y="779" type="curve"/>
      <point x="290" y="796"/>
      <point x="299" y="806"/>
      <point x="299" y="845" type="curve" smooth="yes"/>
      <point x="299" y="894"/>
      <point x="258" y="942"/>
      <point x="198" y="942" type="curve" smooth="yes"/>
      <point x="137" y="942"/>
      <point x="92" y="895"/>
      <point x="92" y="845" type="curve" smooth="yes"/>
      <point x="92" y="803"/>
      <point x="103" y="785"/>
      <point x="116" y="764" type="curve"/>
      <point x="67" y="725"/>
      <point x="60" y="681"/>
      <point x="60" y="614" type="curve" smooth="yes"/>
      <point x="60" y="405" type="line" smooth="yes"/>
      <point x="60" y="298"/>
      <point x="133" y="244"/>
    </contour>
  </outline>
</glyph>
<glyph name="uni17E6" format="2">
  <advance width="562"/>
  <unicode hex="17E6"/>
  <note>
uni17E6
</note>
  <outline>
    <contour>
      <point x="280" y="244" type="curve" smooth="yes"/>
      <point x="428" y="244"/>
      <point x="502" y="309"/>
      <point x="502" y="439" type="curve" smooth="yes"/>
      <point x="502" y="635" type="line" smooth="yes"/>
      <point x="502" y="765"/>
      <point x="428" y="844"/>
      <point x="305" y="844" type="curve" smooth="yes"/>
      <point x="256" y="844"/>
      <point x="224" y="822"/>
      <point x="211" y="804" type="curve"/>
      <point x="211" y="948" type="line"/>
      <point x="60" y="948" type="line"/>
      <point x="60" y="664" type="line"/>
      <point x="211" y="664" type="line"/>
      <point x="218" y="700"/>
      <point x="236" y="718"/>
      <point x="280" y="718" type="curve" smooth="yes"/>
      <point x="326" y="718"/>
      <point x="351" y="688"/>
      <point x="351" y="635" type="curve" smooth="yes"/>
      <point x="351" y="479" type="line" smooth="yes"/>
      <point x="351" y="422"/>
      <point x="328" y="386"/>
      <point x="280" y="386" type="curve" smooth="yes"/>
      <point x="234" y="386"/>
      <point x="211" y="411"/>
      <point x="211" y="447" type="curve" smooth="yes"/>
      <point x="211" y="477"/>
      <point x="221" y="514"/>
      <point x="273" y="514" type="curve" smooth="yes"/>
      <point x="301" y="514" type="line"/>
      <point x="301" y="626" type="line"/>
      <point x="240" y="626" type="line" smooth="yes"/>
      <point x="120" y="626"/>
      <point x="60" y="554"/>
      <point x="60" y="444" type="curve" smooth="yes"/>
      <point x="60" y="333"/>
      <point x="133" y="244"/>
    </contour>
  </outline>
</glyph>
<glyph name="uni17E7" format="2">
  <advance width="721"/>
  <unicode hex="17E7"/>
  <note>
uni17E7
</note>
  <outline>
    <contour>
      <point x="60" y="244" type="line"/>
      <point x="240" y="244" type="line"/>
      <point x="240" y="356" type="line"/>
      <point x="211" y="356" type="line"/>
      <point x="211" y="668" type="line" smooth="yes"/>
      <point x="211" y="682"/>
      <point x="213" y="696"/>
      <point x="221" y="696" type="curve" smooth="yes"/>
      <point x="227" y="696"/>
      <point x="234" y="686"/>
      <point x="248" y="666" type="curve" smooth="yes"/>
      <point x="254" y="656"/>
      <point x="262" y="651"/>
      <point x="270" y="651" type="curve" smooth="yes"/>
      <point x="278" y="651"/>
      <point x="286" y="656"/>
      <point x="293" y="666" type="curve" smooth="yes"/>
      <point x="303" y="678"/>
      <point x="311" y="696"/>
      <point x="319" y="696" type="curve" smooth="yes"/>
      <point x="327" y="696"/>
      <point x="329" y="686"/>
      <point x="329" y="668" type="curve" smooth="yes"/>
      <point x="329" y="386" type="line" smooth="yes"/>
      <point x="329" y="313"/>
      <point x="386" y="244"/>
      <point x="496" y="244" type="curve" smooth="yes"/>
      <point x="605" y="244"/>
      <point x="661" y="311"/>
      <point x="661" y="386" type="curve" smooth="yes"/>
      <point x="661" y="944" type="line"/>
      <point x="510" y="944" type="line"/>
      <point x="510" y="377" type="line" smooth="yes"/>
      <point x="510" y="366"/>
      <point x="507" y="356"/>
      <point x="495" y="356" type="curve" smooth="yes"/>
      <point x="483" y="356"/>
      <point x="480" y="366"/>
      <point x="480" y="377" type="curve" smooth="yes"/>
      <point x="480" y="646" type="line" smooth="yes"/>
      <point x="480" y="789"/>
      <point x="447" y="830"/>
      <point x="374" y="830" type="curve" smooth="yes"/>
      <point x="331" y="830"/>
      <point x="299" y="810"/>
      <point x="270" y="769" type="curve"/>
      <point x="242" y="810"/>
      <point x="220" y="830"/>
      <point x="166" y="830" type="curve" smooth="yes"/>
      <point x="103" y="830"/>
      <point x="60" y="789"/>
      <point x="60" y="663" type="curve" smooth="yes"/>
    </contour>
  </outline>
</glyph>
<glyph name="uni17E8" format="2">
  <advance width="562"/>
  <unicode hex="17E8"/>
  <note>
uni17E8
</note>
  <outline>
    <contour>
      <point x="60" y="244" type="line"/>
      <point x="187" y="244" type="line"/>
      <point x="281" y="327" type="line"/>
      <point x="375" y="244" type="line"/>
      <point x="502" y="244" type="line"/>
      <point x="502" y="545" type="line" smooth="yes"/>
      <point x="502" y="598"/>
      <point x="496" y="630"/>
      <point x="430" y="630" type="curve" smooth="yes"/>
      <point x="309" y="630" type="line"/>
      <point x="309" y="518" type="line"/>
      <point x="330" y="518" type="line" smooth="yes"/>
      <point x="344" y="518"/>
      <point x="351" y="514"/>
      <point x="351" y="488" type="curve" smooth="yes"/>
      <point x="351" y="409" type="line"/>
      <point x="281" y="475" type="line"/>
      <point x="211" y="408" type="line"/>
      <point x="211" y="674" type="line" smooth="yes"/>
      <point x="211" y="703"/>
      <point x="234" y="718"/>
      <point x="280" y="718" type="curve" smooth="yes"/>
      <point x="328" y="718"/>
      <point x="351" y="703"/>
      <point x="351" y="674" type="curve"/>
      <point x="501" y="674" type="line"/>
      <point x="501" y="938" type="line"/>
      <point x="351" y="938" type="line"/>
      <point x="351" y="804" type="line"/>
      <point x="325" y="821"/>
      <point x="288" y="830"/>
      <point x="237" y="830" type="curve" smooth="yes"/>
      <point x="119" y="830"/>
      <point x="60" y="778"/>
      <point x="60" y="674" type="curve" smooth="yes"/>
    </contour>
  </outline>
</glyph>
<glyph name="uni17E9" format="2">
  <advance width="561"/>
  <unicode hex="17E9"/>
  <note>
uni17E9
</note>
  <outline>
    <contour>
      <point x="280" y="244" type="curve" smooth="yes"/>
      <point x="428" y="244"/>
      <point x="493" y="303"/>
      <point x="493" y="387" type="curve" smooth="yes"/>
      <point x="493" y="463"/>
      <point x="454" y="503"/>
      <point x="352" y="503" type="curve" smooth="yes"/>
      <point x="290" y="503" type="line"/>
      <point x="290" y="422" type="line"/>
      <point x="300" y="422" type="line" smooth="yes"/>
      <point x="324" y="422"/>
      <point x="343" y="415"/>
      <point x="343" y="393" type="curve" smooth="yes"/>
      <point x="343" y="365"/>
      <point x="315" y="356"/>
      <point x="273" y="356" type="curve" smooth="yes"/>
      <point x="236" y="356"/>
      <point x="211" y="367"/>
      <point x="211" y="390" type="curve" smooth="yes"/>
      <point x="211" y="478" type="line" smooth="yes"/>
      <point x="211" y="518"/>
      <point x="234" y="533"/>
      <point x="262" y="533" type="curve" smooth="yes"/>
      <point x="403" y="533" type="line"/>
      <point x="403" y="645" type="line"/>
      <point x="242" y="645" type="line" smooth="yes"/>
      <point x="225" y="645"/>
      <point x="209" y="652"/>
      <point x="209" y="679" type="curve" smooth="yes"/>
      <point x="209" y="715"/>
      <point x="242" y="729"/>
      <point x="282" y="729" type="curve" smooth="yes"/>
      <point x="328" y="729"/>
      <point x="343" y="716"/>
      <point x="351" y="704" type="curve"/>
      <point x="501" y="704" type="line"/>
      <point x="501" y="944" type="line"/>
      <point x="351" y="944" type="line"/>
      <point x="351" y="811" type="line"/>
      <point x="337" y="823"/>
      <point x="305" y="840"/>
      <point x="244" y="840" type="curve" smooth="yes"/>
      <point x="122" y="840"/>
      <point x="60" y="781"/>
      <point x="60" y="693" type="curve" smooth="yes"/>
      <point x="60" y="640"/>
      <point x="80" y="607"/>
      <point x="131" y="593" type="curve"/>
      <point x="80" y="579"/>
      <point x="60" y="537"/>
      <point x="60" y="466" type="curve" smooth="yes"/>
      <point x="60" y="405" type="line" smooth="yes"/>
      <point x="60" y="309"/>
      <point x="133" y="244"/>
    </contour>
  </outline>
</glyph>
<glyph name="uni17F0" format="2">
  <advance width="336"/>
  <unicode hex="17F0"/>
  <note>
uni17F0
</note>
  <outline>
    <contour>
      <point x="167" y="237" type="curve" smooth="yes"/>
      <point x="272" y="237"/>
      <point x="308" y="326"/>
      <point x="308" y="415" type="curve" smooth="yes"/>
      <point x="308" y="504"/>
      <point x="272" y="593"/>
      <point x="167" y="593" type="curve" smooth="yes"/>
      <point x="63" y="593"/>
      <point x="28" y="504"/>
      <point x="28" y="415" type="curve" smooth="yes"/>
      <point x="28" y="326"/>
      <point x="63" y="237"/>
    </contour>
    <contour>
      <point x="167" y="348" type="curve" smooth="yes"/>
      <point x="148" y="348"/>
      <point x="134" y="375"/>
      <point x="134" y="415" type="curve" smooth="yes"/>
      <point x="134" y="455"/>
      <point x="148" y="482"/>
      <point x="167" y="482" type="curve" smooth="yes"/>
      <point x="186" y="482"/>
      <point x="200" y="455"/>
      <point x="200" y="415" type="curve" smooth="yes"/>
      <point x="200" y="374"/>
      <point x="186" y="348"/>
    </contour>
  </outline>
</glyph>
<glyph name="uni17F1" format="2">
  <advance width="370"/>
  <unicode hex="17F1"/>
  <note>
uni17F1
</note>
  <outline>
    <contour>
      <point x="12" y="244" type="line"/>
      <point x="120" y="244" type="line"/>
      <point x="185" y="464" type="line"/>
      <point x="250" y="244" type="line"/>
      <point x="358" y="244" type="line"/>
      <point x="260" y="586" type="line"/>
      <point x="110" y="586" type="line"/>
    </contour>
  </outline>
</glyph>
<glyph name="uni17F2" format="2">
  <advance width="150"/>
  <unicode hex="17F2"/>
  <note>
uni17F2
</note>
  <outline>
    <contour>
      <point x="21" y="244" type="line"/>
      <point x="129" y="244" type="line"/>
      <point x="129" y="586" type="line"/>
      <point x="21" y="586" type="line"/>
    </contour>
  </outline>
</glyph>
<glyph name="uni17F4" format="2">
  <advance width="370"/>
  <unicode hex="17F4"/>
  <note>
uni17F4
</note>
  <outline>
    <contour>
      <point x="110" y="244" type="line"/>
      <point x="260" y="244" type="line"/>
      <point x="358" y="586" type="line"/>
      <point x="250" y="586" type="line"/>
      <point x="185" y="366" type="line"/>
      <point x="120" y="586" type="line"/>
      <point x="12" y="586" type="line"/>
    </contour>
  </outline>
</glyph>
<glyph name="uni17F5" format="2">
  <advance width="333"/>
  <unicode hex="17F5"/>
  <note>
uni17F5
</note>
  <outline>
    <contour>
      <point x="166" y="225" type="curve" smooth="yes"/>
      <point x="239" y="225"/>
      <point x="298" y="270"/>
      <point x="298" y="342" type="curve" smooth="yes"/>
      <point x="298" y="379"/>
      <point x="287" y="419"/>
      <point x="224" y="475" type="curve"/>
      <point x="320" y="586" type="line"/>
      <point x="211" y="586" type="line"/>
      <point x="165" y="535" type="line"/>
      <point x="121" y="586" type="line"/>
      <point x="13" y="586" type="line"/>
      <point x="106" y="475" type="line"/>
      <point x="50" y="419"/>
      <point x="32" y="382"/>
      <point x="32" y="342" type="curve" smooth="yes"/>
      <point x="32" y="270"/>
      <point x="92" y="225"/>
    </contour>
    <contour>
      <point x="134" y="342" type="curve" smooth="yes"/>
      <point x="134" y="363"/>
      <point x="144" y="377"/>
      <point x="165" y="406" type="curve"/>
      <point x="186" y="378"/>
      <point x="196" y="363"/>
      <point x="196" y="340" type="curve" smooth="yes"/>
      <point x="196" y="321"/>
      <point x="182" y="309"/>
      <point x="165" y="308" type="curve" smooth="yes"/>
      <point x="147" y="308"/>
      <point x="134" y="321"/>
    </contour>
  </outline>
</glyph>
<glyph name="uni17F6" format="2">
  <advance width="232"/>
  <unicode hex="17F6"/>
  <note>
uni17F6
</note>
  <outline>
    <contour>
      <point x="111" y="244" type="line"/>
      <point x="220" y="244" type="line"/>
      <point x="120" y="586" type="line"/>
      <point x="12" y="586" type="line"/>
    </contour>
  </outline>
</glyph>
<glyph name="uni17F7" format="2">
  <advance width="564"/>
  <unicode hex="17F7"/>
  <note>
uni17F7
</note>
  <outline>
    <contour>
      <point x="22" y="244" type="line"/>
      <point x="130" y="244" type="line"/>
      <point x="201" y="465" type="line"/>
      <point x="290" y="244" type="line"/>
      <point x="440" y="244" type="line"/>
      <point x="542" y="586" type="line"/>
      <point x="434" y="586" type="line"/>
      <point x="365" y="368" type="line"/>
      <point x="280" y="586" type="line"/>
      <point x="120" y="586" type="line"/>
    </contour>
  </outline>
</glyph>
<glyph name="uni17F8" format="2">
  <advance width="230"/>
  <unicode hex="17F8"/>
  <note>
uni17F8
</note>
  <outline>
    <contour>
      <point x="12" y="244" type="line"/>
      <point x="119" y="244" type="line"/>
      <point x="218" y="586" type="line"/>
      <point x="110" y="586" type="line"/>
    </contour>
  </outline>
</glyph>
<glyph name="uni17F9" format="2">
  <advance width="357"/>
  <unicode hex="17F9"/>
  <note>
uni17F9
</note>
  <outline>
    <contour>
      <point x="183" y="73" type="line"/>
      <point x="284" y="73"/>
      <point x="337" y="112"/>
      <point x="337" y="186" type="curve" smooth="yes"/>
      <point x="337" y="248"/>
      <point x="293" y="293"/>
      <point x="237" y="293" type="curve" smooth="yes"/>
      <point x="151" y="293" type="line"/>
      <point x="316" y="435" type="line"/>
      <point x="258" y="521" type="line"/>
      <point x="20" y="299" type="line"/>
      <point x="56" y="214" type="line"/>
      <point x="188" y="214" type="line" smooth="yes"/>
      <point x="218" y="214"/>
      <point x="228" y="202"/>
      <point x="228" y="186" type="curve" smooth="yes"/>
      <point x="228" y="164"/>
      <point x="198" y="157"/>
      <point x="183" y="157" type="curve"/>
    </contour>
  </outline>
</glyph>
<glyph name="uni19E0" format="2">
  <advance width="572"/>
  <unicode hex="19E0"/>
  <note>
uni19E0
</note>
  <outline>
    <contour>
      <point x="290" y="458" type="curve" smooth="yes"/>
      <point x="438" y="458"/>
      <point x="511" y="520"/>
      <point x="511" y="644" type="curve" smooth="yes"/>
      <point x="511" y="858" type="line" smooth="yes"/>
      <point x="511" y="982"/>
      <point x="438" y="1044"/>
      <point x="290" y="1044" type="curve" smooth="yes"/>
      <point x="143" y="1044"/>
      <point x="70" y="982"/>
      <point x="70" y="858" type="curve" smooth="yes"/>
      <point x="70" y="644" type="line" smooth="yes"/>
      <point x="70" y="520"/>
      <point x="143" y="458"/>
    </contour>
    <contour>
      <point x="290" y="570" type="curve" smooth="yes"/>
      <point x="244" y="570"/>
      <point x="221" y="595"/>
      <point x="221" y="644" type="curve" smooth="yes"/>
      <point x="221" y="858" type="line" smooth="yes"/>
      <point x="221" y="907"/>
      <point x="244" y="932"/>
      <point x="290" y="932" type="curve" smooth="yes"/>
      <point x="338" y="932"/>
      <point x="361" y="907"/>
      <point x="361" y="858" type="curve" smooth="yes"/>
      <point x="361" y="644" type="line" smooth="yes"/>
      <point x="361" y="595"/>
      <point x="338" y="570"/>
    </contour>
    <contour>
      <point x="70" y="-271" type="line"/>
      <point x="197" y="-271" type="line"/>
      <point x="291" y="-188" type="line"/>
      <point x="385" y="-271" type="line"/>
      <point x="512" y="-271" type="line"/>
      <point x="512" y="30" type="line" smooth="yes"/>
      <point x="512" y="83"/>
      <point x="506" y="115"/>
      <point x="440" y="115" type="curve" smooth="yes"/>
      <point x="319" y="115" type="line"/>
      <point x="319" y="3" type="line"/>
      <point x="340" y="3" type="line" smooth="yes"/>
      <point x="354" y="3"/>
      <point x="361" y="-1"/>
      <point x="361" y="-27" type="curve" smooth="yes"/>
      <point x="361" y="-106" type="line"/>
      <point x="291" y="-40" type="line"/>
      <point x="221" y="-107" type="line"/>
      <point x="221" y="159" type="line" smooth="yes"/>
      <point x="221" y="188"/>
      <point x="244" y="203"/>
      <point x="290" y="203" type="curve" smooth="yes"/>
      <point x="338" y="203"/>
      <point x="361" y="188"/>
      <point x="361" y="159" type="curve"/>
      <point x="511" y="159" type="line"/>
      <point x="511" y="423" type="line"/>
      <point x="361" y="423" type="line"/>
      <point x="361" y="289" type="line"/>
      <point x="335" y="306"/>
      <point x="298" y="315"/>
      <point x="247" y="315" type="curve" smooth="yes"/>
      <point x="129" y="315"/>
      <point x="70" y="263"/>
      <point x="70" y="159" type="curve" smooth="yes"/>
    </contour>
  </outline>
</glyph>
<glyph name="uni19E1" format="2">
  <advance width="566"/>
  <unicode hex="19E1"/>
  <note>
uni19E1
</note>
  <outline>
    <contour>
      <point x="285" y="407" type="curve" smooth="yes"/>
      <point x="433" y="407"/>
      <point x="506" y="459"/>
      <point x="506" y="563" type="curve" smooth="yes"/>
      <point x="506" y="837" type="line" smooth="yes"/>
      <point x="506" y="941"/>
      <point x="433" y="993"/>
      <point x="285" y="993" type="curve" smooth="yes"/>
      <point x="138" y="993"/>
      <point x="65" y="941"/>
      <point x="65" y="837" type="curve" smooth="yes"/>
      <point x="65" y="778" type="line" smooth="yes"/>
      <point x="65" y="677"/>
      <point x="120" y="660"/>
      <point x="190" y="660" type="curve" smooth="yes"/>
      <point x="285" y="660" type="line"/>
      <point x="285" y="789" type="line"/>
      <point x="248" y="789" type="line" smooth="yes"/>
      <point x="216" y="789"/>
      <point x="216" y="810"/>
      <point x="216" y="828" type="curve" smooth="yes"/>
      <point x="216" y="837" type="line" smooth="yes"/>
      <point x="216" y="866"/>
      <point x="239" y="881"/>
      <point x="285" y="881" type="curve" smooth="yes"/>
      <point x="333" y="881"/>
      <point x="356" y="866"/>
      <point x="356" y="837" type="curve" smooth="yes"/>
      <point x="356" y="563" type="line" smooth="yes"/>
      <point x="356" y="534"/>
      <point x="333" y="519"/>
      <point x="285" y="519" type="curve" smooth="yes"/>
      <point x="239" y="519"/>
      <point x="216" y="534"/>
      <point x="216" y="563" type="curve"/>
      <point x="65" y="563" type="line"/>
      <point x="65" y="459"/>
      <point x="138" y="407"/>
    </contour>
    <contour>
      <point x="324" y="-271" type="line"/>
      <point x="475" y="-271" type="line"/>
      <point x="475" y="315" type="line"/>
      <point x="324" y="315" type="line"/>
      <point x="318" y="228"/>
      <point x="283" y="151"/>
      <point x="235" y="151" type="curve" smooth="yes"/>
      <point x="224" y="151"/>
      <point x="214" y="156"/>
      <point x="214" y="168" type="curve" smooth="yes"/>
      <point x="214" y="179"/>
      <point x="223" y="185"/>
      <point x="232" y="185" type="curve" smooth="yes"/>
      <point x="236" y="185" type="line"/>
      <point x="236" y="315" type="line"/>
      <point x="203" y="315" type="line" smooth="yes"/>
      <point x="126" y="315"/>
      <point x="69" y="257"/>
      <point x="69" y="182" type="curve" smooth="yes"/>
      <point x="69" y="85"/>
      <point x="143" y="30"/>
      <point x="216" y="30" type="curve" smooth="yes"/>
      <point x="284" y="30"/>
      <point x="302" y="59"/>
      <point x="324" y="85" type="curve"/>
    </contour>
  </outline>
</glyph>
<glyph name="uni19E2" format="2">
  <advance width="775"/>
  <unicode hex="19E2"/>
  <note>
uni19E2
</note>
  <outline>
    <contour>
      <point x="422" y="348" type="curve" smooth="yes"/>
      <point x="618" y="348"/>
      <point x="715" y="413"/>
      <point x="715" y="543" type="curve" smooth="yes"/>
      <point x="715" y="934" type="line"/>
      <point x="564" y="934" type="line"/>
      <point x="518" y="892" type="line"/>
      <point x="472" y="934" type="line"/>
      <point x="321" y="934" type="line"/>
      <point x="321" y="641" type="line"/>
      <point x="487" y="641" type="line"/>
      <point x="487" y="753" type="line"/>
      <point x="472" y="753" type="line"/>
      <point x="472" y="807" type="line"/>
      <point x="518" y="767" type="line"/>
      <point x="564" y="807" type="line"/>
      <point x="564" y="543" type="line" smooth="yes"/>
      <point x="564" y="487"/>
      <point x="518" y="460"/>
      <point x="422" y="460" type="curve" smooth="yes"/>
      <point x="326" y="460"/>
      <point x="278" y="488"/>
      <point x="278" y="543" type="curve" smooth="yes"/>
      <point x="278" y="1012" type="line" smooth="yes"/>
      <point x="278" y="1043"/>
      <point x="267" y="1056"/>
      <point x="225" y="1056" type="curve" smooth="yes"/>
      <point x="86" y="1056" type="line"/>
      <point x="86" y="944" type="line"/>
      <point x="127" y="944" type="line"/>
      <point x="127" y="543" type="line" smooth="yes"/>
      <point x="127" y="413"/>
      <point x="225" y="348"/>
    </contour>
    <contour>
      <point x="462" y="-271" type="line"/>
      <point x="613" y="-271" type="line"/>
      <point x="613" y="315" type="line"/>
      <point x="462" y="315" type="line"/>
      <point x="456" y="228"/>
      <point x="421" y="151"/>
      <point x="373" y="151" type="curve" smooth="yes"/>
      <point x="362" y="151"/>
      <point x="352" y="156"/>
      <point x="352" y="168" type="curve" smooth="yes"/>
      <point x="352" y="179"/>
      <point x="361" y="185"/>
      <point x="370" y="185" type="curve" smooth="yes"/>
      <point x="374" y="185" type="line"/>
      <point x="374" y="315" type="line"/>
      <point x="341" y="315" type="line" smooth="yes"/>
      <point x="264" y="315"/>
      <point x="207" y="257"/>
      <point x="207" y="182" type="curve" smooth="yes"/>
      <point x="207" y="85"/>
      <point x="281" y="30"/>
      <point x="354" y="30" type="curve" smooth="yes"/>
      <point x="422" y="30"/>
      <point x="440" y="59"/>
      <point x="462" y="85" type="curve"/>
    </contour>
  </outline>
</glyph>
